solid OpenSCAD_Model
  facet normal 0 1 0
    outer loop
      vertex 5.55 0.25 0
      vertex 5.75 0.25 2.35
      vertex 5.75 0.25 0
    endloop
  endfacet
  facet normal 0 1 0
    outer loop
      vertex 3.3 0.25 0
      vertex 5.75 0.25 2.35
      vertex 5.55 0.25 0
    endloop
  endfacet
  facet normal 0 1 0
    outer loop
      vertex 5.75 0.25 2.35
      vertex 3.3 0.25 0
      vertex 0.25 0.25 2.35
    endloop
  endfacet
  facet normal 0 1 -0
    outer loop
      vertex 2.7 0.25 0
      vertex 0.25 0.25 2.35
      vertex 3.3 0.25 0
    endloop
  endfacet
  facet normal 0 1 -0
    outer loop
      vertex 0.449999 0.25 0
      vertex 0.25 0.25 2.35
      vertex 2.7 0.25 0
    endloop
  endfacet
  facet normal 0 1 0
    outer loop
      vertex 0.25 0.25 2.35
      vertex 0.449999 0.25 0
      vertex 0.25 0.25 0
    endloop
  endfacet
  facet normal 0 0 -1
    outer loop
      vertex 6 -0.25 0
      vertex 5.55 -0.149999 0
      vertex 6 -0.149999 0
    endloop
  endfacet
  facet normal 0 0 -1
    outer loop
      vertex 5.55 -0.149999 0
      vertex 3.3 -0.149999 0
      vertex 5.55 0.25 0
    endloop
  endfacet
  facet normal 0 0 -1
    outer loop
      vertex 6 -0.25 0
      vertex 3.3 -0.149999 0
      vertex 5.55 -0.149999 0
    endloop
  endfacet
  facet normal 0 0 -1
    outer loop
      vertex 6 -0.25 0
      vertex 2.7 -0.149999 0
      vertex 3.3 -0.149999 0
    endloop
  endfacet
  facet normal 0 0 -1
    outer loop
      vertex 2.7 -0.149999 0
      vertex 0.449999 -0.149999 0
      vertex 2.7 0.25 0
    endloop
  endfacet
  facet normal 0 0 -1
    outer loop
      vertex 0 -0.25 0
      vertex 2.7 -0.149999 0
      vertex 6 -0.25 0
    endloop
  endfacet
  facet normal -0 0 -1
    outer loop
      vertex 2.7 -0.149999 0
      vertex 0 -0.25 0
      vertex 0.449999 -0.149999 0
    endloop
  endfacet
  facet normal -0 0 -1
    outer loop
      vertex 0.449999 -0.149999 0
      vertex 0 -0.25 0
      vertex 0 -0.149999 0
    endloop
  endfacet
  facet normal -0 0 -1
    outer loop
      vertex 5.55 0.25 0
      vertex 3.3 -0.149999 0
      vertex 3.3 0.25 0
    endloop
  endfacet
  facet normal -0 0 -1
    outer loop
      vertex 2.7 0.25 0
      vertex 0.449999 -0.149999 0
      vertex 0.449999 0.25 0
    endloop
  endfacet
  facet normal 0 0 -1
    outer loop
      vertex 2.7 5.75 0
      vertex 0.449999 5.75 0
      vertex 2.7 6.15 0
    endloop
  endfacet
  facet normal 0 0 -1
    outer loop
      vertex 5.55 5.75 0
      vertex 3.3 5.75 0
      vertex 5.55 6.15 0
    endloop
  endfacet
  facet normal 0 0 -1
    outer loop
      vertex 5.55 6.15 0
      vertex 6 6.25 0
      vertex 6 6.15 0
    endloop
  endfacet
  facet normal 0 0 -1
    outer loop
      vertex 3.3 6.15 0
      vertex 5.55 6.15 0
      vertex 3.3 5.75 0
    endloop
  endfacet
  facet normal 0 0 -1
    outer loop
      vertex 3.1 6.25 0
      vertex 5.55 6.15 0
      vertex 3.3 6.15 0
    endloop
  endfacet
  facet normal 0 0 -1
    outer loop
      vertex 5.55 6.15 0
      vertex 3.1 6.25 0
      vertex 6 6.25 0
    endloop
  endfacet
  facet normal 0 0 -1
    outer loop
      vertex 3.1 6.25 0
      vertex 2.9 6.25 0
      vertex 3.1 7.7 0
    endloop
  endfacet
  facet normal 0 0 -1
    outer loop
      vertex 3.3 6.15 0
      vertex 2.9 6.25 0
      vertex 3.1 6.25 0
    endloop
  endfacet
  facet normal 0 0 -1
    outer loop
      vertex 2.7 6.15 0
      vertex 2.9 6.25 0
      vertex 3.3 6.15 0
    endloop
  endfacet
  facet normal 0 0 -1
    outer loop
      vertex 0.449999 6.15 0
      vertex 2.7 6.15 0
      vertex 0.449999 5.75 0
    endloop
  endfacet
  facet normal 0 0 -1
    outer loop
      vertex 2.7 6.15 0
      vertex 0.449999 6.15 0
      vertex 2.9 6.25 0
    endloop
  endfacet
  facet normal 0 0 -1
    outer loop
      vertex 0.449999 6.15 0
      vertex 0.0999994 6.25 0
      vertex 2.9 6.25 0
    endloop
  endfacet
  facet normal 0 0 -1
    outer loop
      vertex -0.0999994 6.15 0
      vertex 0.0999994 6.25 0
      vertex 0.449999 6.15 0
    endloop
  endfacet
  facet normal 0 0 -1
    outer loop
      vertex -0.0999994 7.7 0
      vertex 0.0999994 6.25 0
      vertex -0.0999994 6.15 0
    endloop
  endfacet
  facet normal 0 0 -1
    outer loop
      vertex 0.0999994 6.25 0
      vertex -0.0999994 7.7 0
      vertex 0.0999994 7.7 0
    endloop
  endfacet
  facet normal -0 0 -1
    outer loop
      vertex 3.1 7.7 0
      vertex 2.9 6.25 0
      vertex 2.9 7.7 0
    endloop
  endfacet
  facet normal 0 0 -1
    outer loop
      vertex 5.75 3.3 0
      vertex 6.15 5.55 0
      vertex 6.15 3.3 0
    endloop
  endfacet
  facet normal -0 0 -1
    outer loop
      vertex 6.15 5.55 0
      vertex 5.75 3.3 0
      vertex 5.75 5.55 0
    endloop
  endfacet
  facet normal 0 0 -1
    outer loop
      vertex 5.75 0.449999 0
      vertex 6.15 2.7 0
      vertex 6.15 0.449999 0
    endloop
  endfacet
  facet normal -0 0 -1
    outer loop
      vertex 6.15 2.7 0
      vertex 5.75 0.449999 0
      vertex 5.75 2.7 0
    endloop
  endfacet
  facet normal 0 0 -1
    outer loop
      vertex 6.15 0.449999 0
      vertex 6.25 0 0
      vertex 6.15 0 0
    endloop
  endfacet
  facet normal 0 0 -1
    outer loop
      vertex 6.15 2.7 0
      vertex 6.25 0 0
      vertex 6.15 0.449999 0
    endloop
  endfacet
  facet normal 0 0 -1
    outer loop
      vertex 6.25 0 0
      vertex 6.15 2.7 0
      vertex 6.25 6 0
    endloop
  endfacet
  facet normal 0 0 -1
    outer loop
      vertex 6.15 3.3 0
      vertex 6.25 6 0
      vertex 6.15 2.7 0
    endloop
  endfacet
  facet normal 0 0 -1
    outer loop
      vertex 6.15 5.55 0
      vertex 6.25 6 0
      vertex 6.15 3.3 0
    endloop
  endfacet
  facet normal -0 0 -1
    outer loop
      vertex 6.25 6 0
      vertex 6.15 5.55 0
      vertex 6.15 6 0
    endloop
  endfacet
  facet normal 0 0 -1
    outer loop
      vertex -0.25 0 0
      vertex -0.149999 0.449999 0
      vertex -0.149999 0 0
    endloop
  endfacet
  facet normal -0 0 -1
    outer loop
      vertex -0.149999 0.449999 0
      vertex -0.25 0 0
      vertex -0.149999 2.7 0
    endloop
  endfacet
  facet normal -0 0 -1
    outer loop
      vertex -0.149999 2.7 0
      vertex -0.25 0 0
      vertex -0.149999 3.3 0
    endloop
  endfacet
  facet normal 0 0 -1
    outer loop
      vertex -0.25 6 0
      vertex -0.149999 3.3 0
      vertex -0.25 0 0
    endloop
  endfacet
  facet normal 0 0 -1
    outer loop
      vertex -0.149999 3.3 0
      vertex -0.25 6 0
      vertex -0.149999 5.55 0
    endloop
  endfacet
  facet normal 0 0 -1
    outer loop
      vertex -0.149999 5.55 0
      vertex -0.25 6 0
      vertex -0.149999 6 0
    endloop
  endfacet
  facet normal 0 0 -1
    outer loop
      vertex -0.149999 0.449999 0
      vertex 0.25 2.7 0
      vertex 0.25 0.449999 0
    endloop
  endfacet
  facet normal -0 0 -1
    outer loop
      vertex 0.25 2.7 0
      vertex -0.149999 0.449999 0
      vertex -0.149999 2.7 0
    endloop
  endfacet
  facet normal 0 0 -1
    outer loop
      vertex -0.149999 3.3 0
      vertex 0.25 5.55 0
      vertex 0.25 3.3 0
    endloop
  endfacet
  facet normal -0 0 -1
    outer loop
      vertex 0.25 5.55 0
      vertex -0.149999 3.3 0
      vertex -0.149999 5.55 0
    endloop
  endfacet
  facet normal -0 0 1
    outer loop
      vertex -0.149999 0 0
      vertex 0 -0.149999 0
      vertex 0 0 0
    endloop
  endfacet
  facet normal 0 0 1
    outer loop
      vertex 0 -0.149999 0
      vertex -0.149999 0 0
      vertex -0.149999 -0.149999 0
    endloop
  endfacet
  facet normal -0 0 1
    outer loop
      vertex 0.25 0.449999 0
      vertex 0.449999 0.25 0
      vertex 0.449999 0.449999 0
    endloop
  endfacet
  facet normal 0 0 1
    outer loop
      vertex 0.449999 0.25 0
      vertex 0.25 0.449999 0
      vertex 0.25 0.25 0
    endloop
  endfacet
  facet normal -0 0 1
    outer loop
      vertex 5.55 0.449999 0
      vertex 5.75 0.25 0
      vertex 5.75 0.449999 0
    endloop
  endfacet
  facet normal 0 0 1
    outer loop
      vertex 5.75 0.25 0
      vertex 5.55 0.449999 0
      vertex 5.55 0.25 0
    endloop
  endfacet
  facet normal -0 0 1
    outer loop
      vertex 0.25 5.75 0
      vertex 0.449999 5.55 0
      vertex 0.449999 5.75 0
    endloop
  endfacet
  facet normal 0 0 1
    outer loop
      vertex 0.449999 5.55 0
      vertex 0.25 5.75 0
      vertex 0.25 5.55 0
    endloop
  endfacet
  facet normal -0 0 1
    outer loop
      vertex 5.55 5.75 0
      vertex 5.75 5.55 0
      vertex 5.75 5.75 0
    endloop
  endfacet
  facet normal 0 0 1
    outer loop
      vertex 5.75 5.55 0
      vertex 5.55 5.75 0
      vertex 5.55 5.55 0
    endloop
  endfacet
  facet normal -0 0 1
    outer loop
      vertex 6 6.15 0
      vertex 6.15 6 0
      vertex 6.15 6.15 0
    endloop
  endfacet
  facet normal 0 0 1
    outer loop
      vertex 6.15 6 0
      vertex 6 6.15 0
      vertex 6 6 0
    endloop
  endfacet
  facet normal -0 0 1
    outer loop
      vertex 6 0 0
      vertex 6.15 -0.149999 0
      vertex 6.15 0 0
    endloop
  endfacet
  facet normal 0 0 1
    outer loop
      vertex 6.15 -0.149999 0
      vertex 6 0 0
      vertex 6 -0.149999 0
    endloop
  endfacet
  facet normal -0 0 1
    outer loop
      vertex -0.149999 6.15 0
      vertex -0.0999994 6 0
      vertex -0.0999994 6.15 0
    endloop
  endfacet
  facet normal 0 0 1
    outer loop
      vertex -0.0999994 6 0
      vertex -0.149999 6.15 0
      vertex -0.149999 6 0
    endloop
  endfacet
  facet normal 0 0 1
    outer loop
      vertex 0.299999 8.3 0
      vertex 0 8.1 0
      vertex 0.299999 8.1 0
    endloop
  endfacet
  facet normal 0 0 1
    outer loop
      vertex 0 8.1 0
      vertex -0.0999994 8 0
      vertex 0 8 0
    endloop
  endfacet
  facet normal -0 0 1
    outer loop
      vertex -0.299999 8.3 0
      vertex 0 8.1 0
      vertex 0.299999 8.3 0
    endloop
  endfacet
  facet normal 0 0 1
    outer loop
      vertex -0.299999 8.3 0
      vertex -0.0999994 8 0
      vertex 0 8.1 0
    endloop
  endfacet
  facet normal 0 0 1
    outer loop
      vertex -0.299999 7.7 0
      vertex -0.0999994 8 0
      vertex -0.299999 8.3 0
    endloop
  endfacet
  facet normal 0 0 1
    outer loop
      vertex -0.0999994 8 0
      vertex -0.299999 7.7 0
      vertex -0.0999994 7.7 0
    endloop
  endfacet
  facet normal 0 0 1
    outer loop
      vertex 3.3 8.3 0
      vertex 3.1 8 0
      vertex 3.3 7.7 0
    endloop
  endfacet
  facet normal 0 0 1
    outer loop
      vertex 3.3 8.3 0
      vertex 3 8.1 0
      vertex 3.1 8 0
    endloop
  endfacet
  facet normal -0 0 1
    outer loop
      vertex 2.7 8.3 0
      vertex 3 8.1 0
      vertex 3.3 8.3 0
    endloop
  endfacet
  facet normal 0 0 1
    outer loop
      vertex 3 8.1 0
      vertex 2.7 8.3 0
      vertex 2.7 8.1 0
    endloop
  endfacet
  facet normal 0 0 1
    outer loop
      vertex 3.3 7.7 0
      vertex 3.1 8 0
      vertex 3.1 7.7 0
    endloop
  endfacet
  facet normal 0 0 1
    outer loop
      vertex 3.1 8 0
      vertex 3 8.1 0
      vertex 3 8 0
    endloop
  endfacet
  facet normal -0 0 1
    outer loop
      vertex 2.7 7.9 0
      vertex 2.9 7.7 0
      vertex 2.9 7.9 0
    endloop
  endfacet
  facet normal 0 0 1
    outer loop
      vertex 2.9 7.7 0
      vertex 2.7 7.9 0
      vertex 2.7 7.7 0
    endloop
  endfacet
  facet normal -0 0 1
    outer loop
      vertex 0.0999994 7.9 0
      vertex 0.299999 7.7 0
      vertex 0.299999 7.9 0
    endloop
  endfacet
  facet normal 0 0 1
    outer loop
      vertex 0.299999 7.7 0
      vertex 0.0999994 7.9 0
      vertex 0.0999994 7.7 0
    endloop
  endfacet
  facet normal -0 0 1
    outer loop
      vertex 0.25 3.3 0
      vertex 0.449999 2.7 0
      vertex 0.449999 3.3 0
    endloop
  endfacet
  facet normal 0 0 1
    outer loop
      vertex 0.449999 2.7 0
      vertex 0.25 3.3 0
      vertex 0.25 2.7 0
    endloop
  endfacet
  facet normal -0 0 1
    outer loop
      vertex 5.55 3.3 0
      vertex 5.75 2.7 0
      vertex 5.75 3.3 0
    endloop
  endfacet
  facet normal 0 0 1
    outer loop
      vertex 5.75 2.7 0
      vertex 5.55 3.3 0
      vertex 5.55 2.7 0
    endloop
  endfacet
  facet normal -0 0 1
    outer loop
      vertex 2.7 5.75 0
      vertex 3.3 5.55 0
      vertex 3.3 5.75 0
    endloop
  endfacet
  facet normal 0 0 1
    outer loop
      vertex 3.3 5.55 0
      vertex 2.7 5.75 0
      vertex 2.7 5.55 0
    endloop
  endfacet
  facet normal -0 0 1
    outer loop
      vertex 2.7 0.449999 0
      vertex 3.3 0.25 0
      vertex 3.3 0.449999 0
    endloop
  endfacet
  facet normal 0 0 1
    outer loop
      vertex 3.3 0.25 0
      vertex 2.7 0.449999 0
      vertex 2.7 0.25 0
    endloop
  endfacet
  facet normal 0 0 -1
    outer loop
      vertex 0.299999 7.9 0
      vertex 2.7 8.1 0
      vertex 2.7 7.9 0
    endloop
  endfacet
  facet normal -0 0 -1
    outer loop
      vertex 2.7 8.1 0
      vertex 0.299999 7.9 0
      vertex 0.299999 8.1 0
    endloop
  endfacet
  facet normal 1 0 0
    outer loop
      vertex 6 0 2.35
      vertex 6 -0.149999 0
      vertex 6 0 0
    endloop
  endfacet
  facet normal 1 -0 0
    outer loop
      vertex 6 -0.25 2.35
      vertex 6 -0.149999 0
      vertex 6 0 2.35
    endloop
  endfacet
  facet normal 1 0 0
    outer loop
      vertex 6 -0.149999 0
      vertex 6 -0.25 2.35
      vertex 6 -0.25 0
    endloop
  endfacet
  facet normal -1 0 0
    outer loop
      vertex 0 -0.149999 0
      vertex 0 0 2.35
      vertex 0 0 0
    endloop
  endfacet
  facet normal -1 0 0
    outer loop
      vertex 0 -0.25 2.35
      vertex 0 -0.149999 0
      vertex 0 -0.25 0
    endloop
  endfacet
  facet normal -1 0 0
    outer loop
      vertex 0 -0.149999 0
      vertex 0 -0.25 2.35
      vertex 0 0 2.35
    endloop
  endfacet
  facet normal 0 -1 0
    outer loop
      vertex 0 -0.25 0
      vertex 6 -0.25 2.35
      vertex 0 -0.25 2.35
    endloop
  endfacet
  facet normal 0 -1 -0
    outer loop
      vertex 6 -0.25 2.35
      vertex 0 -0.25 0
      vertex 6 -0.25 0
    endloop
  endfacet
  facet normal 0 -1 0
    outer loop
      vertex 0 -0.25 2.35
      vertex -0.25 -0.25 2.85
      vertex -0.25 -0.25 2.35
    endloop
  endfacet
  facet normal 0 -1 0
    outer loop
      vertex -0.25 -0.25 2.85
      vertex 0 -0.25 2.35
      vertex 6.25 -0.25 2.85
    endloop
  endfacet
  facet normal 0 -1 0
    outer loop
      vertex 6 -0.25 2.35
      vertex 6.25 -0.25 2.85
      vertex 0 -0.25 2.35
    endloop
  endfacet
  facet normal 0 -1 -0
    outer loop
      vertex 6.25 -0.25 2.85
      vertex 6 -0.25 2.35
      vertex 6.25 -0.25 2.35
    endloop
  endfacet
  facet normal -1 0 0
    outer loop
      vertex 5.75 5.55 0
      vertex 5.75 5.75 3.63333
      vertex 5.75 5.75 0
    endloop
  endfacet
  facet normal -1 0 0
    outer loop
      vertex 5.75 3.3 0
      vertex 5.75 5.75 3.63333
      vertex 5.75 5.55 0
    endloop
  endfacet
  facet normal -1 0 0
    outer loop
      vertex 5.75 0.25 2.35
      vertex 5.75 3.3 0
      vertex 5.75 2.7 0
    endloop
  endfacet
  facet normal -1 0 0
    outer loop
      vertex 5.75 0.25 2.35
      vertex 5.75 2.7 0
      vertex 5.75 0.449999 0
    endloop
  endfacet
  facet normal -1 0 0
    outer loop
      vertex 5.75 0.25 2.35
      vertex 5.75 0.449999 0
      vertex 5.75 0.25 0
    endloop
  endfacet
  facet normal -1 0 0
    outer loop
      vertex 5.75 3.3 0
      vertex 5.75 0.25 2.35
      vertex 5.75 5.75 3.63333
    endloop
  endfacet
  facet normal 0 1 0
    outer loop
      vertex 6.15 6 0
      vertex 6.25 6 3.69167
      vertex 6.25 6 0
    endloop
  endfacet
  facet normal 0 1 0
    outer loop
      vertex 6.25 6 3.69167
      vertex 6.15 6 0
      vertex 6 6 3.69167
    endloop
  endfacet
  facet normal 0 1 0
    outer loop
      vertex 6 6 3.69167
      vertex 6.15 6 0
      vertex 6 6 0
    endloop
  endfacet
  facet normal 0 -1 0
    outer loop
      vertex 6.15 0 0
      vertex 6 0 2.35
      vertex 6 0 0
    endloop
  endfacet
  facet normal 0 -1 0
    outer loop
      vertex 6 0 2.35
      vertex 6.15 0 0
      vertex 6.25 0 2.35
    endloop
  endfacet
  facet normal 0 -1 -0
    outer loop
      vertex 6.25 0 2.35
      vertex 6.15 0 0
      vertex 6.25 0 0
    endloop
  endfacet
  facet normal 1 -0 0
    outer loop
      vertex 6.25 -0.25 2.85
      vertex 6.25 0 2.35
      vertex 6.25 5.75 4.25
    endloop
  endfacet
  facet normal 1 0 0
    outer loop
      vertex 6.25 0 2.35
      vertex 6.25 -0.25 2.85
      vertex 6.25 -0.25 2.35
    endloop
  endfacet
  facet normal 1 0 0
    outer loop
      vertex 6.25 6.25 4.25
      vertex 6.25 6 3.69167
      vertex 6.25 6.25 3.75
    endloop
  endfacet
  facet normal 1 -0 0
    outer loop
      vertex 6.25 5.75 4.25
      vertex 6.25 6 3.69167
      vertex 6.25 6.25 4.25
    endloop
  endfacet
  facet normal 1 0 0
    outer loop
      vertex 6.25 0 2.35
      vertex 6.25 6 3.69167
      vertex 6.25 5.75 4.25
    endloop
  endfacet
  facet normal 1 0 0
    outer loop
      vertex 6.25 6 3.69167
      vertex 6.25 0 2.35
      vertex 6.25 6 0
    endloop
  endfacet
  facet normal 1 0 0
    outer loop
      vertex 6.25 6 0
      vertex 6.25 0 2.35
      vertex 6.25 0 0
    endloop
  endfacet
  facet normal 0 -1 0
    outer loop
      vertex 0.449999 5.75 0
      vertex 0.25 5.75 3.63333
      vertex 0.25 5.75 0
    endloop
  endfacet
  facet normal 0 -1 0
    outer loop
      vertex 2.7 5.75 0
      vertex 0.25 5.75 3.63333
      vertex 0.449999 5.75 0
    endloop
  endfacet
  facet normal 0 -1 0
    outer loop
      vertex 0.25 5.75 3.63333
      vertex 2.7 5.75 0
      vertex 5.75 5.75 3.63333
    endloop
  endfacet
  facet normal 0 -1 0
    outer loop
      vertex 3.3 5.75 0
      vertex 5.75 5.75 3.63333
      vertex 2.7 5.75 0
    endloop
  endfacet
  facet normal 0 -1 0
    outer loop
      vertex 5.55 5.75 0
      vertex 5.75 5.75 3.63333
      vertex 3.3 5.75 0
    endloop
  endfacet
  facet normal 0 -1 -0
    outer loop
      vertex 5.75 5.75 3.63333
      vertex 5.55 5.75 0
      vertex 5.75 5.75 0
    endloop
  endfacet
  facet normal 0 1 0
    outer loop
      vertex 6 6.25 3.75
      vertex 6.25 6.25 4.25
      vertex 6.25 6.25 3.75
    endloop
  endfacet
  facet normal 0 1 0
    outer loop
      vertex 6.25 6.25 4.25
      vertex 6 6.25 3.75
      vertex 3.25 6.25 4.25
    endloop
  endfacet
  facet normal 0 1 0
    outer loop
      vertex 6 6.25 3.75
      vertex 3.25 6.25 3.4
      vertex 3.25 6.25 4.25
    endloop
  endfacet
  facet normal 0 1 -0
    outer loop
      vertex 6 6.25 0
      vertex 3.25 6.25 3.4
      vertex 6 6.25 3.75
    endloop
  endfacet
  facet normal 0 1 0
    outer loop
      vertex 3.1 6.25 0
      vertex 3.25 6.25 3.4
      vertex 6 6.25 0
    endloop
  endfacet
  facet normal 0 1 0
    outer loop
      vertex 3.25 6.25 3.4
      vertex 3.1 6.25 0
      vertex 3.1 6.25 3.4
    endloop
  endfacet
  facet normal 0 1 -0
    outer loop
      vertex 2.9 6.25 0
      vertex 0.0999994 6.25 3.4
      vertex 2.9 6.25 3.4
    endloop
  endfacet
  facet normal 0 1 0
    outer loop
      vertex 0.0999994 6.25 3.4
      vertex 2.9 6.25 0
      vertex 0.0999994 6.25 0
    endloop
  endfacet
  facet normal 1 -0 0
    outer loop
      vertex 6 6 3.69167
      vertex 6 6.25 0
      vertex 6 6.25 3.75
    endloop
  endfacet
  facet normal 1 0 0
    outer loop
      vertex 6 6.25 0
      vertex 6 6 3.69167
      vertex 6 6.15 0
    endloop
  endfacet
  facet normal 1 0 0
    outer loop
      vertex 6 6.15 0
      vertex 6 6 3.69167
      vertex 6 6 0
    endloop
  endfacet
  facet normal -1 0 0
    outer loop
      vertex -0.25 0 2.35
      vertex -0.25 6 3.575
      vertex -0.25 6 0
    endloop
  endfacet
  facet normal -1 0 0
    outer loop
      vertex -0.25 0 2.35
      vertex -0.25 6 0
      vertex -0.25 0 0
    endloop
  endfacet
  facet normal -1 -0 0
    outer loop
      vertex -0.25 6 3.575
      vertex -0.25 0 2.35
      vertex -0.25 5.75 4.25
    endloop
  endfacet
  facet normal -1 0 0
    outer loop
      vertex -0.25 -0.25 2.85
      vertex -0.25 0 2.35
      vertex -0.25 -0.25 2.35
    endloop
  endfacet
  facet normal -1 0 0
    outer loop
      vertex -0.25 0 2.35
      vertex -0.25 -0.25 2.85
      vertex -0.25 5.75 4.25
    endloop
  endfacet
  facet normal -1 0 0
    outer loop
      vertex -0.25 7.75 2.35
      vertex -0.25 8.25 2.85
      vertex -0.25 8.25 2.35
    endloop
  endfacet
  facet normal -1 0 0
    outer loop
      vertex -0.25 6 3.575
      vertex -0.25 8.25 2.85
      vertex -0.25 7.75 2.35
    endloop
  endfacet
  facet normal -1 0 0
    outer loop
      vertex -0.25 8.25 2.85
      vertex -0.25 6 3.575
      vertex -0.25 6.25 4.25
    endloop
  endfacet
  facet normal -1 -0 0
    outer loop
      vertex -0.25 6.25 4.25
      vertex -0.25 6 3.575
      vertex -0.25 5.75 4.25
    endloop
  endfacet
  facet normal 0 1 0
    outer loop
      vertex -0.149999 6 0
      vertex -0.0999994 6 3.575
      vertex -0.0999994 6 0
    endloop
  endfacet
  facet normal 0 1 0
    outer loop
      vertex -0.0999994 6 3.575
      vertex -0.149999 6 0
      vertex -0.25 6 3.575
    endloop
  endfacet
  facet normal 0 1 0
    outer loop
      vertex -0.25 6 3.575
      vertex -0.149999 6 0
      vertex -0.25 6 0
    endloop
  endfacet
  facet normal 0 -1 0
    outer loop
      vertex -0.149999 0 0
      vertex -0.25 0 2.35
      vertex -0.25 0 0
    endloop
  endfacet
  facet normal 0 -1 0
    outer loop
      vertex -0.25 0 2.35
      vertex -0.149999 0 0
      vertex 0 0 2.35
    endloop
  endfacet
  facet normal 0 -1 -0
    outer loop
      vertex 0 0 2.35
      vertex -0.149999 0 0
      vertex 0 0 0
    endloop
  endfacet
  facet normal 1 0 0
    outer loop
      vertex 0.25 5.75 3.63333
      vertex 0.25 5.55 0
      vertex 0.25 5.75 0
    endloop
  endfacet
  facet normal 1 0 0
    outer loop
      vertex 0.25 5.75 3.63333
      vertex 0.25 3.3 0
      vertex 0.25 5.55 0
    endloop
  endfacet
  facet normal 1 -0 0
    outer loop
      vertex 0.25 0.25 2.35
      vertex 0.25 3.3 0
      vertex 0.25 5.75 3.63333
    endloop
  endfacet
  facet normal 1 0 0
    outer loop
      vertex 0.25 3.3 0
      vertex 0.25 0.25 2.35
      vertex 0.25 2.7 0
    endloop
  endfacet
  facet normal 1 0 0
    outer loop
      vertex 0.25 2.7 0
      vertex 0.25 0.25 2.35
      vertex 0.25 0.449999 0
    endloop
  endfacet
  facet normal 1 0 0
    outer loop
      vertex 0.25 0.449999 0
      vertex 0.25 0.25 2.35
      vertex 0.25 0.25 0
    endloop
  endfacet
  facet normal 1 -0 0
    outer loop
      vertex 3.1 7.75 2.35
      vertex 3.1 8 0
      vertex 3.1 8 2.35
    endloop
  endfacet
  facet normal 1 0 0
    outer loop
      vertex 3.1 7.75 2.35
      vertex 3.1 7.7 0
      vertex 3.1 8 0
    endloop
  endfacet
  facet normal 1 0 0
    outer loop
      vertex 3.1 6.25 0
      vertex 3.1 7.75 2.35
      vertex 3.1 6.25 3.4
    endloop
  endfacet
  facet normal 1 0 0
    outer loop
      vertex 3.1 7.75 2.35
      vertex 3.1 6.25 0
      vertex 3.1 7.7 0
    endloop
  endfacet
  facet normal 0 1 -0
    outer loop
      vertex 3.1 8 0
      vertex 3 8 2.35
      vertex 3.1 8 2.35
    endloop
  endfacet
  facet normal 0 1 0
    outer loop
      vertex 3 8 2.35
      vertex 3.1 8 0
      vertex 3 8 0
    endloop
  endfacet
  facet normal -1 0 0
    outer loop
      vertex 2.9 7.9 0
      vertex 2.9 7.75 2.35
      vertex 2.9 7.9 2.35
    endloop
  endfacet
  facet normal -1 0 0
    outer loop
      vertex 2.9 7.7 0
      vertex 2.9 7.75 2.35
      vertex 2.9 7.9 0
    endloop
  endfacet
  facet normal -1 0 0
    outer loop
      vertex 2.9 6.25 0
      vertex 2.9 7.75 2.35
      vertex 2.9 7.7 0
    endloop
  endfacet
  facet normal -1 -0 0
    outer loop
      vertex 2.9 7.75 2.35
      vertex 2.9 6.25 0
      vertex 2.9 6.25 3.4
    endloop
  endfacet
  facet normal 0 -1 0
    outer loop
      vertex 0.299999 7.9 0
      vertex 0.0999994 7.9 2.35
      vertex 0.0999994 7.9 0
    endloop
  endfacet
  facet normal 0 -1 0
    outer loop
      vertex 0.0999994 7.9 2.35
      vertex 0.299999 7.9 0
      vertex 2.9 7.9 2.35
    endloop
  endfacet
  facet normal 0 -1 0
    outer loop
      vertex 2.7 7.9 0
      vertex 2.9 7.9 2.35
      vertex 0.299999 7.9 0
    endloop
  endfacet
  facet normal 0 -1 -0
    outer loop
      vertex 2.9 7.9 2.35
      vertex 2.7 7.9 0
      vertex 2.9 7.9 0
    endloop
  endfacet
  facet normal -1 0 0
    outer loop
      vertex 0 8 0
      vertex 0 8.1 2.35
      vertex 0 8.1 0
    endloop
  endfacet
  facet normal -1 -0 0
    outer loop
      vertex 0 8.1 2.35
      vertex 0 8 0
      vertex 0 8 2.35
    endloop
  endfacet
  facet normal 0 1 0
    outer loop
      vertex 2.7 8.1 0
      vertex 3 8.1 2.35
      vertex 3 8.1 0
    endloop
  endfacet
  facet normal 0 1 0
    outer loop
      vertex 3 8.1 2.35
      vertex 2.7 8.1 0
      vertex 0 8.1 2.35
    endloop
  endfacet
  facet normal 0 1 -0
    outer loop
      vertex 0.299999 8.1 0
      vertex 0 8.1 2.35
      vertex 2.7 8.1 0
    endloop
  endfacet
  facet normal 0 1 0
    outer loop
      vertex 0 8.1 2.35
      vertex 0.299999 8.1 0
      vertex 0 8.1 0
    endloop
  endfacet
  facet normal 1 -0 0
    outer loop
      vertex 3 8 2.35
      vertex 3 8.1 0
      vertex 3 8.1 2.35
    endloop
  endfacet
  facet normal 1 0 0
    outer loop
      vertex 3 8.1 0
      vertex 3 8 2.35
      vertex 3 8 0
    endloop
  endfacet
  facet normal 1 -0 0
    outer loop
      vertex 0.0999994 7.75 2.35
      vertex 0.0999994 7.9 0
      vertex 0.0999994 7.9 2.35
    endloop
  endfacet
  facet normal 1 0 0
    outer loop
      vertex 0.0999994 7.75 2.35
      vertex 0.0999994 7.7 0
      vertex 0.0999994 7.9 0
    endloop
  endfacet
  facet normal 1 0 0
    outer loop
      vertex 0.0999994 6.25 0
      vertex 0.0999994 7.75 2.35
      vertex 0.0999994 6.25 3.4
    endloop
  endfacet
  facet normal 1 0 0
    outer loop
      vertex 0.0999994 7.75 2.35
      vertex 0.0999994 6.25 0
      vertex 0.0999994 7.7 0
    endloop
  endfacet
  facet normal 0 1 -0
    outer loop
      vertex 0 8 0
      vertex -0.0999994 8 2.35
      vertex 0 8 2.35
    endloop
  endfacet
  facet normal 0 1 0
    outer loop
      vertex -0.0999994 8 2.35
      vertex 0 8 0
      vertex -0.0999994 8 0
    endloop
  endfacet
  facet normal -1 0 0
    outer loop
      vertex -0.0999994 8 0
      vertex -0.0999994 7.75 2.35
      vertex -0.0999994 8 2.35
    endloop
  endfacet
  facet normal -1 0 0
    outer loop
      vertex -0.0999994 7.7 0
      vertex -0.0999994 7.75 2.35
      vertex -0.0999994 8 0
    endloop
  endfacet
  facet normal -1 0 0
    outer loop
      vertex -0.0999994 6.15 0
      vertex -0.0999994 7.75 2.35
      vertex -0.0999994 7.7 0
    endloop
  endfacet
  facet normal -1 0 0
    outer loop
      vertex -0.0999994 6 0
      vertex -0.0999994 7.75 2.35
      vertex -0.0999994 6.15 0
    endloop
  endfacet
  facet normal -1 -0 0
    outer loop
      vertex -0.0999994 7.75 2.35
      vertex -0.0999994 6 0
      vertex -0.0999994 6 3.575
    endloop
  endfacet
  facet normal -0 0 1
    outer loop
      vertex 3.25 6.25 4.25
      vertex 6.25 5.75 4.25
      vertex 6.25 6.25 4.25
    endloop
  endfacet
  facet normal 0 0 1
    outer loop
      vertex -0.25 5.75 4.25
      vertex 3.25 6.25 4.25
      vertex -0.25 6.25 4.25
    endloop
  endfacet
  facet normal 0 0 1
    outer loop
      vertex 3.25 6.25 4.25
      vertex -0.25 5.75 4.25
      vertex 6.25 5.75 4.25
    endloop
  endfacet
  facet normal 0 -0.22723 0.973841
    outer loop
      vertex -0.25 5.75 4.25
      vertex 6.25 -0.25 2.85
      vertex 6.25 5.75 4.25
    endloop
  endfacet
  facet normal 0 -0.22723 0.973841
    outer loop
      vertex 6.25 -0.25 2.85
      vertex -0.25 5.75 4.25
      vertex -0.25 -0.25 2.85
    endloop
  endfacet
  facet normal 0 0.227217 -0.973844
    outer loop
      vertex 6 6 3.69167
      vertex 6.25 6.25 3.75
      vertex 6.25 6 3.69167
    endloop
  endfacet
  facet normal 0 0.227217 -0.973844
    outer loop
      vertex 6.25 6.25 3.75
      vertex 6 6 3.69167
      vertex 6 6.25 3.75
    endloop
  endfacet
  facet normal 0 0.227229 -0.973841
    outer loop
      vertex 0.25 0.25 2.35
      vertex 5.75 5.75 3.63333
      vertex 5.75 0.25 2.35
    endloop
  endfacet
  facet normal 0 0.227229 -0.973841
    outer loop
      vertex 5.75 5.75 3.63333
      vertex 0.25 0.25 2.35
      vertex 0.25 5.75 3.63333
    endloop
  endfacet
  facet normal 0 0 -1
    outer loop
      vertex -0.25 -0.25 2.35
      vertex 0 0 2.35
      vertex 0 -0.25 2.35
    endloop
  endfacet
  facet normal -0 0 -1
    outer loop
      vertex 0 0 2.35
      vertex -0.25 -0.25 2.35
      vertex -0.25 0 2.35
    endloop
  endfacet
  facet normal 0 0 -1
    outer loop
      vertex 6 -0.25 2.35
      vertex 6.25 0 2.35
      vertex 6.25 -0.25 2.35
    endloop
  endfacet
  facet normal -0 0 -1
    outer loop
      vertex 6.25 0 2.35
      vertex 6 -0.25 2.35
      vertex 6 0 2.35
    endloop
  endfacet
  facet normal -0 0.573462 0.819232
    outer loop
      vertex -0.25 8.25 2.85
      vertex 3.25 6.25 4.25
      vertex 3.25 8.25 2.85
    endloop
  endfacet
  facet normal 0 0.573462 0.819232
    outer loop
      vertex 3.25 6.25 4.25
      vertex -0.25 8.25 2.85
      vertex -0.25 6.25 4.25
    endloop
  endfacet
  facet normal 0 0 -1
    outer loop
      vertex -0.0999994 7.75 2.35
      vertex -0.25 7.75 2.35
      vertex -0.0999994 8 2.35
    endloop
  endfacet
  facet normal 0 0 -1
    outer loop
      vertex 0 8 2.35
      vertex -0.0999994 8 2.35
      vertex 0 8.1 2.35
    endloop
  endfacet
  facet normal 0 0 -1
    outer loop
      vertex 3.1 8 2.35
      vertex 3.25 7.75 2.35
      vertex 3.1 7.75 2.35
    endloop
  endfacet
  facet normal 0 0 -1
    outer loop
      vertex 3.25 7.75 2.35
      vertex 3.1 8 2.35
      vertex 3.25 8.25 2.35
    endloop
  endfacet
  facet normal 0 0 -1
    outer loop
      vertex 3 8.1 2.35
      vertex 3.1 8 2.35
      vertex 3 8 2.35
    endloop
  endfacet
  facet normal 0 0 -1
    outer loop
      vertex 3.1 8 2.35
      vertex 3 8.1 2.35
      vertex 3.25 8.25 2.35
    endloop
  endfacet
  facet normal 0 0 -1
    outer loop
      vertex 0 8.1 2.35
      vertex 3.25 8.25 2.35
      vertex 3 8.1 2.35
    endloop
  endfacet
  facet normal 0 0 -1
    outer loop
      vertex 0 8.1 2.35
      vertex -0.25 8.25 2.35
      vertex 3.25 8.25 2.35
    endloop
  endfacet
  facet normal 0 0 -1
    outer loop
      vertex -0.0999994 8 2.35
      vertex -0.25 8.25 2.35
      vertex 0 8.1 2.35
    endloop
  endfacet
  facet normal 0 0 -1
    outer loop
      vertex -0.25 8.25 2.35
      vertex -0.0999994 8 2.35
      vertex -0.25 7.75 2.35
    endloop
  endfacet
  facet normal 0 0 -1
    outer loop
      vertex 0.0999994 7.75 2.35
      vertex 2.9 7.9 2.35
      vertex 2.9 7.75 2.35
    endloop
  endfacet
  facet normal -0 0 -1
    outer loop
      vertex 2.9 7.9 2.35
      vertex 0.0999994 7.75 2.35
      vertex 0.0999994 7.9 2.35
    endloop
  endfacet
  facet normal 1 0 0
    outer loop
      vertex 3.25 8.25 2.85
      vertex 3.25 7.75 2.35
      vertex 3.25 8.25 2.35
    endloop
  endfacet
  facet normal 1 -0 0
    outer loop
      vertex 3.25 6.25 3.4
      vertex 3.25 8.25 2.85
      vertex 3.25 6.25 4.25
    endloop
  endfacet
  facet normal 1 0 0
    outer loop
      vertex 3.25 8.25 2.85
      vertex 3.25 6.25 3.4
      vertex 3.25 7.75 2.35
    endloop
  endfacet
  facet normal 0 -0.573462 -0.819232
    outer loop
      vertex 3.1 6.25 3.4
      vertex 3.25 7.75 2.35
      vertex 3.25 6.25 3.4
    endloop
  endfacet
  facet normal -0 -0.573462 -0.819232
    outer loop
      vertex 3.25 7.75 2.35
      vertex 3.1 6.25 3.4
      vertex 3.1 7.75 2.35
    endloop
  endfacet
  facet normal 0 -0.573462 -0.819232
    outer loop
      vertex -0.25 6 3.575
      vertex -0.0999994 7.75 2.35
      vertex -0.0999994 6 3.575
    endloop
  endfacet
  facet normal -0 -0.573462 -0.819232
    outer loop
      vertex -0.0999994 7.75 2.35
      vertex -0.25 6 3.575
      vertex -0.25 7.75 2.35
    endloop
  endfacet
  facet normal 0 -0.573462 -0.819232
    outer loop
      vertex 0.0999994 6.25 3.4
      vertex 2.9 7.75 2.35
      vertex 2.9 6.25 3.4
    endloop
  endfacet
  facet normal -0 -0.573462 -0.819232
    outer loop
      vertex 2.9 7.75 2.35
      vertex 0.0999994 6.25 3.4
      vertex 0.0999994 7.75 2.35
    endloop
  endfacet
  facet normal 0 1 -0
    outer loop
      vertex 3.25 8.25 2.35
      vertex -0.25 8.25 2.85
      vertex 3.25 8.25 2.85
    endloop
  endfacet
  facet normal 0 1 0
    outer loop
      vertex -0.25 8.25 2.85
      vertex 3.25 8.25 2.35
      vertex -0.25 8.25 2.35
    endloop
  endfacet
  facet normal 1 -0 0
    outer loop
      vertex 0.449999 0.25 0
      vertex 0.449999 0.449999 -0.48
      vertex 0.449999 0.449999 0
    endloop
  endfacet
  facet normal 1 0 0
    outer loop
      vertex 0.449999 -0.149999 -0.48
      vertex 0.449999 0.25 0
      vertex 0.449999 -0.149999 0
    endloop
  endfacet
  facet normal 1 0 0
    outer loop
      vertex 0.449999 0.25 0
      vertex 0.449999 -0.149999 -0.48
      vertex 0.449999 0.449999 -0.48
    endloop
  endfacet
  facet normal -1 0 0
    outer loop
      vertex -0.149999 0.449999 -0.48
      vertex -0.149999 0 0
      vertex -0.149999 0.449999 0
    endloop
  endfacet
  facet normal -1 0 0
    outer loop
      vertex -0.149999 -0.149999 -0.48
      vertex -0.149999 0 0
      vertex -0.149999 0.449999 -0.48
    endloop
  endfacet
  facet normal -1 -0 0
    outer loop
      vertex -0.149999 0 0
      vertex -0.149999 -0.149999 -0.48
      vertex -0.149999 -0.149999 0
    endloop
  endfacet
  facet normal 0 1 -0
    outer loop
      vertex 0.449999 0.449999 -0.48
      vertex 0.25 0.449999 0
      vertex 0.449999 0.449999 0
    endloop
  endfacet
  facet normal 0 1 0
    outer loop
      vertex -0.149999 0.449999 -0.48
      vertex 0.25 0.449999 0
      vertex 0.449999 0.449999 -0.48
    endloop
  endfacet
  facet normal 0 1 0
    outer loop
      vertex 0.25 0.449999 0
      vertex -0.149999 0.449999 -0.48
      vertex -0.149999 0.449999 0
    endloop
  endfacet
  facet normal 0 -1 0
    outer loop
      vertex -0.149999 -0.149999 -0.48
      vertex 0 -0.149999 0
      vertex -0.149999 -0.149999 0
    endloop
  endfacet
  facet normal 0 -1 0
    outer loop
      vertex 0.449999 -0.149999 -0.48
      vertex 0 -0.149999 0
      vertex -0.149999 -0.149999 -0.48
    endloop
  endfacet
  facet normal 0 -1 0
    outer loop
      vertex 0 -0.149999 0
      vertex 0.449999 -0.149999 -0.48
      vertex 0.449999 -0.149999 0
    endloop
  endfacet
  facet normal 1 -0 0
    outer loop
      vertex 0.449999 2.7 0
      vertex 0.449999 3.3 -0.48
      vertex 0.449999 3.3 0
    endloop
  endfacet
  facet normal 1 0 0
    outer loop
      vertex 0.449999 3.3 -0.48
      vertex 0.449999 2.7 0
      vertex 0.449999 2.7 -0.48
    endloop
  endfacet
  facet normal -1 0 0
    outer loop
      vertex -0.149999 2.7 -0.48
      vertex -0.149999 3.3 0
      vertex -0.149999 3.3 -0.48
    endloop
  endfacet
  facet normal -1 -0 0
    outer loop
      vertex -0.149999 3.3 0
      vertex -0.149999 2.7 -0.48
      vertex -0.149999 2.7 0
    endloop
  endfacet
  facet normal 0 1 -0
    outer loop
      vertex 0.449999 3.3 -0.48
      vertex 0.25 3.3 0
      vertex 0.449999 3.3 0
    endloop
  endfacet
  facet normal 0 1 0
    outer loop
      vertex -0.149999 3.3 -0.48
      vertex 0.25 3.3 0
      vertex 0.449999 3.3 -0.48
    endloop
  endfacet
  facet normal 0 1 0
    outer loop
      vertex 0.25 3.3 0
      vertex -0.149999 3.3 -0.48
      vertex -0.149999 3.3 0
    endloop
  endfacet
  facet normal 0 -1 0
    outer loop
      vertex -0.149999 2.7 -0.48
      vertex 0.25 2.7 0
      vertex -0.149999 2.7 0
    endloop
  endfacet
  facet normal 0 -1 0
    outer loop
      vertex 0.449999 2.7 -0.48
      vertex 0.25 2.7 0
      vertex -0.149999 2.7 -0.48
    endloop
  endfacet
  facet normal 0 -1 0
    outer loop
      vertex 0.25 2.7 0
      vertex 0.449999 2.7 -0.48
      vertex 0.449999 2.7 0
    endloop
  endfacet
  facet normal 1 -0 0
    outer loop
      vertex 0.449999 5.75 0
      vertex 0.449999 6.15 -0.48
      vertex 0.449999 6.15 0
    endloop
  endfacet
  facet normal 1 0 0
    outer loop
      vertex 0.449999 5.55 -0.48
      vertex 0.449999 5.75 0
      vertex 0.449999 5.55 0
    endloop
  endfacet
  facet normal 1 0 0
    outer loop
      vertex 0.449999 5.75 0
      vertex 0.449999 5.55 -0.48
      vertex 0.449999 6.15 -0.48
    endloop
  endfacet
  facet normal -1 0 0
    outer loop
      vertex -0.149999 6.15 -0.48
      vertex -0.149999 6 0
      vertex -0.149999 6.15 0
    endloop
  endfacet
  facet normal -1 0 0
    outer loop
      vertex -0.149999 5.55 -0.48
      vertex -0.149999 6 0
      vertex -0.149999 6.15 -0.48
    endloop
  endfacet
  facet normal -1 -0 0
    outer loop
      vertex -0.149999 6 0
      vertex -0.149999 5.55 -0.48
      vertex -0.149999 5.55 0
    endloop
  endfacet
  facet normal 0 1 -0
    outer loop
      vertex 0.449999 6.15 -0.48
      vertex -0.0999994 6.15 0
      vertex 0.449999 6.15 0
    endloop
  endfacet
  facet normal 0 1 0
    outer loop
      vertex -0.149999 6.15 -0.48
      vertex -0.0999994 6.15 0
      vertex 0.449999 6.15 -0.48
    endloop
  endfacet
  facet normal 0 1 0
    outer loop
      vertex -0.0999994 6.15 0
      vertex -0.149999 6.15 -0.48
      vertex -0.149999 6.15 0
    endloop
  endfacet
  facet normal 0 -1 0
    outer loop
      vertex -0.149999 5.55 -0.48
      vertex 0.25 5.55 0
      vertex -0.149999 5.55 0
    endloop
  endfacet
  facet normal 0 -1 0
    outer loop
      vertex 0.449999 5.55 -0.48
      vertex 0.25 5.55 0
      vertex -0.149999 5.55 -0.48
    endloop
  endfacet
  facet normal 0 -1 0
    outer loop
      vertex 0.25 5.55 0
      vertex 0.449999 5.55 -0.48
      vertex 0.449999 5.55 0
    endloop
  endfacet
  facet normal 1 -0 0
    outer loop
      vertex 3.3 0.25 0
      vertex 3.3 0.449999 -0.48
      vertex 3.3 0.449999 0
    endloop
  endfacet
  facet normal 1 0 0
    outer loop
      vertex 3.3 -0.149999 -0.48
      vertex 3.3 0.25 0
      vertex 3.3 -0.149999 0
    endloop
  endfacet
  facet normal 1 0 0
    outer loop
      vertex 3.3 0.25 0
      vertex 3.3 -0.149999 -0.48
      vertex 3.3 0.449999 -0.48
    endloop
  endfacet
  facet normal -1 0 0
    outer loop
      vertex 2.7 0.449999 -0.48
      vertex 2.7 0.25 0
      vertex 2.7 0.449999 0
    endloop
  endfacet
  facet normal -1 0 0
    outer loop
      vertex 2.7 -0.149999 -0.48
      vertex 2.7 0.25 0
      vertex 2.7 0.449999 -0.48
    endloop
  endfacet
  facet normal -1 -0 0
    outer loop
      vertex 2.7 0.25 0
      vertex 2.7 -0.149999 -0.48
      vertex 2.7 -0.149999 0
    endloop
  endfacet
  facet normal 0 1 -0
    outer loop
      vertex 3.3 0.449999 -0.48
      vertex 2.7 0.449999 0
      vertex 3.3 0.449999 0
    endloop
  endfacet
  facet normal 0 1 0
    outer loop
      vertex 2.7 0.449999 0
      vertex 3.3 0.449999 -0.48
      vertex 2.7 0.449999 -0.48
    endloop
  endfacet
  facet normal 0 -1 0
    outer loop
      vertex 2.7 -0.149999 -0.48
      vertex 3.3 -0.149999 0
      vertex 2.7 -0.149999 0
    endloop
  endfacet
  facet normal 0 -1 -0
    outer loop
      vertex 3.3 -0.149999 0
      vertex 2.7 -0.149999 -0.48
      vertex 3.3 -0.149999 -0.48
    endloop
  endfacet
  facet normal 1 -0 0
    outer loop
      vertex 3.3 2.7 0
      vertex 3.3 3.3 -0.48
      vertex 3.3 3.3 0
    endloop
  endfacet
  facet normal 1 0 0
    outer loop
      vertex 3.3 3.3 -0.48
      vertex 3.3 2.7 0
      vertex 3.3 2.7 -0.48
    endloop
  endfacet
  facet normal -0 0 1
    outer loop
      vertex 2.7 3.3 0
      vertex 3.3 2.7 0
      vertex 3.3 3.3 0
    endloop
  endfacet
  facet normal 0 0 1
    outer loop
      vertex 3.3 2.7 0
      vertex 2.7 3.3 0
      vertex 2.7 2.7 0
    endloop
  endfacet
  facet normal -1 0 0
    outer loop
      vertex 2.7 2.7 -0.48
      vertex 2.7 3.3 0
      vertex 2.7 3.3 -0.48
    endloop
  endfacet
  facet normal -1 -0 0
    outer loop
      vertex 2.7 3.3 0
      vertex 2.7 2.7 -0.48
      vertex 2.7 2.7 0
    endloop
  endfacet
  facet normal 0 1 -0
    outer loop
      vertex 3.3 3.3 -0.48
      vertex 2.7 3.3 0
      vertex 3.3 3.3 0
    endloop
  endfacet
  facet normal 0 1 0
    outer loop
      vertex 2.7 3.3 0
      vertex 3.3 3.3 -0.48
      vertex 2.7 3.3 -0.48
    endloop
  endfacet
  facet normal 0 -1 0
    outer loop
      vertex 2.7 2.7 -0.48
      vertex 3.3 2.7 0
      vertex 2.7 2.7 0
    endloop
  endfacet
  facet normal 0 -1 -0
    outer loop
      vertex 3.3 2.7 0
      vertex 2.7 2.7 -0.48
      vertex 3.3 2.7 -0.48
    endloop
  endfacet
  facet normal 1 -0 0
    outer loop
      vertex 3.3 5.75 0
      vertex 3.3 6.15 -0.48
      vertex 3.3 6.15 0
    endloop
  endfacet
  facet normal 1 0 0
    outer loop
      vertex 3.3 5.55 -0.48
      vertex 3.3 5.75 0
      vertex 3.3 5.55 0
    endloop
  endfacet
  facet normal 1 0 0
    outer loop
      vertex 3.3 5.75 0
      vertex 3.3 5.55 -0.48
      vertex 3.3 6.15 -0.48
    endloop
  endfacet
  facet normal -1 0 0
    outer loop
      vertex 2.7 6.15 -0.48
      vertex 2.7 5.75 0
      vertex 2.7 6.15 0
    endloop
  endfacet
  facet normal -1 0 0
    outer loop
      vertex 2.7 5.55 -0.48
      vertex 2.7 5.75 0
      vertex 2.7 6.15 -0.48
    endloop
  endfacet
  facet normal -1 -0 0
    outer loop
      vertex 2.7 5.75 0
      vertex 2.7 5.55 -0.48
      vertex 2.7 5.55 0
    endloop
  endfacet
  facet normal 0 1 -0
    outer loop
      vertex 3.3 6.15 -0.48
      vertex 2.7 6.15 0
      vertex 3.3 6.15 0
    endloop
  endfacet
  facet normal 0 1 0
    outer loop
      vertex 2.7 6.15 0
      vertex 3.3 6.15 -0.48
      vertex 2.7 6.15 -0.48
    endloop
  endfacet
  facet normal 0 -1 0
    outer loop
      vertex 2.7 5.55 -0.48
      vertex 3.3 5.55 0
      vertex 2.7 5.55 0
    endloop
  endfacet
  facet normal 0 -1 -0
    outer loop
      vertex 3.3 5.55 0
      vertex 2.7 5.55 -0.48
      vertex 3.3 5.55 -0.48
    endloop
  endfacet
  facet normal 1 -0 0
    outer loop
      vertex 6.15 0 0
      vertex 6.15 0.449999 -0.48
      vertex 6.15 0.449999 0
    endloop
  endfacet
  facet normal 1 0 0
    outer loop
      vertex 6.15 -0.149999 -0.48
      vertex 6.15 0 0
      vertex 6.15 -0.149999 0
    endloop
  endfacet
  facet normal 1 0 0
    outer loop
      vertex 6.15 0 0
      vertex 6.15 -0.149999 -0.48
      vertex 6.15 0.449999 -0.48
    endloop
  endfacet
  facet normal -1 0 0
    outer loop
      vertex 5.55 0.449999 -0.48
      vertex 5.55 0.25 0
      vertex 5.55 0.449999 0
    endloop
  endfacet
  facet normal -1 0 0
    outer loop
      vertex 5.55 -0.149999 -0.48
      vertex 5.55 0.25 0
      vertex 5.55 0.449999 -0.48
    endloop
  endfacet
  facet normal -1 -0 0
    outer loop
      vertex 5.55 0.25 0
      vertex 5.55 -0.149999 -0.48
      vertex 5.55 -0.149999 0
    endloop
  endfacet
  facet normal 0 1 -0
    outer loop
      vertex 6.15 0.449999 -0.48
      vertex 5.75 0.449999 0
      vertex 6.15 0.449999 0
    endloop
  endfacet
  facet normal 0 1 0
    outer loop
      vertex 5.55 0.449999 -0.48
      vertex 5.75 0.449999 0
      vertex 6.15 0.449999 -0.48
    endloop
  endfacet
  facet normal 0 1 0
    outer loop
      vertex 5.75 0.449999 0
      vertex 5.55 0.449999 -0.48
      vertex 5.55 0.449999 0
    endloop
  endfacet
  facet normal 0 -1 0
    outer loop
      vertex 5.55 -0.149999 -0.48
      vertex 6 -0.149999 0
      vertex 5.55 -0.149999 0
    endloop
  endfacet
  facet normal 0 -1 0
    outer loop
      vertex 6.15 -0.149999 -0.48
      vertex 6 -0.149999 0
      vertex 5.55 -0.149999 -0.48
    endloop
  endfacet
  facet normal 0 -1 0
    outer loop
      vertex 6 -0.149999 0
      vertex 6.15 -0.149999 -0.48
      vertex 6.15 -0.149999 0
    endloop
  endfacet
  facet normal 1 -0 0
    outer loop
      vertex 6.15 2.7 0
      vertex 6.15 3.3 -0.48
      vertex 6.15 3.3 0
    endloop
  endfacet
  facet normal 1 0 0
    outer loop
      vertex 6.15 3.3 -0.48
      vertex 6.15 2.7 0
      vertex 6.15 2.7 -0.48
    endloop
  endfacet
  facet normal -1 0 0
    outer loop
      vertex 5.55 2.7 -0.48
      vertex 5.55 3.3 0
      vertex 5.55 3.3 -0.48
    endloop
  endfacet
  facet normal -1 -0 0
    outer loop
      vertex 5.55 3.3 0
      vertex 5.55 2.7 -0.48
      vertex 5.55 2.7 0
    endloop
  endfacet
  facet normal 0 1 -0
    outer loop
      vertex 6.15 3.3 -0.48
      vertex 5.75 3.3 0
      vertex 6.15 3.3 0
    endloop
  endfacet
  facet normal 0 1 0
    outer loop
      vertex 5.55 3.3 -0.48
      vertex 5.75 3.3 0
      vertex 6.15 3.3 -0.48
    endloop
  endfacet
  facet normal 0 1 0
    outer loop
      vertex 5.75 3.3 0
      vertex 5.55 3.3 -0.48
      vertex 5.55 3.3 0
    endloop
  endfacet
  facet normal 0 -1 0
    outer loop
      vertex 5.55 2.7 -0.48
      vertex 5.75 2.7 0
      vertex 5.55 2.7 0
    endloop
  endfacet
  facet normal 0 -1 0
    outer loop
      vertex 6.15 2.7 -0.48
      vertex 5.75 2.7 0
      vertex 5.55 2.7 -0.48
    endloop
  endfacet
  facet normal 0 -1 0
    outer loop
      vertex 5.75 2.7 0
      vertex 6.15 2.7 -0.48
      vertex 6.15 2.7 0
    endloop
  endfacet
  facet normal 1 -0 0
    outer loop
      vertex 6.15 6 0
      vertex 6.15 6.15 -0.48
      vertex 6.15 6.15 0
    endloop
  endfacet
  facet normal 1 0 0
    outer loop
      vertex 6.15 5.55 -0.48
      vertex 6.15 6 0
      vertex 6.15 5.55 0
    endloop
  endfacet
  facet normal 1 0 0
    outer loop
      vertex 6.15 6 0
      vertex 6.15 5.55 -0.48
      vertex 6.15 6.15 -0.48
    endloop
  endfacet
  facet normal -1 0 0
    outer loop
      vertex 5.55 6.15 -0.48
      vertex 5.55 5.75 0
      vertex 5.55 6.15 0
    endloop
  endfacet
  facet normal -1 0 0
    outer loop
      vertex 5.55 5.55 -0.48
      vertex 5.55 5.75 0
      vertex 5.55 6.15 -0.48
    endloop
  endfacet
  facet normal -1 -0 0
    outer loop
      vertex 5.55 5.75 0
      vertex 5.55 5.55 -0.48
      vertex 5.55 5.55 0
    endloop
  endfacet
  facet normal 0 1 -0
    outer loop
      vertex 6.15 6.15 -0.48
      vertex 6 6.15 0
      vertex 6.15 6.15 0
    endloop
  endfacet
  facet normal 0 1 0
    outer loop
      vertex 5.55 6.15 -0.48
      vertex 6 6.15 0
      vertex 6.15 6.15 -0.48
    endloop
  endfacet
  facet normal 0 1 0
    outer loop
      vertex 6 6.15 0
      vertex 5.55 6.15 -0.48
      vertex 5.55 6.15 0
    endloop
  endfacet
  facet normal 0 -1 0
    outer loop
      vertex 5.55 5.55 -0.48
      vertex 5.75 5.55 0
      vertex 5.55 5.55 0
    endloop
  endfacet
  facet normal 0 -1 0
    outer loop
      vertex 6.15 5.55 -0.48
      vertex 5.75 5.55 0
      vertex 5.55 5.55 -0.48
    endloop
  endfacet
  facet normal 0 -1 0
    outer loop
      vertex 5.75 5.55 0
      vertex 6.15 5.55 -0.48
      vertex 6.15 5.55 0
    endloop
  endfacet
  facet normal 1 -0 0
    outer loop
      vertex 0.299999 8.1 0
      vertex 0.299999 8.3 -0.48
      vertex 0.299999 8.3 0
    endloop
  endfacet
  facet normal 1 -0 0
    outer loop
      vertex 0.299999 7.9 0
      vertex 0.299999 8.3 -0.48
      vertex 0.299999 8.1 0
    endloop
  endfacet
  facet normal 1 0 0
    outer loop
      vertex 0.299999 7.7 -0.48
      vertex 0.299999 7.9 0
      vertex 0.299999 7.7 0
    endloop
  endfacet
  facet normal 1 0 0
    outer loop
      vertex 0.299999 7.9 0
      vertex 0.299999 7.7 -0.48
      vertex 0.299999 8.3 -0.48
    endloop
  endfacet
  facet normal -1 0 0
    outer loop
      vertex -0.299999 7.7 -0.48
      vertex -0.299999 8.3 0
      vertex -0.299999 8.3 -0.48
    endloop
  endfacet
  facet normal -1 -0 0
    outer loop
      vertex -0.299999 8.3 0
      vertex -0.299999 7.7 -0.48
      vertex -0.299999 7.7 0
    endloop
  endfacet
  facet normal 0 1 -0
    outer loop
      vertex 0.299999 8.3 -0.48
      vertex -0.299999 8.3 0
      vertex 0.299999 8.3 0
    endloop
  endfacet
  facet normal 0 1 0
    outer loop
      vertex -0.299999 8.3 0
      vertex 0.299999 8.3 -0.48
      vertex -0.299999 8.3 -0.48
    endloop
  endfacet
  facet normal 0 -1 0
    outer loop
      vertex -0.299999 7.7 -0.48
      vertex -0.0999994 7.7 0
      vertex -0.299999 7.7 0
    endloop
  endfacet
  facet normal 0 -1 -0
    outer loop
      vertex -0.0999994 7.7 0
      vertex -0.299999 7.7 -0.48
      vertex 0.0999994 7.7 0
    endloop
  endfacet
  facet normal 0 -1 0
    outer loop
      vertex 0.299999 7.7 -0.48
      vertex 0.0999994 7.7 0
      vertex -0.299999 7.7 -0.48
    endloop
  endfacet
  facet normal 0 -1 0
    outer loop
      vertex 0.0999994 7.7 0
      vertex 0.299999 7.7 -0.48
      vertex 0.299999 7.7 0
    endloop
  endfacet
  facet normal 1 -0 0
    outer loop
      vertex 3.3 7.7 0
      vertex 3.3 8.3 -0.48
      vertex 3.3 8.3 0
    endloop
  endfacet
  facet normal 1 0 0
    outer loop
      vertex 3.3 8.3 -0.48
      vertex 3.3 7.7 0
      vertex 3.3 7.7 -0.48
    endloop
  endfacet
  facet normal -1 0 0
    outer loop
      vertex 2.7 8.3 -0.48
      vertex 2.7 8.1 0
      vertex 2.7 8.3 0
    endloop
  endfacet
  facet normal -1 0 0
    outer loop
      vertex 2.7 8.3 -0.48
      vertex 2.7 7.9 0
      vertex 2.7 8.1 0
    endloop
  endfacet
  facet normal -1 0 0
    outer loop
      vertex 2.7 7.7 -0.48
      vertex 2.7 7.9 0
      vertex 2.7 8.3 -0.48
    endloop
  endfacet
  facet normal -1 -0 0
    outer loop
      vertex 2.7 7.9 0
      vertex 2.7 7.7 -0.48
      vertex 2.7 7.7 0
    endloop
  endfacet
  facet normal 0 1 -0
    outer loop
      vertex 3.3 8.3 -0.48
      vertex 2.7 8.3 0
      vertex 3.3 8.3 0
    endloop
  endfacet
  facet normal 0 1 0
    outer loop
      vertex 2.7 8.3 0
      vertex 3.3 8.3 -0.48
      vertex 2.7 8.3 -0.48
    endloop
  endfacet
  facet normal 0 -1 0
    outer loop
      vertex 2.7 7.7 -0.48
      vertex 2.9 7.7 0
      vertex 2.7 7.7 0
    endloop
  endfacet
  facet normal 0 -1 -0
    outer loop
      vertex 2.9 7.7 0
      vertex 2.7 7.7 -0.48
      vertex 3.1 7.7 0
    endloop
  endfacet
  facet normal 0 -1 0
    outer loop
      vertex 3.3 7.7 -0.48
      vertex 3.1 7.7 0
      vertex 2.7 7.7 -0.48
    endloop
  endfacet
  facet normal 0 -1 0
    outer loop
      vertex 3.1 7.7 0
      vertex 3.3 7.7 -0.48
      vertex 3.3 7.7 0
    endloop
  endfacet
  facet normal 1 -0 0
    outer loop
      vertex 6.3 7.7 0
      vertex 6.3 8.3 -0.48
      vertex 6.3 8.3 0
    endloop
  endfacet
  facet normal 1 0 0
    outer loop
      vertex 6.3 8.3 -0.48
      vertex 6.3 7.7 0
      vertex 6.3 7.7 -0.48
    endloop
  endfacet
  facet normal -0 0 1
    outer loop
      vertex 5.7 8.3 0
      vertex 6.3 7.7 0
      vertex 6.3 8.3 0
    endloop
  endfacet
  facet normal 0 0 1
    outer loop
      vertex 6.3 7.7 0
      vertex 5.7 8.3 0
      vertex 5.7 7.7 0
    endloop
  endfacet
  facet normal -1 0 0
    outer loop
      vertex 5.7 7.7 -0.48
      vertex 5.7 8.3 0
      vertex 5.7 8.3 -0.48
    endloop
  endfacet
  facet normal -1 -0 0
    outer loop
      vertex 5.7 8.3 0
      vertex 5.7 7.7 -0.48
      vertex 5.7 7.7 0
    endloop
  endfacet
  facet normal 0 1 -0
    outer loop
      vertex 6.3 8.3 -0.48
      vertex 5.7 8.3 0
      vertex 6.3 8.3 0
    endloop
  endfacet
  facet normal 0 1 0
    outer loop
      vertex 5.7 8.3 0
      vertex 6.3 8.3 -0.48
      vertex 5.7 8.3 -0.48
    endloop
  endfacet
  facet normal 0 -1 0
    outer loop
      vertex 5.7 7.7 -0.48
      vertex 6.3 7.7 0
      vertex 5.7 7.7 0
    endloop
  endfacet
  facet normal 0 -1 -0
    outer loop
      vertex 6.3 7.7 0
      vertex 5.7 7.7 -0.48
      vertex 6.3 7.7 -0.48
    endloop
  endfacet
  facet normal 1 -0 0
    outer loop
      vertex 12 -12 -0.48
      vertex 12 12 -0.52
      vertex 12 12 -0.48
    endloop
  endfacet
  facet normal 1 0 0
    outer loop
      vertex 12 12 -0.52
      vertex 12 -12 -0.48
      vertex 12 -12 -0.52
    endloop
  endfacet
  facet normal -0 0 1
    outer loop
      vertex -0.149999 2.7 -0.48
      vertex 0.449999 0.449999 -0.48
      vertex 0.449999 2.7 -0.48
    endloop
  endfacet
  facet normal 0 0 1
    outer loop
      vertex 0.449999 0.449999 -0.48
      vertex -0.149999 2.7 -0.48
      vertex -0.149999 0.449999 -0.48
    endloop
  endfacet
  facet normal -0 0 1
    outer loop
      vertex -0.149999 5.55 -0.48
      vertex 0.449999 3.3 -0.48
      vertex 0.449999 5.55 -0.48
    endloop
  endfacet
  facet normal 0 0 1
    outer loop
      vertex 0.449999 3.3 -0.48
      vertex -0.149999 5.55 -0.48
      vertex -0.149999 3.3 -0.48
    endloop
  endfacet
  facet normal -0 0 1
    outer loop
      vertex 2.7 2.7 -0.48
      vertex 3.3 0.449999 -0.48
      vertex 3.3 2.7 -0.48
    endloop
  endfacet
  facet normal 0 0 1
    outer loop
      vertex 3.3 0.449999 -0.48
      vertex 2.7 2.7 -0.48
      vertex 2.7 0.449999 -0.48
    endloop
  endfacet
  facet normal -0 0 1
    outer loop
      vertex 2.7 5.55 -0.48
      vertex 3.3 3.3 -0.48
      vertex 3.3 5.55 -0.48
    endloop
  endfacet
  facet normal 0 0 1
    outer loop
      vertex 3.3 3.3 -0.48
      vertex 2.7 5.55 -0.48
      vertex 2.7 3.3 -0.48
    endloop
  endfacet
  facet normal -0 0 1
    outer loop
      vertex 5.55 2.7 -0.48
      vertex 6.15 0.449999 -0.48
      vertex 6.15 2.7 -0.48
    endloop
  endfacet
  facet normal 0 0 1
    outer loop
      vertex 6.15 0.449999 -0.48
      vertex 5.55 2.7 -0.48
      vertex 5.55 0.449999 -0.48
    endloop
  endfacet
  facet normal -0 0 1
    outer loop
      vertex 5.55 5.55 -0.48
      vertex 6.15 3.3 -0.48
      vertex 6.15 5.55 -0.48
    endloop
  endfacet
  facet normal 0 0 1
    outer loop
      vertex 6.15 3.3 -0.48
      vertex 5.55 5.55 -0.48
      vertex 5.55 3.3 -0.48
    endloop
  endfacet
  facet normal -0 0 1
    outer loop
      vertex 5.7 7.7 -0.48
      vertex 6.15 6.15 -0.48
      vertex 6.3 7.7 -0.48
    endloop
  endfacet
  facet normal 0 0 1
    outer loop
      vertex 6.15 6.15 -0.48
      vertex 5.7 7.7 -0.48
      vertex 5.55 6.15 -0.48
    endloop
  endfacet
  facet normal 0 0 1
    outer loop
      vertex 6.3 7.7 -0.48
      vertex 12 12 -0.48
      vertex 6.3 8.3 -0.48
    endloop
  endfacet
  facet normal 0 0 1
    outer loop
      vertex 12 12 -0.48
      vertex 5.7 8.3 -0.48
      vertex 6.3 8.3 -0.48
    endloop
  endfacet
  facet normal 0 0 1
    outer loop
      vertex 3.3 7.7 -0.48
      vertex 5.7 7.7 -0.48
      vertex 5.7 8.3 -0.48
    endloop
  endfacet
  facet normal 0 0 1
    outer loop
      vertex 3.3 5.55 -0.48
      vertex 5.55 5.55 -0.48
      vertex 5.55 6.15 -0.48
    endloop
  endfacet
  facet normal 0 0 1
    outer loop
      vertex 5.55 5.55 -0.48
      vertex 3.3 5.55 -0.48
      vertex 5.55 3.3 -0.48
    endloop
  endfacet
  facet normal 0 0 1
    outer loop
      vertex 5.55 3.3 -0.48
      vertex 3.3 3.3 -0.48
      vertex 5.55 2.7 -0.48
    endloop
  endfacet
  facet normal 0 0 1
    outer loop
      vertex 3.3 2.7 -0.48
      vertex 5.55 2.7 -0.48
      vertex 3.3 3.3 -0.48
    endloop
  endfacet
  facet normal 0 0 1
    outer loop
      vertex 3.3 5.55 -0.48
      vertex 5.55 6.15 -0.48
      vertex 3.3 6.15 -0.48
    endloop
  endfacet
  facet normal 0 0 1
    outer loop
      vertex 5.7 7.7 -0.48
      vertex 3.3 7.7 -0.48
      vertex 5.55 6.15 -0.48
    endloop
  endfacet
  facet normal 0 0 1
    outer loop
      vertex 3.3 7.7 -0.48
      vertex 5.7 8.3 -0.48
      vertex 3.3 8.3 -0.48
    endloop
  endfacet
  facet normal 0 0 1
    outer loop
      vertex 12 12 -0.48
      vertex 3.3 8.3 -0.48
      vertex 5.7 8.3 -0.48
    endloop
  endfacet
  facet normal 0 0 1
    outer loop
      vertex 12 12 -0.48
      vertex 2.7 8.3 -0.48
      vertex 3.3 8.3 -0.48
    endloop
  endfacet
  facet normal 0 0 1
    outer loop
      vertex 0.299999 7.7 -0.48
      vertex 2.7 7.7 -0.48
      vertex 2.7 8.3 -0.48
    endloop
  endfacet
  facet normal 0 0 1
    outer loop
      vertex 0.449999 5.55 -0.48
      vertex 2.7 5.55 -0.48
      vertex 2.7 6.15 -0.48
    endloop
  endfacet
  facet normal 0 0 1
    outer loop
      vertex 2.7 5.55 -0.48
      vertex 0.449999 5.55 -0.48
      vertex 2.7 3.3 -0.48
    endloop
  endfacet
  facet normal 0 0 1
    outer loop
      vertex 2.7 3.3 -0.48
      vertex 0.449999 3.3 -0.48
      vertex 2.7 2.7 -0.48
    endloop
  endfacet
  facet normal 0 0 1
    outer loop
      vertex 0.449999 2.7 -0.48
      vertex 2.7 2.7 -0.48
      vertex 0.449999 3.3 -0.48
    endloop
  endfacet
  facet normal 0 0 1
    outer loop
      vertex 0.449999 5.55 -0.48
      vertex 2.7 6.15 -0.48
      vertex 0.449999 6.15 -0.48
    endloop
  endfacet
  facet normal 0 -0 1
    outer loop
      vertex 0.449999 6.15 -0.48
      vertex 2.7 7.7 -0.48
      vertex 0.299999 7.7 -0.48
    endloop
  endfacet
  facet normal 0 0 1
    outer loop
      vertex 0.299999 7.7 -0.48
      vertex 2.7 8.3 -0.48
      vertex 0.299999 8.3 -0.48
    endloop
  endfacet
  facet normal 0 0 1
    outer loop
      vertex 12 12 -0.48
      vertex 0.299999 8.3 -0.48
      vertex 2.7 8.3 -0.48
    endloop
  endfacet
  facet normal 0 0 1
    outer loop
      vertex 12 12 -0.48
      vertex -0.299999 8.3 -0.48
      vertex 0.299999 8.3 -0.48
    endloop
  endfacet
  facet normal 0 0 1
    outer loop
      vertex -0.299999 8.3 -0.48
      vertex -12 12 -0.48
      vertex -0.299999 7.7 -0.48
    endloop
  endfacet
  facet normal -0 0 1
    outer loop
      vertex -12 12 -0.48
      vertex -0.299999 8.3 -0.48
      vertex 12 12 -0.48
    endloop
  endfacet
  facet normal 0 0 1
    outer loop
      vertex 6.15 6.15 -0.48
      vertex 12 12 -0.48
      vertex 6.3 7.7 -0.48
    endloop
  endfacet
  facet normal 0 0 1
    outer loop
      vertex 12 12 -0.48
      vertex 6.15 6.15 -0.48
      vertex 6.15 5.55 -0.48
    endloop
  endfacet
  facet normal 0 0 1
    outer loop
      vertex 6.15 3.3 -0.48
      vertex 12 12 -0.48
      vertex 6.15 5.55 -0.48
    endloop
  endfacet
  facet normal 0 0 1
    outer loop
      vertex 6.15 2.7 -0.48
      vertex 12 12 -0.48
      vertex 6.15 3.3 -0.48
    endloop
  endfacet
  facet normal 0 0 1
    outer loop
      vertex 6.15 0.449999 -0.48
      vertex 12 12 -0.48
      vertex 6.15 2.7 -0.48
    endloop
  endfacet
  facet normal 0 0 1
    outer loop
      vertex 6.15 -0.149999 -0.48
      vertex 12 12 -0.48
      vertex 6.15 0.449999 -0.48
    endloop
  endfacet
  facet normal 0 0 1
    outer loop
      vertex 12 12 -0.48
      vertex 6.15 -0.149999 -0.48
      vertex 12 -12 -0.48
    endloop
  endfacet
  facet normal -0 0 1
    outer loop
      vertex 5.55 -0.149999 -0.48
      vertex 12 -12 -0.48
      vertex 6.15 -0.149999 -0.48
    endloop
  endfacet
  facet normal 0 0 1
    outer loop
      vertex 5.55 3.3 -0.48
      vertex 3.3 5.55 -0.48
      vertex 3.3 3.3 -0.48
    endloop
  endfacet
  facet normal 0 0 1
    outer loop
      vertex 5.55 2.7 -0.48
      vertex 3.3 2.7 -0.48
      vertex 5.55 0.449999 -0.48
    endloop
  endfacet
  facet normal 0 0 1
    outer loop
      vertex 3.3 0.449999 -0.48
      vertex 5.55 0.449999 -0.48
      vertex 3.3 2.7 -0.48
    endloop
  endfacet
  facet normal 0 0 1
    outer loop
      vertex 5.55 0.449999 -0.48
      vertex 3.3 0.449999 -0.48
      vertex 5.55 -0.149999 -0.48
    endloop
  endfacet
  facet normal 0 0 1
    outer loop
      vertex 3.3 -0.149999 -0.48
      vertex 5.55 -0.149999 -0.48
      vertex 3.3 0.449999 -0.48
    endloop
  endfacet
  facet normal 0 0 1
    outer loop
      vertex 5.55 -0.149999 -0.48
      vertex 3.3 -0.149999 -0.48
      vertex 12 -12 -0.48
    endloop
  endfacet
  facet normal -0 0 1
    outer loop
      vertex 2.7 -0.149999 -0.48
      vertex 12 -12 -0.48
      vertex 3.3 -0.149999 -0.48
    endloop
  endfacet
  facet normal 0 0 1
    outer loop
      vertex 2.7 3.3 -0.48
      vertex 0.449999 5.55 -0.48
      vertex 0.449999 3.3 -0.48
    endloop
  endfacet
  facet normal 0 0 1
    outer loop
      vertex 2.7 2.7 -0.48
      vertex 0.449999 2.7 -0.48
      vertex 2.7 0.449999 -0.48
    endloop
  endfacet
  facet normal 0 0 1
    outer loop
      vertex 0.449999 0.449999 -0.48
      vertex 2.7 0.449999 -0.48
      vertex 0.449999 2.7 -0.48
    endloop
  endfacet
  facet normal 0 0 1
    outer loop
      vertex 2.7 0.449999 -0.48
      vertex 0.449999 0.449999 -0.48
      vertex 2.7 -0.149999 -0.48
    endloop
  endfacet
  facet normal 0 0 1
    outer loop
      vertex 0.449999 -0.149999 -0.48
      vertex 2.7 -0.149999 -0.48
      vertex 0.449999 0.449999 -0.48
    endloop
  endfacet
  facet normal 0 0 1
    outer loop
      vertex 2.7 -0.149999 -0.48
      vertex 0.449999 -0.149999 -0.48
      vertex 12 -12 -0.48
    endloop
  endfacet
  facet normal -0 0 1
    outer loop
      vertex -0.149999 -0.149999 -0.48
      vertex 12 -12 -0.48
      vertex 0.449999 -0.149999 -0.48
    endloop
  endfacet
  facet normal 0 0 1
    outer loop
      vertex -0.149999 0.449999 -0.48
      vertex -12 12 -0.48
      vertex -0.149999 -0.149999 -0.48
    endloop
  endfacet
  facet normal 0 0 1
    outer loop
      vertex -0.149999 -0.149999 -0.48
      vertex -12 -12 -0.48
      vertex 12 -12 -0.48
    endloop
  endfacet
  facet normal 0 0 1
    outer loop
      vertex -12 -12 -0.48
      vertex -0.149999 -0.149999 -0.48
      vertex -12 12 -0.48
    endloop
  endfacet
  facet normal 0 0 1
    outer loop
      vertex 5.55 6.15 -0.48
      vertex 3.3 7.7 -0.48
      vertex 3.3 6.15 -0.48
    endloop
  endfacet
  facet normal -0 0 1
    outer loop
      vertex 2.7 7.7 -0.48
      vertex 3.3 6.15 -0.48
      vertex 3.3 7.7 -0.48
    endloop
  endfacet
  facet normal 0 0 1
    outer loop
      vertex 3.3 6.15 -0.48
      vertex 2.7 7.7 -0.48
      vertex 2.7 6.15 -0.48
    endloop
  endfacet
  facet normal 0 0 1
    outer loop
      vertex 2.7 7.7 -0.48
      vertex 0.449999 6.15 -0.48
      vertex 2.7 6.15 -0.48
    endloop
  endfacet
  facet normal 0 0 1
    outer loop
      vertex 0.299999 7.7 -0.48
      vertex -0.149999 6.15 -0.48
      vertex 0.449999 6.15 -0.48
    endloop
  endfacet
  facet normal 0 0 1
    outer loop
      vertex -12 12 -0.48
      vertex -0.149999 6.15 -0.48
      vertex -0.299999 7.7 -0.48
    endloop
  endfacet
  facet normal 0 0 1
    outer loop
      vertex -0.149999 6.15 -0.48
      vertex -12 12 -0.48
      vertex -0.149999 5.55 -0.48
    endloop
  endfacet
  facet normal 0 0 1
    outer loop
      vertex -0.149999 5.55 -0.48
      vertex -12 12 -0.48
      vertex -0.149999 3.3 -0.48
    endloop
  endfacet
  facet normal 0 0 1
    outer loop
      vertex -0.149999 3.3 -0.48
      vertex -12 12 -0.48
      vertex -0.149999 2.7 -0.48
    endloop
  endfacet
  facet normal 0 0 1
    outer loop
      vertex -0.149999 2.7 -0.48
      vertex -12 12 -0.48
      vertex -0.149999 0.449999 -0.48
    endloop
  endfacet
  facet normal -0 0 1
    outer loop
      vertex -0.299999 7.7 -0.48
      vertex -0.149999 6.15 -0.48
      vertex 0.299999 7.7 -0.48
    endloop
  endfacet
  facet normal 0 0 -1
    outer loop
      vertex -12 -12 -0.52
      vertex 12 12 -0.52
      vertex 12 -12 -0.52
    endloop
  endfacet
  facet normal -0 0 -1
    outer loop
      vertex 12 12 -0.52
      vertex -12 -12 -0.52
      vertex -12 12 -0.52
    endloop
  endfacet
  facet normal -1 0 0
    outer loop
      vertex -12 -12 -0.52
      vertex -12 12 -0.48
      vertex -12 12 -0.52
    endloop
  endfacet
  facet normal -1 -0 0
    outer loop
      vertex -12 12 -0.48
      vertex -12 -12 -0.52
      vertex -12 -12 -0.48
    endloop
  endfacet
  facet normal 0 1 -0
    outer loop
      vertex 12 12 -0.52
      vertex -12 12 -0.48
      vertex 12 12 -0.48
    endloop
  endfacet
  facet normal 0 1 0
    outer loop
      vertex -12 12 -0.48
      vertex 12 12 -0.52
      vertex -12 12 -0.52
    endloop
  endfacet
  facet normal 0 -1 0
    outer loop
      vertex -12 -12 -0.52
      vertex 12 -12 -0.48
      vertex -12 -12 -0.48
    endloop
  endfacet
  facet normal 0 -1 -0
    outer loop
      vertex 12 -12 -0.48
      vertex -12 -12 -0.52
      vertex 12 -12 -0.52
    endloop
  endfacet
endsolid OpenSCAD_Model
