solid OpenSCAD_Model
  facet normal 0.707115 0.707099 0
    outer loop
      vertex 3.69551 8.00287 2.30449
      vertex 1.53073 10.1677 0
      vertex 1.53073 10.1677 4.46927
    endloop
  endfacet
  facet normal 0.707115 0.707099 0
    outer loop
      vertex 1.53073 10.1677 0
      vertex 3.69551 8.00287 2.30449
      vertex 3.69551 8.00287 0
    endloop
  endfacet
  facet normal -0.707107 -0.707107 0
    outer loop
      vertex -3.59552 4.84142 0
      vertex -1.53073 2.77663 0
      vertex -3.59552 4.84142 2
    endloop
  endfacet
  facet normal -0.707107 -0.707107 0
    outer loop
      vertex -3.59552 4.84142 2
      vertex -3.69551 4.94141 2.30449
      vertex -3.69551 4.94141 2
    endloop
  endfacet
  facet normal -0.707107 -0.707107 -0
    outer loop
      vertex -1.53073 2.77663 4.46927
      vertex -3.59552 4.84142 2
      vertex -1.53073 2.77663 0
    endloop
  endfacet
  facet normal -0.707107 -0.707107 0
    outer loop
      vertex -3.59552 4.84142 2
      vertex -1.53073 2.77663 4.46927
      vertex -3.69551 4.94141 2.30449
    endloop
  endfacet
  facet normal 1 -0 0
    outer loop
      vertex 3.69551 4.94141 2.30449
      vertex 3.69551 8.00287 0
      vertex 3.69551 8.00287 2.30449
    endloop
  endfacet
  facet normal 1 0 0
    outer loop
      vertex 3.69551 8.00287 0
      vertex 3.69551 4.94141 2.30449
      vertex 3.69551 4.94141 0
    endloop
  endfacet
  facet normal 0 -1 0
    outer loop
      vertex -1.53073 2.77663 4.46927
      vertex 1.53073 2.77663 4.46927
      vertex 0 2.77663 6
    endloop
  endfacet
  facet normal 0 -1 0
    outer loop
      vertex -1.53073 2.77663 4.46927
      vertex 1.43073 2.77663 2
      vertex 1.53073 2.77663 4.46927
    endloop
  endfacet
  facet normal 0 -1 0
    outer loop
      vertex -1.53073 2.77663 0
      vertex 1.43073 2.77663 2
      vertex -1.53073 2.77663 4.46927
    endloop
  endfacet
  facet normal 0 -1 -0
    outer loop
      vertex 1.43073 2.77663 2
      vertex -1.53073 2.77663 0
      vertex 1.43073 2.77663 0
    endloop
  endfacet
  facet normal 0 -1 -0
    outer loop
      vertex 1.53073 2.77663 4.46927
      vertex 1.43073 2.77663 2
      vertex 1.53073 2.77663 2
    endloop
  endfacet
  facet normal -0.707115 0.707099 0
    outer loop
      vertex -3.69551 8.00287 2.30449
      vertex -1.53073 10.1677 0
      vertex -3.69551 8.00287 0
    endloop
  endfacet
  facet normal -0.707115 0.707099 0
    outer loop
      vertex -1.53073 10.1677 0
      vertex -3.69551 8.00287 2.30449
      vertex -1.53073 10.1677 4.46927
    endloop
  endfacet
  facet normal 0 0 -1
    outer loop
      vertex -5.6 1.5 0
      vertex -5.4 1.4 0
      vertex -5.6 -1.5 0
    endloop
  endfacet
  facet normal 0 0 -1
    outer loop
      vertex -5.4 1.4 0
      vertex -5.6 1.5 0
      vertex -5.5 1.5 0
    endloop
  endfacet
  facet normal 0 0 -1
    outer loop
      vertex -5.4 1.4 0
      vertex -3.79552 1.6 0
      vertex -3.79552 1.4 0
    endloop
  endfacet
  facet normal 0 0 -1
    outer loop
      vertex -5.6 -1.5 0
      vertex -5.4 -1.4 0
      vertex -5.5 -1.5 0
    endloop
  endfacet
  facet normal -0 0 -1
    outer loop
      vertex -5.4 -1.4 0
      vertex -5.6 -1.5 0
      vertex -5.4 1.4 0
    endloop
  endfacet
  facet normal 0 0 -1
    outer loop
      vertex -5.5 1.6 0
      vertex -5.4 1.4 0
      vertex -5.5 1.5 0
    endloop
  endfacet
  facet normal 0 0 -1
    outer loop
      vertex -5.4 1.4 0
      vertex -5.5 1.6 0
      vertex -3.79552 1.6 0
    endloop
  endfacet
  facet normal 0 0 -1
    outer loop
      vertex -3.79552 -1.6 0
      vertex -5.4 -1.4 0
      vertex -3.79552 -1.4 0
    endloop
  endfacet
  facet normal 0 0 -1
    outer loop
      vertex -5.5 -1.5 0
      vertex -5.4 -1.4 0
      vertex -5.5 -1.6 0
    endloop
  endfacet
  facet normal 0 0 -1
    outer loop
      vertex -5.5 -1.6 0
      vertex -5.4 -1.4 0
      vertex -3.79552 -1.6 0
    endloop
  endfacet
  facet normal 0 0 -1
    outer loop
      vertex -3.79552 -1.4 0
      vertex -3.59552 -1.4 0
      vertex -3.79552 -1.6 0
    endloop
  endfacet
  facet normal 0 0 -1
    outer loop
      vertex -3.59552 -1.4 0
      vertex -3.79552 -1.4 0
      vertex -3.59552 1.4 0
    endloop
  endfacet
  facet normal 0 0 -1
    outer loop
      vertex -3.79552 1.4 0
      vertex -3.59552 1.4 0
      vertex -3.79552 -1.4 0
    endloop
  endfacet
  facet normal 0 0 -1
    outer loop
      vertex -3.79552 1.6 0
      vertex -3.59552 1.4 0
      vertex -3.79552 1.4 0
    endloop
  endfacet
  facet normal 0 0 -1
    outer loop
      vertex -3.59552 1.4 0
      vertex -3.79552 1.6 0
      vertex -3.69551 5.41402 0
    endloop
  endfacet
  facet normal -0 0 -1
    outer loop
      vertex -3.69551 5.41402 0
      vertex -3.79552 1.6 0
      vertex -3.79552 5.41402 0
    endloop
  endfacet
  facet normal 0 0 -1
    outer loop
      vertex 1.53073 -10.1677 0
      vertex 3.69551 -4.94141 0
      vertex 3.69551 -8.00287 0
    endloop
  endfacet
  facet normal 0 0 -1
    outer loop
      vertex 1.53073 -10.1677 0
      vertex 1.53073 -2.77663 0
      vertex 3.69551 -4.94141 0
    endloop
  endfacet
  facet normal 0 0 -1
    outer loop
      vertex -3.59552 -4.84142 0
      vertex 1.53073 -10.1677 0
      vertex -1.53073 -10.1677 0
    endloop
  endfacet
  facet normal 0 0 -1
    outer loop
      vertex 1.53073 -10.1677 0
      vertex -3.59552 -4.84142 0
      vertex 1.53073 -2.77663 0
    endloop
  endfacet
  facet normal -0 0 -1
    outer loop
      vertex 1.53073 -2.77663 0
      vertex -3.59552 -4.84142 0
      vertex -1.53073 -2.77663 0
    endloop
  endfacet
  facet normal 0 0 -1
    outer loop
      vertex -3.79552 -4.94141 0
      vertex -3.59552 -4.84142 0
      vertex -3.69551 -4.94141 0
    endloop
  endfacet
  facet normal 0 0 -1
    outer loop
      vertex -3.79552 -1.6 0
      vertex -3.59552 -4.84142 0
      vertex -3.79552 -4.94141 0
    endloop
  endfacet
  facet normal 0 0 -1
    outer loop
      vertex -3.59552 -4.84142 0
      vertex -3.79552 -1.6 0
      vertex -3.59552 -1.6 0
    endloop
  endfacet
  facet normal 0 0 -1
    outer loop
      vertex -3.59552 -1.6 0
      vertex -3.79552 -1.6 0
      vertex -3.59552 -1.4 0
    endloop
  endfacet
  facet normal 0 0 -1
    outer loop
      vertex -3.59552 1.4 0
      vertex -3.69551 5.41402 0
      vertex -3.59552 1.6 0
    endloop
  endfacet
  facet normal 0 0 -1
    outer loop
      vertex -3.69551 -8.00287 0
      vertex -3.59552 -4.84142 0
      vertex -1.53073 -10.1677 0
    endloop
  endfacet
  facet normal 0 0 -1
    outer loop
      vertex -3.69551 -4.94141 0
      vertex -3.59552 -4.84142 0
      vertex -3.69551 -8.00287 0
    endloop
  endfacet
  facet normal 0 0 -1
    outer loop
      vertex -2.6 -1.4 0
      vertex -2.5 -1.5 0
      vertex -2.5 -1.6 0
    endloop
  endfacet
  facet normal 0 0 -1
    outer loop
      vertex -2.5 -1.5 0
      vertex -2.6 -1.4 0
      vertex -2.5 1.5 0
    endloop
  endfacet
  facet normal 0 0 -1
    outer loop
      vertex -2.6 1.4 0
      vertex -2.5 1.5 0
      vertex -2.6 -1.4 0
    endloop
  endfacet
  facet normal 0 0 -1
    outer loop
      vertex -3.59552 -1.6 0
      vertex -2.6 -1.4 0
      vertex -2.5 -1.6 0
    endloop
  endfacet
  facet normal -0 0 -1
    outer loop
      vertex -2.6 -1.4 0
      vertex -3.59552 -1.6 0
      vertex -3.59552 -1.4 0
    endloop
  endfacet
  facet normal 0 0 -1
    outer loop
      vertex -2.5 -1.5 0
      vertex -2.4 1.5 0
      vertex -2.4 -1.5 0
    endloop
  endfacet
  facet normal -0 0 -1
    outer loop
      vertex -2.4 1.5 0
      vertex -2.5 -1.5 0
      vertex -2.5 1.5 0
    endloop
  endfacet
  facet normal -0 0 -1
    outer loop
      vertex -2.5 1.5 0
      vertex -2.6 1.4 0
      vertex -2.5 1.6 0
    endloop
  endfacet
  facet normal 0 0 -1
    outer loop
      vertex -3.59552 1.6 0
      vertex -2.6 1.4 0
      vertex -3.59552 1.4 0
    endloop
  endfacet
  facet normal 0 0 -1
    outer loop
      vertex -2.6 1.4 0
      vertex -3.59552 1.6 0
      vertex -2.5 1.6 0
    endloop
  endfacet
  facet normal 0 0 -1
    outer loop
      vertex 1.43073 2.77663 0
      vertex 1.63073 2.87663 0
      vertex 1.63073 -2.77662 0
    endloop
  endfacet
  facet normal 0 0 -1
    outer loop
      vertex 1.43073 2.77663 0
      vertex 1.63073 -2.77662 0
      vertex 1.43073 -2.77662 0
    endloop
  endfacet
  facet normal 0 0 -1
    outer loop
      vertex -1.53073 2.77663 0
      vertex 1.63073 2.87663 0
      vertex 1.43073 2.77663 0
    endloop
  endfacet
  facet normal -0 0 -1
    outer loop
      vertex 1.63073 2.87663 0
      vertex -1.53073 2.77663 0
      vertex -3.69551 5.41402 0
    endloop
  endfacet
  facet normal 0 0 -1
    outer loop
      vertex 1.63073 2.87663 0
      vertex -3.69551 5.41402 0
      vertex 1.53073 10.1677 0
    endloop
  endfacet
  facet normal 0 0 -1
    outer loop
      vertex -3.69551 5.41402 0
      vertex -1.53073 2.77663 0
      vertex -3.59552 4.84142 0
    endloop
  endfacet
  facet normal 0 0 -1
    outer loop
      vertex -3.59552 1.6 0
      vertex -3.69551 5.41402 0
      vertex -3.59552 4.84142 0
    endloop
  endfacet
  facet normal -0 0 -1
    outer loop
      vertex 1.53073 10.1677 0
      vertex -3.69551 5.41402 0
      vertex -1.53073 10.1677 0
    endloop
  endfacet
  facet normal 0 0 -1
    outer loop
      vertex -1.53073 10.1677 0
      vertex -3.69551 5.41402 0
      vertex -3.69551 8.00287 0
    endloop
  endfacet
  facet normal 0 0 -1
    outer loop
      vertex 1.63073 2.87663 0
      vertex 3.69551 8.00287 0
      vertex 3.69551 4.94141 0
    endloop
  endfacet
  facet normal -0 0 -1
    outer loop
      vertex 3.69551 8.00287 0
      vertex 1.63073 2.87663 0
      vertex 1.53073 10.1677 0
    endloop
  endfacet
  facet normal 0 1 0
    outer loop
      vertex 1.53073 10.1677 4.46927
      vertex -1.53073 10.1677 4.46927
      vertex 0 10.1677 6
    endloop
  endfacet
  facet normal 0 1 -0
    outer loop
      vertex 1.53073 10.1677 0
      vertex -1.53073 10.1677 4.46927
      vertex 1.53073 10.1677 4.46927
    endloop
  endfacet
  facet normal 0 1 0
    outer loop
      vertex -1.53073 10.1677 4.46927
      vertex 1.53073 10.1677 0
      vertex -1.53073 10.1677 0
    endloop
  endfacet
  facet normal -1 0 0
    outer loop
      vertex -3.69551 5.41402 2
      vertex -3.69551 8.00287 0
      vertex -3.69551 5.41402 0
    endloop
  endfacet
  facet normal -1 0 0
    outer loop
      vertex -3.69551 8.00287 0
      vertex -3.69551 5.41402 2
      vertex -3.69551 8.00287 2.30449
    endloop
  endfacet
  facet normal -1 0 0
    outer loop
      vertex -3.69551 4.94141 2.30449
      vertex -3.69551 5.41402 2
      vertex -3.69551 4.94141 2
    endloop
  endfacet
  facet normal -1 0 0
    outer loop
      vertex -3.69551 5.41402 2
      vertex -3.69551 4.94141 2.30449
      vertex -3.69551 8.00287 2.30449
    endloop
  endfacet
  facet normal 0.707107 -0.707107 0
    outer loop
      vertex 3.69551 4.94141 2.30449
      vertex 1.63073 2.87663 2
      vertex 3.69551 4.94141 0
    endloop
  endfacet
  facet normal 0.707107 -0.707107 0
    outer loop
      vertex 1.53073 2.77663 4.46927
      vertex 1.63073 2.87663 2
      vertex 3.69551 4.94141 2.30449
    endloop
  endfacet
  facet normal 0.707107 -0.707107 0
    outer loop
      vertex 1.63073 2.87663 2
      vertex 1.53073 2.77663 4.46927
      vertex 1.53073 2.77663 2
    endloop
  endfacet
  facet normal 0.707107 -0.707107 0
    outer loop
      vertex 3.69551 4.94141 0
      vertex 1.63073 2.87663 2
      vertex 1.63073 2.87663 0
    endloop
  endfacet
  facet normal -0.707105 -0.707109 -0
    outer loop
      vertex 3.51074 7.92634 2.48926
      vertex 1.45419 9.98288 0.2
      vertex 3.51074 7.92634 0.2
    endloop
  endfacet
  facet normal -0.707105 -0.707109 0
    outer loop
      vertex 1.45419 9.98288 0.2
      vertex 3.51074 7.92634 2.48926
      vertex 1.45419 9.98288 4.54581
    endloop
  endfacet
  facet normal 0.707107 0.707107 -0
    outer loop
      vertex -1.45419 2.9614 0.2
      vertex -3.51074 5.01795 2.48926
      vertex -1.45419 2.9614 4.54581
    endloop
  endfacet
  facet normal 0.707107 0.707107 0
    outer loop
      vertex -3.51074 5.01795 2.48926
      vertex -1.45419 2.9614 0.2
      vertex -3.51074 5.01795 0.2
    endloop
  endfacet
  facet normal -1 0 0
    outer loop
      vertex 3.51074 5.01795 0.2
      vertex 3.51074 7.92634 2.48926
      vertex 3.51074 7.92634 0.2
    endloop
  endfacet
  facet normal -1 -0 0
    outer loop
      vertex 3.51074 7.92634 2.48926
      vertex 3.51074 5.01795 0.2
      vertex 3.51074 5.01795 2.48926
    endloop
  endfacet
  facet normal 0 1 0
    outer loop
      vertex 1.45419 2.9614 4.54581
      vertex -1.45419 2.9614 4.54581
      vertex 0 2.9614 6
    endloop
  endfacet
  facet normal 0 1 0
    outer loop
      vertex 1.43073 2.9614 2
      vertex 1.45419 2.9614 4.54581
      vertex 1.45419 2.9614 2
    endloop
  endfacet
  facet normal 0 1 0
    outer loop
      vertex 1.45419 2.9614 4.54581
      vertex 1.43073 2.9614 2
      vertex -1.45419 2.9614 4.54581
    endloop
  endfacet
  facet normal 0 1 0
    outer loop
      vertex -1.45419 2.9614 0.2
      vertex 1.43073 2.9614 2
      vertex 1.43073 2.9614 0.2
    endloop
  endfacet
  facet normal 0 1 0
    outer loop
      vertex 1.43073 2.9614 2
      vertex -1.45419 2.9614 0.2
      vertex -1.45419 2.9614 4.54581
    endloop
  endfacet
  facet normal 0.707105 -0.707109 0
    outer loop
      vertex -3.51074 7.92634 2.48926
      vertex -1.45419 9.98288 0.2
      vertex -1.45419 9.98288 4.54581
    endloop
  endfacet
  facet normal 0.707105 -0.707109 0
    outer loop
      vertex -1.45419 9.98288 0.2
      vertex -3.51074 7.92634 2.48926
      vertex -3.51074 7.92634 0.2
    endloop
  endfacet
  facet normal 0 -1 0
    outer loop
      vertex -1.45419 9.98288 4.54581
      vertex 1.45419 9.98288 4.54581
      vertex 0 9.98288 6
    endloop
  endfacet
  facet normal 0 -1 0
    outer loop
      vertex -1.45419 9.98288 0.2
      vertex 1.45419 9.98288 4.54581
      vertex -1.45419 9.98288 4.54581
    endloop
  endfacet
  facet normal 0 -1 -0
    outer loop
      vertex 1.45419 9.98288 4.54581
      vertex -1.45419 9.98288 0.2
      vertex 1.45419 9.98288 0.2
    endloop
  endfacet
  facet normal 1 -0 0
    outer loop
      vertex -3.51074 5.01795 2.48926
      vertex -3.51074 7.92634 0.2
      vertex -3.51074 7.92634 2.48926
    endloop
  endfacet
  facet normal 1 0 0
    outer loop
      vertex -3.51074 7.92634 0.2
      vertex -3.51074 5.01795 2.48926
      vertex -3.51074 5.01795 0.2
    endloop
  endfacet
  facet normal -0.707107 0.707107 0
    outer loop
      vertex 1.63073 3.13794 2
      vertex 3.51074 5.01795 0.2
      vertex 1.63073 3.13794 0.2
    endloop
  endfacet
  facet normal -0.707107 0.707107 0
    outer loop
      vertex 3.51074 5.01795 0.2
      vertex 1.63073 3.13794 2
      vertex 3.51074 5.01795 2.48926
    endloop
  endfacet
  facet normal -0.707107 0.707107 0
    outer loop
      vertex 1.45419 2.9614 4.54581
      vertex 1.63073 3.13794 2
      vertex 1.45419 2.9614 2
    endloop
  endfacet
  facet normal -0.707107 0.707107 6.44468e-17
    outer loop
      vertex 1.63073 3.13794 2
      vertex 1.45419 2.9614 4.54581
      vertex 3.51074 5.01795 2.48926
    endloop
  endfacet
  facet normal -0.707107 6.30903e-17 -0.707107
    outer loop
      vertex 1.68379 10.5372 4.31621
      vertex 1.53073 10.1677 4.46927
      vertex 0 10.5372 6
    endloop
  endfacet
  facet normal -0.707107 0 -0.707107
    outer loop
      vertex 4.06506 8.15593 1.93494
      vertex 1.53073 10.1677 4.46927
      vertex 1.68379 10.5372 4.31621
    endloop
  endfacet
  facet normal -0.707107 0 -0.707107
    outer loop
      vertex 4.06506 8.15593 1.93494
      vertex 3.69551 8.00287 2.30449
      vertex 1.53073 10.1677 4.46927
    endloop
  endfacet
  facet normal -0.707107 0 -0.707107
    outer loop
      vertex 4.06506 8.15593 1.93494
      vertex 3.69551 4.94141 2.30449
      vertex 3.69551 8.00287 2.30449
    endloop
  endfacet
  facet normal -0.707107 0 -0.707107
    outer loop
      vertex 4.06506 4.78835 1.93494
      vertex 3.69551 4.94141 2.30449
      vertex 4.06506 8.15593 1.93494
    endloop
  endfacet
  facet normal -0.707107 0 -0.707107
    outer loop
      vertex 4.06506 4.78835 1.93494
      vertex 1.53073 2.77663 4.46927
      vertex 3.69551 4.94141 2.30449
    endloop
  endfacet
  facet normal -0.707107 0 -0.707107
    outer loop
      vertex 1.68379 2.40708 4.31621
      vertex 1.53073 2.77663 4.46927
      vertex 4.06506 4.78835 1.93494
    endloop
  endfacet
  facet normal -0.707107 0 -0.707107
    outer loop
      vertex 0 2.40708 6
      vertex 1.53073 2.77663 4.46927
      vertex 1.68379 2.40708 4.31621
    endloop
  endfacet
  facet normal -0.707107 0 -0.707107
    outer loop
      vertex 1.53073 2.77663 4.46927
      vertex 0 2.40708 6
      vertex 0 2.77663 6
    endloop
  endfacet
  facet normal -0.707107 -0 -0.707107
    outer loop
      vertex 0 10.5372 6
      vertex 1.53073 10.1677 4.46927
      vertex 0 10.1677 6
    endloop
  endfacet
  facet normal -0.707107 4.20007e-16 -0.707107
    outer loop
      vertex 3.51074 7.92634 2.48926
      vertex 0 9.98288 6
      vertex 1.45419 9.98288 4.54581
    endloop
  endfacet
  facet normal -0.707107 0 -0.707107
    outer loop
      vertex 3.51074 5.01795 2.48926
      vertex 0 9.98288 6
      vertex 3.51074 7.92634 2.48926
    endloop
  endfacet
  facet normal -0.707107 -4.20005e-16 -0.707107
    outer loop
      vertex 0 2.9614 6
      vertex 3.51074 5.01795 2.48926
      vertex 1.45419 2.9614 4.54581
    endloop
  endfacet
  facet normal -0.707107 0 -0.707107
    outer loop
      vertex 3.51074 5.01795 2.48926
      vertex 0 2.9614 6
      vertex 0 9.98288 6
    endloop
  endfacet
  facet normal 0.707107 0 -0.707107
    outer loop
      vertex 0 2.77663 6
      vertex 0 2.40708 6
      vertex -1.53073 2.77663 4.46927
    endloop
  endfacet
  facet normal 0.707107 0 -0.707107
    outer loop
      vertex -1.53073 10.1677 4.46927
      vertex 0 10.5372 6
      vertex 0 10.1677 6
    endloop
  endfacet
  facet normal 0.707107 0 -0.707107
    outer loop
      vertex 0 10.5372 6
      vertex -1.53073 10.1677 4.46927
      vertex -1.68379 10.5372 4.31621
    endloop
  endfacet
  facet normal 0.707107 0 -0.707107
    outer loop
      vertex -1.53073 10.1677 4.46927
      vertex -4.06506 8.15593 1.93494
      vertex -1.68379 10.5372 4.31621
    endloop
  endfacet
  facet normal 0.707107 -6.939e-17 -0.707107
    outer loop
      vertex -3.69551 8.00287 2.30449
      vertex -4.06506 8.15593 1.93494
      vertex -1.53073 10.1677 4.46927
    endloop
  endfacet
  facet normal 0.707107 0 -0.707107
    outer loop
      vertex -3.69551 4.94141 2.30449
      vertex -4.06506 8.15593 1.93494
      vertex -3.69551 8.00287 2.30449
    endloop
  endfacet
  facet normal 0.707107 0 -0.707107
    outer loop
      vertex -3.69551 4.94141 2.30449
      vertex -4.06506 4.78835 1.93494
      vertex -4.06506 8.15593 1.93494
    endloop
  endfacet
  facet normal 0.707107 5.55129e-16 -0.707107
    outer loop
      vertex -1.53073 2.77663 4.46927
      vertex -4.06506 4.78835 1.93494
      vertex -3.69551 4.94141 2.30449
    endloop
  endfacet
  facet normal 0.707107 0 -0.707107
    outer loop
      vertex -1.53073 2.77663 4.46927
      vertex -1.68379 2.40708 4.31621
      vertex -4.06506 4.78835 1.93494
    endloop
  endfacet
  facet normal 0.707107 -6.30818e-17 -0.707107
    outer loop
      vertex -1.68379 2.40708 4.31621
      vertex -1.53073 2.77663 4.46927
      vertex 0 2.40708 6
    endloop
  endfacet
  facet normal 0.707107 4.20007e-16 -0.707107
    outer loop
      vertex 0 9.98288 6
      vertex -3.51074 7.92634 2.48926
      vertex -1.45419 9.98288 4.54581
    endloop
  endfacet
  facet normal 0.707107 0 -0.707107
    outer loop
      vertex 0 9.98288 6
      vertex -3.51074 5.01795 2.48926
      vertex -3.51074 7.92634 2.48926
    endloop
  endfacet
  facet normal 0.707107 0 -0.707107
    outer loop
      vertex 0 2.9614 6
      vertex -3.51074 5.01795 2.48926
      vertex 0 9.98288 6
    endloop
  endfacet
  facet normal 0.707107 -4.20005e-16 -0.707107
    outer loop
      vertex -3.51074 5.01795 2.48926
      vertex 0 2.9614 6
      vertex -1.45419 2.9614 4.54581
    endloop
  endfacet
  facet normal 0.408248 -0.816497 -0.408248
    outer loop
      vertex 1.68379 2.40708 4.31621
      vertex 4.20648 4.78835 2.07636
      vertex 1.82521 2.40708 4.45763
    endloop
  endfacet
  facet normal 0.408248 -0.816497 -0.408248
    outer loop
      vertex 4.20648 4.78835 2.07636
      vertex 1.68379 2.40708 4.31621
      vertex 4.06506 4.78835 1.93494
    endloop
  endfacet
  facet normal 0.707107 4.1995e-07 0.707107
    outer loop
      vertex 0.141421 10.5372 6.14142
      vertex 4.20648 8.15593 2.07636
      vertex 1.82521 10.5372 4.45763
    endloop
  endfacet
  facet normal 0.707107 0 0.707107
    outer loop
      vertex 4.20648 8.15593 2.07636
      vertex 0.141421 10.5372 6.14142
      vertex 4.20648 4.78835 2.07636
    endloop
  endfacet
  facet normal 0.707107 -0 0.707107
    outer loop
      vertex 0.141421 2.40708 6.14142
      vertex 4.20648 4.78835 2.07636
      vertex 0.141421 10.5372 6.14142
    endloop
  endfacet
  facet normal 0.707107 -4.1995e-07 0.707107
    outer loop
      vertex 4.20648 4.78835 2.07636
      vertex 0.141421 2.40708 6.14142
      vertex 1.82521 2.40708 4.45763
    endloop
  endfacet
  facet normal 0 -1 0
    outer loop
      vertex 0 2.40708 6
      vertex 1.82521 2.40708 4.45763
      vertex 0.141421 2.40708 6.14142
    endloop
  endfacet
  facet normal -0 -1 0
    outer loop
      vertex 1.82521 2.40708 4.45763
      vertex 0 2.40708 6
      vertex 1.68379 2.40708 4.31621
    endloop
  endfacet
  facet normal 0.408248 0.816497 -0.408248
    outer loop
      vertex 4.20648 8.15593 2.07636
      vertex 1.68379 10.5372 4.31621
      vertex 1.82521 10.5372 4.45763
    endloop
  endfacet
  facet normal 0.408248 0.816497 -0.408248
    outer loop
      vertex 1.68379 10.5372 4.31621
      vertex 4.20648 8.15593 2.07636
      vertex 4.06506 8.15593 1.93494
    endloop
  endfacet
  facet normal 0.707107 0 -0.707107
    outer loop
      vertex 4.06506 4.78835 1.93494
      vertex 4.20648 8.15593 2.07636
      vertex 4.20648 4.78835 2.07636
    endloop
  endfacet
  facet normal 0.707107 0 -0.707107
    outer loop
      vertex 4.20648 8.15593 2.07636
      vertex 4.06506 4.78835 1.93494
      vertex 4.06506 8.15593 1.93494
    endloop
  endfacet
  facet normal 0 1 0
    outer loop
      vertex 1.82521 10.5372 4.45763
      vertex 0 10.5372 6
      vertex 0.141421 10.5372 6.14142
    endloop
  endfacet
  facet normal 0 1 0
    outer loop
      vertex 0 10.5372 6
      vertex 1.82521 10.5372 4.45763
      vertex 1.68379 10.5372 4.31621
    endloop
  endfacet
  facet normal -0.707104 0 0.707109
    outer loop
      vertex 0 10.1677 6
      vertex 0.141421 10.5372 6.14142
      vertex 0 10.5372 6
    endloop
  endfacet
  facet normal -0.707104 0 0.707109
    outer loop
      vertex 0 9.98288 6
      vertex 0.141421 10.5372 6.14142
      vertex 0 10.1677 6
    endloop
  endfacet
  facet normal -0.707104 0 0.707109
    outer loop
      vertex 0 2.9614 6
      vertex 0.141421 10.5372 6.14142
      vertex 0 9.98288 6
    endloop
  endfacet
  facet normal -0.707104 0 0.707109
    outer loop
      vertex 0.141421 2.40708 6.14142
      vertex 0 2.9614 6
      vertex 0 2.77663 6
    endloop
  endfacet
  facet normal -0.707104 0 0.707109
    outer loop
      vertex 0.141421 2.40708 6.14142
      vertex 0 2.77663 6
      vertex 0 2.40708 6
    endloop
  endfacet
  facet normal -0.707104 0 0.707109
    outer loop
      vertex 0 2.9614 6
      vertex 0.141421 2.40708 6.14142
      vertex 0.141421 10.5372 6.14142
    endloop
  endfacet
  facet normal -0.408248 0.816497 -0.408248
    outer loop
      vertex -1.68379 10.5372 4.31621
      vertex -4.20648 8.15593 2.07636
      vertex -1.82521 10.5372 4.45763
    endloop
  endfacet
  facet normal -0.408248 0.816497 -0.408248
    outer loop
      vertex -4.20648 8.15593 2.07636
      vertex -1.68379 10.5372 4.31621
      vertex -4.06506 8.15593 1.93494
    endloop
  endfacet
  facet normal -0.707107 4.1995e-07 0.707107
    outer loop
      vertex -4.20648 8.15593 2.07636
      vertex -0.141421 10.5372 6.14142
      vertex -1.82521 10.5372 4.45763
    endloop
  endfacet
  facet normal -0.707107 0 0.707107
    outer loop
      vertex -0.141421 10.5372 6.14142
      vertex -4.20648 8.15593 2.07636
      vertex -0.141421 2.40708 6.14142
    endloop
  endfacet
  facet normal -0.707107 0 0.707107
    outer loop
      vertex -4.20648 4.78835 2.07636
      vertex -0.141421 2.40708 6.14142
      vertex -4.20648 8.15593 2.07636
    endloop
  endfacet
  facet normal -0.707107 -4.1995e-07 0.707107
    outer loop
      vertex -0.141421 2.40708 6.14142
      vertex -4.20648 4.78835 2.07636
      vertex -1.82521 2.40708 4.45763
    endloop
  endfacet
  facet normal 0 1 0
    outer loop
      vertex 0 10.5372 6
      vertex -1.82521 10.5372 4.45763
      vertex -0.141421 10.5372 6.14142
    endloop
  endfacet
  facet normal -0 1 0
    outer loop
      vertex -1.82521 10.5372 4.45763
      vertex 0 10.5372 6
      vertex -1.68379 10.5372 4.31621
    endloop
  endfacet
  facet normal -0.408248 -0.816497 -0.408248
    outer loop
      vertex -4.20648 4.78835 2.07636
      vertex -1.68379 2.40708 4.31621
      vertex -1.82521 2.40708 4.45763
    endloop
  endfacet
  facet normal -0.408248 -0.816497 -0.408248
    outer loop
      vertex -1.68379 2.40708 4.31621
      vertex -4.20648 4.78835 2.07636
      vertex -4.06506 4.78835 1.93494
    endloop
  endfacet
  facet normal -0.707107 0 -0.707107
    outer loop
      vertex -4.20648 4.78835 2.07636
      vertex -4.06506 8.15593 1.93494
      vertex -4.06506 4.78835 1.93494
    endloop
  endfacet
  facet normal -0.707107 0 -0.707107
    outer loop
      vertex -4.06506 8.15593 1.93494
      vertex -4.20648 4.78835 2.07636
      vertex -4.20648 8.15593 2.07636
    endloop
  endfacet
  facet normal 0 -1 0
    outer loop
      vertex -1.82521 2.40708 4.45763
      vertex 0 2.40708 6
      vertex -0.141421 2.40708 6.14142
    endloop
  endfacet
  facet normal 0 -1 0
    outer loop
      vertex 0 2.40708 6
      vertex -1.82521 2.40708 4.45763
      vertex -1.68379 2.40708 4.31621
    endloop
  endfacet
  facet normal 0.707104 0 0.707109
    outer loop
      vertex -0.141421 10.5372 6.14142
      vertex 0 10.1677 6
      vertex 0 10.5372 6
    endloop
  endfacet
  facet normal 0.707104 0 0.707109
    outer loop
      vertex -0.141421 10.5372 6.14142
      vertex 0 9.98288 6
      vertex 0 10.1677 6
    endloop
  endfacet
  facet normal 0.707104 0 0.707109
    outer loop
      vertex -0.141421 10.5372 6.14142
      vertex 0 2.9614 6
      vertex 0 9.98288 6
    endloop
  endfacet
  facet normal 0.707104 -0 0.707109
    outer loop
      vertex -0.141421 2.40708 6.14142
      vertex 0 2.9614 6
      vertex -0.141421 10.5372 6.14142
    endloop
  endfacet
  facet normal 0.707104 0 0.707109
    outer loop
      vertex 0 2.9614 6
      vertex -0.141421 2.40708 6.14142
      vertex 0 2.77663 6
    endloop
  endfacet
  facet normal 0.707104 0 0.707109
    outer loop
      vertex 0 2.77663 6
      vertex -0.141421 2.40708 6.14142
      vertex 0 2.40708 6
    endloop
  endfacet
  facet normal 0 0 1
    outer loop
      vertex 1.43073 3.69552 0.2
      vertex 3.51074 5.01795 0.2
      vertex 3.51074 7.92634 0.2
    endloop
  endfacet
  facet normal 0 0 1
    outer loop
      vertex 1.43073 3.69552 0.2
      vertex 3.51074 7.92634 0.2
      vertex 1.45419 9.98288 0.2
    endloop
  endfacet
  facet normal 0 0 1
    outer loop
      vertex 3.51074 5.01795 0.2
      vertex 1.43073 3.69552 0.2
      vertex 1.63073 3.69552 0.2
    endloop
  endfacet
  facet normal -0 0 1
    outer loop
      vertex -1.45419 9.98288 0.2
      vertex 1.43073 3.69552 0.2
      vertex 1.45419 9.98288 0.2
    endloop
  endfacet
  facet normal -0 0 1
    outer loop
      vertex -3.51074 7.92634 0.2
      vertex 1.43073 3.69552 0.2
      vertex -1.45419 9.98288 0.2
    endloop
  endfacet
  facet normal 0 0 1
    outer loop
      vertex 1.43073 3.69552 0.2
      vertex -1.45419 2.9614 0.2
      vertex 1.43073 2.9614 0.2
    endloop
  endfacet
  facet normal -0 0 1
    outer loop
      vertex -3.51074 5.01795 0.2
      vertex 1.43073 3.69552 0.2
      vertex -3.51074 7.92634 0.2
    endloop
  endfacet
  facet normal 0 0 1
    outer loop
      vertex 1.43073 3.69552 0.2
      vertex -3.51074 5.01795 0.2
      vertex -1.45419 2.9614 0.2
    endloop
  endfacet
  facet normal 0 0 1
    outer loop
      vertex 3.51074 5.01795 0.2
      vertex 1.63073 3.69552 0.2
      vertex 1.63073 3.13794 0.2
    endloop
  endfacet
  facet normal 0.707107 0.707107 0
    outer loop
      vertex 3.69551 -4.94141 2.30449
      vertex 1.53073 -2.77663 0
      vertex 1.53073 -2.77663 4.46927
    endloop
  endfacet
  facet normal 0.707107 0.707107 0
    outer loop
      vertex 1.53073 -2.77663 0
      vertex 3.69551 -4.94141 2.30449
      vertex 3.69551 -4.94141 0
    endloop
  endfacet
  facet normal -0.707115 -0.707099 0
    outer loop
      vertex -1.53073 -10.1677 0
      vertex -3.69551 -8.00287 2.30449
      vertex -3.69551 -8.00287 0
    endloop
  endfacet
  facet normal -0.707115 -0.707099 0
    outer loop
      vertex -3.69551 -8.00287 2.30449
      vertex -1.53073 -10.1677 0
      vertex -1.53073 -10.1677 4.46927
    endloop
  endfacet
  facet normal 1 -0 0
    outer loop
      vertex 3.69551 -8.00287 2.30449
      vertex 3.69551 -4.94141 0
      vertex 3.69551 -4.94141 2.30449
    endloop
  endfacet
  facet normal 1 0 0
    outer loop
      vertex 3.69551 -4.94141 0
      vertex 3.69551 -8.00287 2.30449
      vertex 3.69551 -8.00287 0
    endloop
  endfacet
  facet normal 0 -1 0
    outer loop
      vertex -1.53073 -10.1677 4.46927
      vertex 1.53073 -10.1677 4.46927
      vertex 0 -10.1677 6
    endloop
  endfacet
  facet normal 0 -1 0
    outer loop
      vertex -1.53073 -10.1677 0
      vertex 1.53073 -10.1677 4.46927
      vertex -1.53073 -10.1677 4.46927
    endloop
  endfacet
  facet normal 0 -1 -0
    outer loop
      vertex 1.53073 -10.1677 4.46927
      vertex -1.53073 -10.1677 0
      vertex 1.53073 -10.1677 0
    endloop
  endfacet
  facet normal -0.707107 0.707107 0
    outer loop
      vertex -3.59552 -4.84142 2
      vertex -1.53073 -2.77663 0
      vertex -3.59552 -4.84142 0
    endloop
  endfacet
  facet normal -0.707107 0.707107 0
    outer loop
      vertex -1.53073 -2.77663 0
      vertex -3.59552 -4.84142 2
      vertex -1.53073 -2.77663 4.46927
    endloop
  endfacet
  facet normal -0.707107 0.707107 0
    outer loop
      vertex -3.69551 -4.94141 2.30449
      vertex -3.59552 -4.84142 2
      vertex -3.69551 -4.94141 2
    endloop
  endfacet
  facet normal -0.707107 0.707107 0
    outer loop
      vertex -3.59552 -4.84142 2
      vertex -3.69551 -4.94141 2.30449
      vertex -1.53073 -2.77663 4.46927
    endloop
  endfacet
  facet normal 0 0 0
    outer loop
      vertex -3.69551 -4.94141 2.30449
      vertex -3.69551 -4.94141 2
      vertex -3.69551 -4.94141 0
    endloop
  endfacet
  facet normal 0 1 0
    outer loop
      vertex 1.53073 -2.77663 4.46927
      vertex -1.53073 -2.77663 4.46927
      vertex 0 -2.77663 6
    endloop
  endfacet
  facet normal 0 1 -0
    outer loop
      vertex 1.53073 -2.77663 0
      vertex -1.53073 -2.77663 4.46927
      vertex 1.53073 -2.77663 4.46927
    endloop
  endfacet
  facet normal 0 1 0
    outer loop
      vertex -1.53073 -2.77663 4.46927
      vertex 1.53073 -2.77663 0
      vertex -1.53073 -2.77663 0
    endloop
  endfacet
  facet normal -1 0 0
    outer loop
      vertex -3.69551 -8.00287 0
      vertex -3.69551 -4.94141 2.30449
      vertex -3.69551 -4.94141 0
    endloop
  endfacet
  facet normal -1 -0 0
    outer loop
      vertex -3.69551 -4.94141 2.30449
      vertex -3.69551 -8.00287 0
      vertex -3.69551 -8.00287 2.30449
    endloop
  endfacet
  facet normal 0.707115 -0.707099 0
    outer loop
      vertex 1.53073 -10.1677 0
      vertex 3.69551 -8.00287 2.30449
      vertex 1.53073 -10.1677 4.46927
    endloop
  endfacet
  facet normal 0.707115 -0.707099 0
    outer loop
      vertex 3.69551 -8.00287 2.30449
      vertex 1.53073 -10.1677 0
      vertex 3.69551 -8.00287 0
    endloop
  endfacet
  facet normal -0.707107 -0.707107 -0
    outer loop
      vertex 3.51074 -5.01795 2.48926
      vertex 1.45419 -2.9614 0.2
      vertex 3.51074 -5.01795 0.2
    endloop
  endfacet
  facet normal -0.707107 -0.707107 0
    outer loop
      vertex 1.45419 -2.9614 0.2
      vertex 3.51074 -5.01795 2.48926
      vertex 1.45419 -2.9614 4.54581
    endloop
  endfacet
  facet normal 0.707105 0.707109 -0
    outer loop
      vertex -1.45419 -9.98288 0.2
      vertex -3.51074 -7.92634 2.48926
      vertex -1.45419 -9.98288 4.54581
    endloop
  endfacet
  facet normal 0.707105 0.707109 0
    outer loop
      vertex -3.51074 -7.92634 2.48926
      vertex -1.45419 -9.98288 0.2
      vertex -3.51074 -7.92634 0.2
    endloop
  endfacet
  facet normal -1 0 0
    outer loop
      vertex 3.51074 -7.92634 0.2
      vertex 3.51074 -5.01795 2.48926
      vertex 3.51074 -5.01795 0.2
    endloop
  endfacet
  facet normal -1 -0 0
    outer loop
      vertex 3.51074 -5.01795 2.48926
      vertex 3.51074 -7.92634 0.2
      vertex 3.51074 -7.92634 2.48926
    endloop
  endfacet
  facet normal 0 1 0
    outer loop
      vertex 1.45419 -9.98288 4.54581
      vertex -1.45419 -9.98288 4.54581
      vertex 0 -9.98288 6
    endloop
  endfacet
  facet normal 0 1 -0
    outer loop
      vertex 1.45419 -9.98288 0.2
      vertex -1.45419 -9.98288 4.54581
      vertex 1.45419 -9.98288 4.54581
    endloop
  endfacet
  facet normal 0 1 0
    outer loop
      vertex -1.45419 -9.98288 4.54581
      vertex 1.45419 -9.98288 0.2
      vertex -1.45419 -9.98288 0.2
    endloop
  endfacet
  facet normal 0.707107 -0.707107 0
    outer loop
      vertex -3.51074 -5.01795 2.48926
      vertex -1.45419 -2.9614 0.2
      vertex -1.45419 -2.9614 4.54581
    endloop
  endfacet
  facet normal 0.707107 -0.707107 0
    outer loop
      vertex -1.45419 -2.9614 0.2
      vertex -3.51074 -5.01795 2.48926
      vertex -3.51074 -5.01795 0.2
    endloop
  endfacet
  facet normal 0 -1 0
    outer loop
      vertex -1.45419 -2.9614 4.54581
      vertex 1.45419 -2.9614 4.54581
      vertex 0 -2.9614 6
    endloop
  endfacet
  facet normal 0 -1 0
    outer loop
      vertex -1.45419 -2.9614 0.2
      vertex 1.45419 -2.9614 4.54581
      vertex -1.45419 -2.9614 4.54581
    endloop
  endfacet
  facet normal 0 -1 -0
    outer loop
      vertex 1.45419 -2.9614 4.54581
      vertex -1.45419 -2.9614 0.2
      vertex 1.45419 -2.9614 0.2
    endloop
  endfacet
  facet normal 1 -0 0
    outer loop
      vertex -3.51074 -7.92634 2.48926
      vertex -3.51074 -5.01795 0.2
      vertex -3.51074 -5.01795 2.48926
    endloop
  endfacet
  facet normal 1 0 0
    outer loop
      vertex -3.51074 -5.01795 0.2
      vertex -3.51074 -7.92634 2.48926
      vertex -3.51074 -7.92634 0.2
    endloop
  endfacet
  facet normal -0.707105 0.707109 0
    outer loop
      vertex 1.45419 -9.98288 0.2
      vertex 3.51074 -7.92634 2.48926
      vertex 3.51074 -7.92634 0.2
    endloop
  endfacet
  facet normal -0.707105 0.707109 0
    outer loop
      vertex 3.51074 -7.92634 2.48926
      vertex 1.45419 -9.98288 0.2
      vertex 1.45419 -9.98288 4.54581
    endloop
  endfacet
  facet normal -0.707107 6.30818e-17 -0.707107
    outer loop
      vertex 1.68379 -2.40708 4.31621
      vertex 1.53073 -2.77663 4.46927
      vertex 0 -2.40708 6
    endloop
  endfacet
  facet normal -0.707107 0 -0.707107
    outer loop
      vertex 4.06506 -4.78835 1.93494
      vertex 1.53073 -2.77663 4.46927
      vertex 1.68379 -2.40708 4.31621
    endloop
  endfacet
  facet normal -0.707107 0 -0.707107
    outer loop
      vertex 4.06506 -4.78835 1.93494
      vertex 3.69551 -4.94141 2.30449
      vertex 1.53073 -2.77663 4.46927
    endloop
  endfacet
  facet normal -0.707107 0 -0.707107
    outer loop
      vertex 4.06506 -4.78835 1.93494
      vertex 3.69551 -8.00287 2.30449
      vertex 3.69551 -4.94141 2.30449
    endloop
  endfacet
  facet normal -0.707107 0 -0.707107
    outer loop
      vertex 4.06506 -8.15593 1.93494
      vertex 3.69551 -8.00287 2.30449
      vertex 4.06506 -4.78835 1.93494
    endloop
  endfacet
  facet normal -0.707107 0 -0.707107
    outer loop
      vertex 4.06506 -8.15593 1.93494
      vertex 1.53073 -10.1677 4.46927
      vertex 3.69551 -8.00287 2.30449
    endloop
  endfacet
  facet normal -0.707107 0 -0.707107
    outer loop
      vertex 1.68379 -10.5372 4.31621
      vertex 1.53073 -10.1677 4.46927
      vertex 4.06506 -8.15593 1.93494
    endloop
  endfacet
  facet normal -0.707107 0 -0.707107
    outer loop
      vertex 0 -10.5372 6
      vertex 1.53073 -10.1677 4.46927
      vertex 1.68379 -10.5372 4.31621
    endloop
  endfacet
  facet normal -0.707107 0 -0.707107
    outer loop
      vertex 1.53073 -10.1677 4.46927
      vertex 0 -10.5372 6
      vertex 0 -10.1677 6
    endloop
  endfacet
  facet normal -0.707107 -0 -0.707107
    outer loop
      vertex 0 -2.40708 6
      vertex 1.53073 -2.77663 4.46927
      vertex 0 -2.77663 6
    endloop
  endfacet
  facet normal -0.707107 4.20005e-16 -0.707107
    outer loop
      vertex 3.51074 -5.01795 2.48926
      vertex 0 -2.9614 6
      vertex 1.45419 -2.9614 4.54581
    endloop
  endfacet
  facet normal -0.707107 0 -0.707107
    outer loop
      vertex 3.51074 -7.92634 2.48926
      vertex 0 -2.9614 6
      vertex 3.51074 -5.01795 2.48926
    endloop
  endfacet
  facet normal -0.707107 -4.20007e-16 -0.707107
    outer loop
      vertex 0 -9.98288 6
      vertex 3.51074 -7.92634 2.48926
      vertex 1.45419 -9.98288 4.54581
    endloop
  endfacet
  facet normal -0.707107 0 -0.707107
    outer loop
      vertex 3.51074 -7.92634 2.48926
      vertex 0 -9.98288 6
      vertex 0 -2.9614 6
    endloop
  endfacet
  facet normal 0.707107 0 -0.707107
    outer loop
      vertex 0 -10.1677 6
      vertex 0 -10.5372 6
      vertex -1.53073 -10.1677 4.46927
    endloop
  endfacet
  facet normal 0.707107 0 -0.707107
    outer loop
      vertex -1.53073 -2.77663 4.46927
      vertex 0 -2.40708 6
      vertex 0 -2.77663 6
    endloop
  endfacet
  facet normal 0.707107 0 -0.707107
    outer loop
      vertex 0 -2.40708 6
      vertex -1.53073 -2.77663 4.46927
      vertex -1.68379 -2.40708 4.31621
    endloop
  endfacet
  facet normal 0.707107 0 -0.707107
    outer loop
      vertex -1.53073 -2.77663 4.46927
      vertex -4.06506 -4.78835 1.93494
      vertex -1.68379 -2.40708 4.31621
    endloop
  endfacet
  facet normal 0.707107 -6.93911e-17 -0.707107
    outer loop
      vertex -3.69551 -4.94141 2.30449
      vertex -4.06506 -4.78835 1.93494
      vertex -1.53073 -2.77663 4.46927
    endloop
  endfacet
  facet normal 0.707107 0 -0.707107
    outer loop
      vertex -3.69551 -8.00287 2.30449
      vertex -4.06506 -4.78835 1.93494
      vertex -3.69551 -4.94141 2.30449
    endloop
  endfacet
  facet normal 0.707107 0 -0.707107
    outer loop
      vertex -3.69551 -8.00287 2.30449
      vertex -4.06506 -8.15593 1.93494
      vertex -4.06506 -4.78835 1.93494
    endloop
  endfacet
  facet normal 0.707107 5.5512e-16 -0.707107
    outer loop
      vertex -1.53073 -10.1677 4.46927
      vertex -4.06506 -8.15593 1.93494
      vertex -3.69551 -8.00287 2.30449
    endloop
  endfacet
  facet normal 0.707107 0 -0.707107
    outer loop
      vertex -1.53073 -10.1677 4.46927
      vertex -1.68379 -10.5372 4.31621
      vertex -4.06506 -8.15593 1.93494
    endloop
  endfacet
  facet normal 0.707107 -6.30903e-17 -0.707107
    outer loop
      vertex -1.68379 -10.5372 4.31621
      vertex -1.53073 -10.1677 4.46927
      vertex 0 -10.5372 6
    endloop
  endfacet
  facet normal 0.707107 4.20005e-16 -0.707107
    outer loop
      vertex 0 -2.9614 6
      vertex -3.51074 -5.01795 2.48926
      vertex -1.45419 -2.9614 4.54581
    endloop
  endfacet
  facet normal 0.707107 0 -0.707107
    outer loop
      vertex 0 -2.9614 6
      vertex -3.51074 -7.92634 2.48926
      vertex -3.51074 -5.01795 2.48926
    endloop
  endfacet
  facet normal 0.707107 0 -0.707107
    outer loop
      vertex 0 -9.98288 6
      vertex -3.51074 -7.92634 2.48926
      vertex 0 -2.9614 6
    endloop
  endfacet
  facet normal 0.707107 -4.20007e-16 -0.707107
    outer loop
      vertex -3.51074 -7.92634 2.48926
      vertex 0 -9.98288 6
      vertex -1.45419 -9.98288 4.54581
    endloop
  endfacet
  facet normal 0.408248 -0.816497 -0.408248
    outer loop
      vertex 1.68379 -10.5372 4.31621
      vertex 4.20648 -8.15593 2.07636
      vertex 1.82521 -10.5372 4.45763
    endloop
  endfacet
  facet normal 0.408248 -0.816497 -0.408248
    outer loop
      vertex 4.20648 -8.15593 2.07636
      vertex 1.68379 -10.5372 4.31621
      vertex 4.06506 -8.15593 1.93494
    endloop
  endfacet
  facet normal 0.707107 4.1995e-07 0.707107
    outer loop
      vertex 0.141421 -2.40708 6.14142
      vertex 4.20648 -4.78835 2.07636
      vertex 1.82521 -2.40708 4.45763
    endloop
  endfacet
  facet normal 0.707107 0 0.707107
    outer loop
      vertex 4.20648 -4.78835 2.07636
      vertex 0.141421 -2.40708 6.14142
      vertex 4.20648 -8.15593 2.07636
    endloop
  endfacet
  facet normal 0.707107 -0 0.707107
    outer loop
      vertex 0.141421 -10.5372 6.14142
      vertex 4.20648 -8.15593 2.07636
      vertex 0.141421 -2.40708 6.14142
    endloop
  endfacet
  facet normal 0.707107 -4.1995e-07 0.707107
    outer loop
      vertex 4.20648 -8.15593 2.07636
      vertex 0.141421 -10.5372 6.14142
      vertex 1.82521 -10.5372 4.45763
    endloop
  endfacet
  facet normal 0 -1 0
    outer loop
      vertex 0 -10.5372 6
      vertex 1.82521 -10.5372 4.45763
      vertex 0.141421 -10.5372 6.14142
    endloop
  endfacet
  facet normal -0 -1 0
    outer loop
      vertex 1.82521 -10.5372 4.45763
      vertex 0 -10.5372 6
      vertex 1.68379 -10.5372 4.31621
    endloop
  endfacet
  facet normal 0.408248 0.816497 -0.408248
    outer loop
      vertex 4.20648 -4.78835 2.07636
      vertex 1.68379 -2.40708 4.31621
      vertex 1.82521 -2.40708 4.45763
    endloop
  endfacet
  facet normal 0.408248 0.816497 -0.408248
    outer loop
      vertex 1.68379 -2.40708 4.31621
      vertex 4.20648 -4.78835 2.07636
      vertex 4.06506 -4.78835 1.93494
    endloop
  endfacet
  facet normal 0.707107 0 -0.707107
    outer loop
      vertex 4.06506 -8.15593 1.93494
      vertex 4.20648 -4.78835 2.07636
      vertex 4.20648 -8.15593 2.07636
    endloop
  endfacet
  facet normal 0.707107 0 -0.707107
    outer loop
      vertex 4.20648 -4.78835 2.07636
      vertex 4.06506 -8.15593 1.93494
      vertex 4.06506 -4.78835 1.93494
    endloop
  endfacet
  facet normal 0 1 0
    outer loop
      vertex 1.82521 -2.40708 4.45763
      vertex 0 -2.40708 6
      vertex 0.141421 -2.40708 6.14142
    endloop
  endfacet
  facet normal 0 1 0
    outer loop
      vertex 0 -2.40708 6
      vertex 1.82521 -2.40708 4.45763
      vertex 1.68379 -2.40708 4.31621
    endloop
  endfacet
  facet normal -0.707104 0 0.707109
    outer loop
      vertex 0 -2.77663 6
      vertex 0.141421 -2.40708 6.14142
      vertex 0 -2.40708 6
    endloop
  endfacet
  facet normal -0.707104 0 0.707109
    outer loop
      vertex 0 -2.9614 6
      vertex 0.141421 -2.40708 6.14142
      vertex 0 -2.77663 6
    endloop
  endfacet
  facet normal -0.707104 0 0.707109
    outer loop
      vertex 0 -9.98288 6
      vertex 0.141421 -2.40708 6.14142
      vertex 0 -2.9614 6
    endloop
  endfacet
  facet normal -0.707104 0 0.707109
    outer loop
      vertex 0.141421 -10.5372 6.14142
      vertex 0 -9.98288 6
      vertex 0 -10.1677 6
    endloop
  endfacet
  facet normal -0.707104 0 0.707109
    outer loop
      vertex 0.141421 -10.5372 6.14142
      vertex 0 -10.1677 6
      vertex 0 -10.5372 6
    endloop
  endfacet
  facet normal -0.707104 0 0.707109
    outer loop
      vertex 0 -9.98288 6
      vertex 0.141421 -10.5372 6.14142
      vertex 0.141421 -2.40708 6.14142
    endloop
  endfacet
  facet normal -0.408248 0.816497 -0.408248
    outer loop
      vertex -1.68379 -2.40708 4.31621
      vertex -4.20648 -4.78835 2.07636
      vertex -1.82521 -2.40708 4.45763
    endloop
  endfacet
  facet normal -0.408248 0.816497 -0.408248
    outer loop
      vertex -4.20648 -4.78835 2.07636
      vertex -1.68379 -2.40708 4.31621
      vertex -4.06506 -4.78835 1.93494
    endloop
  endfacet
  facet normal -0.707107 4.1995e-07 0.707107
    outer loop
      vertex -4.20648 -4.78835 2.07636
      vertex -0.141421 -2.40708 6.14142
      vertex -1.82521 -2.40708 4.45763
    endloop
  endfacet
  facet normal -0.707107 0 0.707107
    outer loop
      vertex -4.20648 -8.15593 2.07636
      vertex -0.141421 -2.40708 6.14142
      vertex -4.20648 -4.78835 2.07636
    endloop
  endfacet
  facet normal -0.707107 -4.1995e-07 0.707107
    outer loop
      vertex -0.141421 -10.5372 6.14142
      vertex -4.20648 -8.15593 2.07636
      vertex -1.82521 -10.5372 4.45763
    endloop
  endfacet
  facet normal -0.707107 0 0.707107
    outer loop
      vertex -4.20648 -8.15593 2.07636
      vertex -0.141421 -10.5372 6.14142
      vertex -0.141421 -2.40708 6.14142
    endloop
  endfacet
  facet normal 0 1 0
    outer loop
      vertex 0 -2.40708 6
      vertex -1.82521 -2.40708 4.45763
      vertex -0.141421 -2.40708 6.14142
    endloop
  endfacet
  facet normal -0 1 0
    outer loop
      vertex -1.82521 -2.40708 4.45763
      vertex 0 -2.40708 6
      vertex -1.68379 -2.40708 4.31621
    endloop
  endfacet
  facet normal -0.408248 -0.816497 -0.408248
    outer loop
      vertex -4.20648 -8.15593 2.07636
      vertex -1.68379 -10.5372 4.31621
      vertex -1.82521 -10.5372 4.45763
    endloop
  endfacet
  facet normal -0.408248 -0.816497 -0.408248
    outer loop
      vertex -1.68379 -10.5372 4.31621
      vertex -4.20648 -8.15593 2.07636
      vertex -4.06506 -8.15593 1.93494
    endloop
  endfacet
  facet normal -0.707107 0 -0.707107
    outer loop
      vertex -4.20648 -8.15593 2.07636
      vertex -4.06506 -4.78835 1.93494
      vertex -4.06506 -8.15593 1.93494
    endloop
  endfacet
  facet normal -0.707107 0 -0.707107
    outer loop
      vertex -4.06506 -4.78835 1.93494
      vertex -4.20648 -8.15593 2.07636
      vertex -4.20648 -4.78835 2.07636
    endloop
  endfacet
  facet normal 0 -1 0
    outer loop
      vertex -1.82521 -10.5372 4.45763
      vertex 0 -10.5372 6
      vertex -0.141421 -10.5372 6.14142
    endloop
  endfacet
  facet normal 0 -1 0
    outer loop
      vertex 0 -10.5372 6
      vertex -1.82521 -10.5372 4.45763
      vertex -1.68379 -10.5372 4.31621
    endloop
  endfacet
  facet normal 0.707104 0 0.707109
    outer loop
      vertex -0.141421 -2.40708 6.14142
      vertex 0 -2.77663 6
      vertex 0 -2.40708 6
    endloop
  endfacet
  facet normal 0.707104 0 0.707109
    outer loop
      vertex -0.141421 -2.40708 6.14142
      vertex 0 -2.9614 6
      vertex 0 -2.77663 6
    endloop
  endfacet
  facet normal 0.707104 0 0.707109
    outer loop
      vertex -0.141421 -2.40708 6.14142
      vertex 0 -9.98288 6
      vertex 0 -2.9614 6
    endloop
  endfacet
  facet normal 0.707104 -0 0.707109
    outer loop
      vertex -0.141421 -10.5372 6.14142
      vertex 0 -9.98288 6
      vertex -0.141421 -2.40708 6.14142
    endloop
  endfacet
  facet normal 0.707104 0 0.707109
    outer loop
      vertex 0 -9.98288 6
      vertex -0.141421 -10.5372 6.14142
      vertex 0 -10.1677 6
    endloop
  endfacet
  facet normal 0.707104 0 0.707109
    outer loop
      vertex 0 -10.1677 6
      vertex -0.141421 -10.5372 6.14142
      vertex 0 -10.5372 6
    endloop
  endfacet
  facet normal 0 0 1
    outer loop
      vertex 1.45419 -2.9614 0.2
      vertex 3.51074 -7.92634 0.2
      vertex 3.51074 -5.01795 0.2
    endloop
  endfacet
  facet normal 0 0 1
    outer loop
      vertex 1.45419 -2.9614 0.2
      vertex 1.45419 -9.98288 0.2
      vertex 3.51074 -7.92634 0.2
    endloop
  endfacet
  facet normal -0 0 1
    outer loop
      vertex -1.45419 -2.9614 0.2
      vertex 1.45419 -9.98288 0.2
      vertex 1.45419 -2.9614 0.2
    endloop
  endfacet
  facet normal 0 0 1
    outer loop
      vertex -1.45419 -2.9614 0.2
      vertex -1.45419 -9.98288 0.2
      vertex 1.45419 -9.98288 0.2
    endloop
  endfacet
  facet normal -0 0 1
    outer loop
      vertex -3.51074 -5.01795 0.2
      vertex -1.45419 -9.98288 0.2
      vertex -1.45419 -2.9614 0.2
    endloop
  endfacet
  facet normal 0 0 1
    outer loop
      vertex -1.45419 -9.98288 0.2
      vertex -3.51074 -5.01795 0.2
      vertex -3.51074 -7.92634 0.2
    endloop
  endfacet
  facet normal 0 1 -0
    outer loop
      vertex -2.4 1.5 0
      vertex -2.5 1.5 7.9
      vertex -2.4 1.5 7.9
    endloop
  endfacet
  facet normal 0 1 0
    outer loop
      vertex -2.5 1.5 7.9
      vertex -2.4 1.5 0
      vertex -2.5 1.5 0
    endloop
  endfacet
  facet normal 0 -1 0
    outer loop
      vertex -2.5 -1.5 0
      vertex -2.4 -1.5 7.9
      vertex -2.5 -1.5 7.9
    endloop
  endfacet
  facet normal 0 -1 -0
    outer loop
      vertex -2.4 -1.5 7.9
      vertex -2.5 -1.5 0
      vertex -2.4 -1.5 0
    endloop
  endfacet
  facet normal 1 -0 0
    outer loop
      vertex -2.4 -1.5 7.9
      vertex -2.4 1.5 0
      vertex -2.4 1.5 7.9
    endloop
  endfacet
  facet normal 1 0 0
    outer loop
      vertex -2.4 1.5 0
      vertex -2.4 -1.5 7.9
      vertex -2.4 -1.5 0
    endloop
  endfacet
  facet normal -1 0 0
    outer loop
      vertex -2.6 -1.4 0
      vertex -2.6 1.4 7.9
      vertex -2.6 1.4 0
    endloop
  endfacet
  facet normal -1 -0 0
    outer loop
      vertex -2.6 1.4 7.9
      vertex -2.6 -1.4 0
      vertex -2.6 -1.4 7.9
    endloop
  endfacet
  facet normal 1 -0 0
    outer loop
      vertex -2.5 -1.6 7.9
      vertex -2.5 -1.5 0
      vertex -2.5 -1.5 7.9
    endloop
  endfacet
  facet normal 1 0 0
    outer loop
      vertex -2.5 -1.5 0
      vertex -2.5 -1.6 7.9
      vertex -2.5 -1.6 0
    endloop
  endfacet
  facet normal 0 -1 0
    outer loop
      vertex -5.5 -1.6 7.9
      vertex -3.79552 -1.6 2
      vertex -2.5 -1.6 7.9
    endloop
  endfacet
  facet normal 0 -1 0
    outer loop
      vertex -5.5 -1.6 0
      vertex -3.79552 -1.6 2
      vertex -5.5 -1.6 7.9
    endloop
  endfacet
  facet normal 0 -1 -0
    outer loop
      vertex -3.79552 -1.6 2
      vertex -5.5 -1.6 0
      vertex -3.79552 -1.6 0
    endloop
  endfacet
  facet normal 0 -1 0
    outer loop
      vertex -3.59552 -1.6 2
      vertex -2.5 -1.6 7.9
      vertex -3.79552 -1.6 2
    endloop
  endfacet
  facet normal 0 -1 0
    outer loop
      vertex -2.5 -1.6 0
      vertex -3.59552 -1.6 2
      vertex -3.59552 -1.6 0
    endloop
  endfacet
  facet normal 0 -1 0
    outer loop
      vertex -3.59552 -1.6 2
      vertex -2.5 -1.6 0
      vertex -2.5 -1.6 7.9
    endloop
  endfacet
  facet normal -1 0 0
    outer loop
      vertex -5.5 -1.6 0
      vertex -5.5 -1.5 7.9
      vertex -5.5 -1.5 0
    endloop
  endfacet
  facet normal -1 -0 0
    outer loop
      vertex -5.5 -1.5 7.9
      vertex -5.5 -1.6 0
      vertex -5.5 -1.6 7.9
    endloop
  endfacet
  facet normal 0 1 0
    outer loop
      vertex -3.79552 -1.4 2
      vertex -2.6 -1.4 7.9
      vertex -3.59552 -1.4 2
    endloop
  endfacet
  facet normal 0 1 -0
    outer loop
      vertex -2.6 -1.4 0
      vertex -3.59552 -1.4 2
      vertex -2.6 -1.4 7.9
    endloop
  endfacet
  facet normal 0 1 0
    outer loop
      vertex -3.59552 -1.4 2
      vertex -2.6 -1.4 0
      vertex -3.59552 -1.4 0
    endloop
  endfacet
  facet normal 0 1 0
    outer loop
      vertex -2.6 -1.4 7.9
      vertex -3.79552 -1.4 2
      vertex -5.4 -1.4 7.9
    endloop
  endfacet
  facet normal 0 1 0
    outer loop
      vertex -5.4 -1.4 0
      vertex -3.79552 -1.4 2
      vertex -3.79552 -1.4 0
    endloop
  endfacet
  facet normal 0 1 0
    outer loop
      vertex -3.79552 -1.4 2
      vertex -5.4 -1.4 0
      vertex -5.4 -1.4 7.9
    endloop
  endfacet
  facet normal 0 1 -0
    outer loop
      vertex -5.5 1.5 0
      vertex -5.6 1.5 7.9
      vertex -5.5 1.5 7.9
    endloop
  endfacet
  facet normal 0 1 0
    outer loop
      vertex -5.6 1.5 7.9
      vertex -5.5 1.5 0
      vertex -5.6 1.5 0
    endloop
  endfacet
  facet normal 1 -0 0
    outer loop
      vertex -5.4 -1.4 7.9
      vertex -5.4 1.4 0
      vertex -5.4 1.4 7.9
    endloop
  endfacet
  facet normal 1 0 0
    outer loop
      vertex -5.4 1.4 0
      vertex -5.4 -1.4 7.9
      vertex -5.4 -1.4 0
    endloop
  endfacet
  facet normal -1 0 0
    outer loop
      vertex -5.6 -1.5 0
      vertex -5.6 1.5 7.9
      vertex -5.6 1.5 0
    endloop
  endfacet
  facet normal -1 -0 0
    outer loop
      vertex -5.6 1.5 7.9
      vertex -5.6 -1.5 0
      vertex -5.6 -1.5 7.9
    endloop
  endfacet
  facet normal 0 -1 0
    outer loop
      vertex -5.6 -1.5 0
      vertex -5.5 -1.5 7.9
      vertex -5.6 -1.5 7.9
    endloop
  endfacet
  facet normal 0 -1 -0
    outer loop
      vertex -5.5 -1.5 7.9
      vertex -5.6 -1.5 0
      vertex -5.5 -1.5 0
    endloop
  endfacet
  facet normal -1 0 0
    outer loop
      vertex -5.5 1.5 0
      vertex -5.5 1.6 7.9
      vertex -5.5 1.6 0
    endloop
  endfacet
  facet normal -1 -0 0
    outer loop
      vertex -5.5 1.6 7.9
      vertex -5.5 1.5 0
      vertex -5.5 1.5 7.9
    endloop
  endfacet
  facet normal 0 1 0
    outer loop
      vertex -3.79552 1.6 2
      vertex -2.5 1.6 7.9
      vertex -3.59552 1.6 2
    endloop
  endfacet
  facet normal 0 1 -0
    outer loop
      vertex -2.5 1.6 0
      vertex -3.59552 1.6 2
      vertex -2.5 1.6 7.9
    endloop
  endfacet
  facet normal 0 1 0
    outer loop
      vertex -3.59552 1.6 2
      vertex -2.5 1.6 0
      vertex -3.59552 1.6 0
    endloop
  endfacet
  facet normal 0 1 0
    outer loop
      vertex -2.5 1.6 7.9
      vertex -3.79552 1.6 2
      vertex -5.5 1.6 7.9
    endloop
  endfacet
  facet normal 0 1 0
    outer loop
      vertex -5.5 1.6 0
      vertex -3.79552 1.6 2
      vertex -3.79552 1.6 0
    endloop
  endfacet
  facet normal 0 1 0
    outer loop
      vertex -3.79552 1.6 2
      vertex -5.5 1.6 0
      vertex -5.5 1.6 7.9
    endloop
  endfacet
  facet normal 1 -0 0
    outer loop
      vertex -2.5 1.5 7.9
      vertex -2.5 1.6 0
      vertex -2.5 1.6 7.9
    endloop
  endfacet
  facet normal 1 0 0
    outer loop
      vertex -2.5 1.6 0
      vertex -2.5 1.5 7.9
      vertex -2.5 1.5 0
    endloop
  endfacet
  facet normal 0 -1 0
    outer loop
      vertex -5.4 1.4 7.9
      vertex -3.79552 1.4 2
      vertex -2.6 1.4 7.9
    endloop
  endfacet
  facet normal 0 -1 0
    outer loop
      vertex -5.4 1.4 0
      vertex -3.79552 1.4 2
      vertex -5.4 1.4 7.9
    endloop
  endfacet
  facet normal 0 -1 -0
    outer loop
      vertex -3.79552 1.4 2
      vertex -5.4 1.4 0
      vertex -3.79552 1.4 0
    endloop
  endfacet
  facet normal 0 -1 0
    outer loop
      vertex -3.59552 1.4 2
      vertex -2.6 1.4 7.9
      vertex -3.79552 1.4 2
    endloop
  endfacet
  facet normal 0 -1 0
    outer loop
      vertex -2.6 1.4 0
      vertex -3.59552 1.4 2
      vertex -3.59552 1.4 0
    endloop
  endfacet
  facet normal 0 -1 0
    outer loop
      vertex -3.59552 1.4 2
      vertex -2.6 1.4 0
      vertex -2.6 1.4 7.9
    endloop
  endfacet
  facet normal 1 -0 0
    outer loop
      vertex -2.3 -1.7 8.1
      vertex -2.3 1.7 7.9
      vertex -2.3 1.7 8.1
    endloop
  endfacet
  facet normal 1 0 0
    outer loop
      vertex -2.3 1.7 7.9
      vertex -2.3 -1.7 8.1
      vertex -2.3 -1.7 7.9
    endloop
  endfacet
  facet normal -0 0 1
    outer loop
      vertex -5.7 1.7 8.1
      vertex -2.3 -1.7 8.1
      vertex -2.3 1.7 8.1
    endloop
  endfacet
  facet normal 0 0 1
    outer loop
      vertex -2.3 -1.7 8.1
      vertex -5.7 1.7 8.1
      vertex -5.7 -1.7 8.1
    endloop
  endfacet
  facet normal 0 0 -1
    outer loop
      vertex -5.5 1.5 7.9
      vertex -5.6 1.5 7.9
      vertex -5.5 1.6 7.9
    endloop
  endfacet
  facet normal 0 0 -1
    outer loop
      vertex -2.3 -1.7 7.9
      vertex -2.4 -1.5 7.9
      vertex -2.3 1.7 7.9
    endloop
  endfacet
  facet normal 0 0 -1
    outer loop
      vertex -2.3 -1.7 7.9
      vertex -2.5 -1.6 7.9
      vertex -2.4 -1.5 7.9
    endloop
  endfacet
  facet normal 0 0 -1
    outer loop
      vertex -2.3 -1.7 7.9
      vertex -5.5 -1.6 7.9
      vertex -2.5 -1.6 7.9
    endloop
  endfacet
  facet normal 0 0 -1
    outer loop
      vertex -5.5 -1.6 7.9
      vertex -5.6 -1.5 7.9
      vertex -5.5 -1.5 7.9
    endloop
  endfacet
  facet normal -0 0 -1
    outer loop
      vertex -5.6 -1.5 7.9
      vertex -5.7 -1.7 7.9
      vertex -5.6 1.5 7.9
    endloop
  endfacet
  facet normal -0 0 -1
    outer loop
      vertex -5.5 -1.6 7.9
      vertex -5.7 -1.7 7.9
      vertex -5.6 -1.5 7.9
    endloop
  endfacet
  facet normal 0 0 -1
    outer loop
      vertex -5.7 -1.7 7.9
      vertex -5.5 -1.6 7.9
      vertex -2.3 -1.7 7.9
    endloop
  endfacet
  facet normal 0 0 -1
    outer loop
      vertex -2.4 1.5 7.9
      vertex -2.3 1.7 7.9
      vertex -2.4 -1.5 7.9
    endloop
  endfacet
  facet normal 0 0 -1
    outer loop
      vertex -2.5 1.6 7.9
      vertex -2.4 1.5 7.9
      vertex -2.5 1.5 7.9
    endloop
  endfacet
  facet normal 0 0 -1
    outer loop
      vertex -2.4 1.5 7.9
      vertex -2.5 1.6 7.9
      vertex -2.3 1.7 7.9
    endloop
  endfacet
  facet normal 0 0 -1
    outer loop
      vertex -5.5 1.6 7.9
      vertex -2.3 1.7 7.9
      vertex -2.5 1.6 7.9
    endloop
  endfacet
  facet normal 0 0 -1
    outer loop
      vertex -5.5 1.6 7.9
      vertex -5.7 1.7 7.9
      vertex -2.3 1.7 7.9
    endloop
  endfacet
  facet normal 0 0 -1
    outer loop
      vertex -5.6 1.5 7.9
      vertex -5.7 1.7 7.9
      vertex -5.5 1.6 7.9
    endloop
  endfacet
  facet normal 0 0 -1
    outer loop
      vertex -5.7 1.7 7.9
      vertex -5.6 1.5 7.9
      vertex -5.7 -1.7 7.9
    endloop
  endfacet
  facet normal -0 0 -1
    outer loop
      vertex -2.4 -1.5 7.9
      vertex -2.5 -1.6 7.9
      vertex -2.5 -1.5 7.9
    endloop
  endfacet
  facet normal 0 0 -1
    outer loop
      vertex -5.4 -1.4 7.9
      vertex -2.6 1.4 7.9
      vertex -2.6 -1.4 7.9
    endloop
  endfacet
  facet normal -0 0 -1
    outer loop
      vertex -2.6 1.4 7.9
      vertex -5.4 -1.4 7.9
      vertex -5.4 1.4 7.9
    endloop
  endfacet
  facet normal -1 0 0
    outer loop
      vertex -5.7 -1.7 7.9
      vertex -5.7 1.7 8.1
      vertex -5.7 1.7 7.9
    endloop
  endfacet
  facet normal -1 -0 0
    outer loop
      vertex -5.7 1.7 8.1
      vertex -5.7 -1.7 7.9
      vertex -5.7 -1.7 8.1
    endloop
  endfacet
  facet normal 0 1 -0
    outer loop
      vertex -2.3 1.7 7.9
      vertex -5.7 1.7 8.1
      vertex -2.3 1.7 8.1
    endloop
  endfacet
  facet normal 0 1 0
    outer loop
      vertex -5.7 1.7 8.1
      vertex -2.3 1.7 7.9
      vertex -5.7 1.7 7.9
    endloop
  endfacet
  facet normal 0 -1 0
    outer loop
      vertex -5.7 -1.7 7.9
      vertex -2.3 -1.7 8.1
      vertex -5.7 -1.7 8.1
    endloop
  endfacet
  facet normal 0 -1 -0
    outer loop
      vertex -2.3 -1.7 8.1
      vertex -5.7 -1.7 7.9
      vertex -2.3 -1.7 7.9
    endloop
  endfacet
  facet normal 0 1 -0
    outer loop
      vertex 1.63073 3.69552 0.2
      vertex 1.43073 3.69552 2
      vertex 1.63073 3.69552 2
    endloop
  endfacet
  facet normal 0 1 0
    outer loop
      vertex 1.43073 3.69552 2
      vertex 1.63073 3.69552 0.2
      vertex 1.43073 3.69552 0.2
    endloop
  endfacet
  facet normal -0 0 1
    outer loop
      vertex 1.53073 2.77663 2
      vertex 1.63073 -2.77662 2
      vertex 1.63073 2.87663 2
    endloop
  endfacet
  facet normal 0 0 1
    outer loop
      vertex 1.43073 -2.77662 2
      vertex 1.53073 2.77663 2
      vertex 1.43073 2.77663 2
    endloop
  endfacet
  facet normal 0 0 1
    outer loop
      vertex 1.53073 2.77663 2
      vertex 1.43073 -2.77662 2
      vertex 1.63073 -2.77662 2
    endloop
  endfacet
  facet normal -0 0 1
    outer loop
      vertex 1.43073 3.69552 2
      vertex 1.63073 3.13794 2
      vertex 1.63073 3.69552 2
    endloop
  endfacet
  facet normal 0 0 1
    outer loop
      vertex 1.43073 2.9614 2
      vertex 1.63073 3.13794 2
      vertex 1.43073 3.69552 2
    endloop
  endfacet
  facet normal 0 0 1
    outer loop
      vertex 1.63073 3.13794 2
      vertex 1.43073 2.9614 2
      vertex 1.45419 2.9614 2
    endloop
  endfacet
  facet normal 1 -0 0
    outer loop
      vertex 1.63073 -2.77662 2
      vertex 1.63073 2.87663 0
      vertex 1.63073 2.87663 2
    endloop
  endfacet
  facet normal 1 0 0
    outer loop
      vertex 1.63073 2.87663 0
      vertex 1.63073 -2.77662 2
      vertex 1.63073 -2.77662 0
    endloop
  endfacet
  facet normal 1 -0 0
    outer loop
      vertex 1.63073 3.13794 2
      vertex 1.63073 3.69552 0.2
      vertex 1.63073 3.69552 2
    endloop
  endfacet
  facet normal 1 0 0
    outer loop
      vertex 1.63073 3.69552 0.2
      vertex 1.63073 3.13794 2
      vertex 1.63073 3.13794 0.2
    endloop
  endfacet
  facet normal -1 0 0
    outer loop
      vertex 1.43073 -2.77662 0
      vertex 1.43073 2.77663 2
      vertex 1.43073 2.77663 0
    endloop
  endfacet
  facet normal -1 -0 0
    outer loop
      vertex 1.43073 2.77663 2
      vertex 1.43073 -2.77662 0
      vertex 1.43073 -2.77662 2
    endloop
  endfacet
  facet normal -1 0 0
    outer loop
      vertex 1.43073 2.9614 0.2
      vertex 1.43073 3.69552 2
      vertex 1.43073 3.69552 0.2
    endloop
  endfacet
  facet normal -1 -0 0
    outer loop
      vertex 1.43073 3.69552 2
      vertex 1.43073 2.9614 0.2
      vertex 1.43073 2.9614 2
    endloop
  endfacet
  facet normal 0 -1 0
    outer loop
      vertex 1.43073 -2.77662 0
      vertex 1.63073 -2.77662 2
      vertex 1.43073 -2.77662 2
    endloop
  endfacet
  facet normal 0 -1 -0
    outer loop
      vertex 1.63073 -2.77662 2
      vertex 1.43073 -2.77662 0
      vertex 1.63073 -2.77662 0
    endloop
  endfacet
  facet normal 0 1 -0
    outer loop
      vertex -3.69551 5.41402 0
      vertex -3.79552 5.41402 2
      vertex -3.69551 5.41402 2
    endloop
  endfacet
  facet normal 0 1 0
    outer loop
      vertex -3.79552 5.41402 2
      vertex -3.69551 5.41402 0
      vertex -3.79552 5.41402 0
    endloop
  endfacet
  facet normal -0 0 1
    outer loop
      vertex -3.79552 -1.6 2
      vertex -3.59552 -4.84142 2
      vertex -3.59552 -1.6 2
    endloop
  endfacet
  facet normal 0 0 1
    outer loop
      vertex -3.79552 -4.94141 2
      vertex -3.59552 -4.84142 2
      vertex -3.79552 -1.6 2
    endloop
  endfacet
  facet normal 0 0 1
    outer loop
      vertex -3.59552 -4.84142 2
      vertex -3.79552 -4.94141 2
      vertex -3.69551 -4.94141 2
    endloop
  endfacet
  facet normal 0 0 1
    outer loop
      vertex -3.69551 5.41402 2
      vertex -3.79552 5.41402 2
      vertex -3.69551 4.94141 2
    endloop
  endfacet
  facet normal 0 0 1
    outer loop
      vertex -3.79552 1.6 2
      vertex -3.59552 4.84142 2
      vertex -3.69551 4.94141 2
    endloop
  endfacet
  facet normal 0 0 1
    outer loop
      vertex -3.79552 1.6 2
      vertex -3.69551 4.94141 2
      vertex -3.79552 5.41402 2
    endloop
  endfacet
  facet normal 0 0 1
    outer loop
      vertex -3.59552 4.84142 2
      vertex -3.79552 1.6 2
      vertex -3.59552 1.6 2
    endloop
  endfacet
  facet normal -0 0 1
    outer loop
      vertex -3.79552 1.4 2
      vertex -3.59552 -1.4 2
      vertex -3.59552 1.4 2
    endloop
  endfacet
  facet normal 0 0 1
    outer loop
      vertex -3.59552 -1.4 2
      vertex -3.79552 1.4 2
      vertex -3.79552 -1.4 2
    endloop
  endfacet
  facet normal 1 -0 0
    outer loop
      vertex -3.59552 -4.84142 2
      vertex -3.59552 -1.6 0
      vertex -3.59552 -1.6 2
    endloop
  endfacet
  facet normal 1 0 0
    outer loop
      vertex -3.59552 -1.6 0
      vertex -3.59552 -4.84142 2
      vertex -3.59552 -4.84142 0
    endloop
  endfacet
  facet normal 1 -0 0
    outer loop
      vertex -3.59552 1.6 2
      vertex -3.59552 4.84142 0
      vertex -3.59552 4.84142 2
    endloop
  endfacet
  facet normal 1 0 0
    outer loop
      vertex -3.59552 4.84142 0
      vertex -3.59552 1.6 2
      vertex -3.59552 1.6 0
    endloop
  endfacet
  facet normal 1 -0 0
    outer loop
      vertex -3.59552 -1.4 2
      vertex -3.59552 1.4 0
      vertex -3.59552 1.4 2
    endloop
  endfacet
  facet normal 1 0 0
    outer loop
      vertex -3.59552 1.4 0
      vertex -3.59552 -1.4 2
      vertex -3.59552 -1.4 0
    endloop
  endfacet
  facet normal -1 0 0
    outer loop
      vertex -3.79552 -4.94141 0
      vertex -3.79552 -1.6 2
      vertex -3.79552 -1.6 0
    endloop
  endfacet
  facet normal -1 -0 0
    outer loop
      vertex -3.79552 -1.6 2
      vertex -3.79552 -4.94141 0
      vertex -3.79552 -4.94141 2
    endloop
  endfacet
  facet normal -1 0 0
    outer loop
      vertex -3.79552 1.6 0
      vertex -3.79552 5.41402 2
      vertex -3.79552 5.41402 0
    endloop
  endfacet
  facet normal -1 -0 0
    outer loop
      vertex -3.79552 5.41402 2
      vertex -3.79552 1.6 0
      vertex -3.79552 1.6 2
    endloop
  endfacet
  facet normal -1 0 0
    outer loop
      vertex -3.79552 -1.4 0
      vertex -3.79552 1.4 2
      vertex -3.79552 1.4 0
    endloop
  endfacet
  facet normal -1 -0 0
    outer loop
      vertex -3.79552 1.4 2
      vertex -3.79552 -1.4 0
      vertex -3.79552 -1.4 2
    endloop
  endfacet
  facet normal 0 -1 0
    outer loop
      vertex -3.79552 -4.94141 0
      vertex -3.69551 -4.94141 2
      vertex -3.79552 -4.94141 2
    endloop
  endfacet
  facet normal 0 -1 -0
    outer loop
      vertex -3.69551 -4.94141 2
      vertex -3.79552 -4.94141 0
      vertex -3.69551 -4.94141 0
    endloop
  endfacet
endsolid OpenSCAD_Model
