solid OpenSCAD_Model
  facet normal 0.732268 0.681016 0
    outer loop
      vertex -0.229436 10.8879 2.6
      vertex -0.331551 10.9977 0
      vertex -0.331551 10.9977 2.6
    endloop
  endfacet
  facet normal 0.732268 0.681016 0
    outer loop
      vertex -0.331551 10.9977 0
      vertex -0.229436 10.8879 2.6
      vertex -0.229436 10.8879 0
    endloop
  endfacet
  facet normal 0 0 1
    outer loop
      vertex 2.89204 11.6959 2.6
      vertex 4.3603 11.0475 2.6
      vertex 4.4078 11.1898 2.6
    endloop
  endfacet
  facet normal -0 0 1
    outer loop
      vertex 2.84454 11.5536 2.6
      vertex 4.3603 11.0475 2.6
      vertex 2.89204 11.6959 2.6
    endloop
  endfacet
  facet normal 0 0 1
    outer loop
      vertex 4.3603 11.0475 2.6
      vertex 2.84454 11.5536 2.6
      vertex 4.28713 10.9138 2.6
    endloop
  endfacet
  facet normal 0 0 1
    outer loop
      vertex 2.84454 11.5536 2.6
      vertex 2.8227 11.4028 2.6
      vertex 4.28713 10.9138 2.6
    endloop
  endfacet
  facet normal 0 0 1
    outer loop
      vertex 1.24749 11.498 2.6
      vertex 2.84454 11.5536 2.6
      vertex 2.83932 11.7035 2.6
    endloop
  endfacet
  facet normal 0 0 1
    outer loop
      vertex 2.84454 11.5536 2.6
      vertex 1.27976 11.3491 2.6
      vertex 2.8227 11.4028 2.6
    endloop
  endfacet
  facet normal 0 0 1
    outer loop
      vertex 2.84454 11.5536 2.6
      vertex 1.24749 11.498 2.6
      vertex 1.27976 11.3491 2.6
    endloop
  endfacet
  facet normal 0 -0 1
    outer loop
      vertex 1.24749 11.498 2.6
      vertex 2.83932 11.7035 2.6
      vertex 1.24228 11.6479 2.6
    endloop
  endfacet
  facet normal 0 0 1
    outer loop
      vertex 4.45453 11.1643 2.6
      vertex 5.60364 10.0437 2.6
      vertex 5.69787 10.1604 2.6
    endloop
  endfacet
  facet normal -0 0 1
    outer loop
      vertex 4.3603 11.0475 2.6
      vertex 5.60364 10.0437 2.6
      vertex 4.45453 11.1643 2.6
    endloop
  endfacet
  facet normal 0 0 1
    outer loop
      vertex 5.60364 10.0437 2.6
      vertex 4.3603 11.0475 2.6
      vertex 5.48836 9.94397 2.6
    endloop
  endfacet
  facet normal 0 0 1
    outer loop
      vertex 5.48836 9.94397 2.6
      vertex 4.3603 11.0475 2.6
      vertex 4.28713 10.9138 2.6
    endloop
  endfacet
  facet normal 0 0 1
    outer loop
      vertex 5.73271 10.1201 2.6
      vertex 6.19725 8.74662 2.6
      vertex 6.48297 8.85288 2.6
    endloop
  endfacet
  facet normal -0 0 1
    outer loop
      vertex 5.60364 10.0437 2.6
      vertex 6.19725 8.74662 2.6
      vertex 5.73271 10.1201 2.6
    endloop
  endfacet
  facet normal 0 0 1
    outer loop
      vertex 6.19725 8.74662 2.6
      vertex 5.60364 10.0437 2.6
      vertex 5.48836 9.94397 2.6
    endloop
  endfacet
  facet normal 0 0 1
    outer loop
      vertex 6.48297 8.85288 2.6
      vertex 9.44256 9.79352 2.6
      vertex 9.39028 9.93412 2.6
    endloop
  endfacet
  facet normal 0 0 1
    outer loop
      vertex 6.19725 8.74662 2.6
      vertex 9.44256 9.79352 2.6
      vertex 6.48297 8.85288 2.6
    endloop
  endfacet
  facet normal 0 0 1
    outer loop
      vertex 2.2 7.1 2.6
      vertex 6.19725 8.74662 2.6
      vertex 2.22448 7.26914 2.6
    endloop
  endfacet
  facet normal -0 0 1
    outer loop
      vertex 6.19725 8.74662 2.6
      vertex 2.2 7.1 2.6
      vertex 9.44256 9.79352 2.6
    endloop
  endfacet
  facet normal 0 0 1
    outer loop
      vertex -1.16641 9.81231 2.6
      vertex 2.2 7.1 2.6
      vertex 2.22448 7.26914 2.6
    endloop
  endfacet
  facet normal 0 0 1
    outer loop
      vertex -3.4 11.3 2.6
      vertex -1.16641 9.81231 2.6
      vertex -1.41029 9.99521 2.6
    endloop
  endfacet
  facet normal -0 0 1
    outer loop
      vertex -3.4 11.3 2.6
      vertex -1.41029 9.99521 2.6
      vertex -3.31 11.42 2.6
    endloop
  endfacet
  facet normal 0 0 1
    outer loop
      vertex -1.16641 9.81231 2.6
      vertex -3.4 11.3 2.6
      vertex 2.2 7.1 2.6
    endloop
  endfacet
  facet normal 0 0 1
    outer loop
      vertex -0.229436 10.8879 2.6
      vertex 1.24749 11.498 2.6
      vertex 1.19022 11.6367 2.6
    endloop
  endfacet
  facet normal 0 0 1
    outer loop
      vertex 1.24749 11.498 2.6
      vertex -0.147148 10.7596 2.6
      vertex 1.27976 11.3491 2.6
    endloop
  endfacet
  facet normal 0 0 1
    outer loop
      vertex 1.24749 11.498 2.6
      vertex -0.229436 10.8879 2.6
      vertex -0.147148 10.7596 2.6
    endloop
  endfacet
  facet normal 0 -0 1
    outer loop
      vertex -0.229436 10.8879 2.6
      vertex 1.19022 11.6367 2.6
      vertex -0.286713 11.0265 2.6
    endloop
  endfacet
  facet normal 0 0 1
    outer loop
      vertex -1.16641 9.81231 2.6
      vertex -0.229436 10.8879 2.6
      vertex -0.331551 10.9977 2.6
    endloop
  endfacet
  facet normal 0 0 1
    outer loop
      vertex -0.229436 10.8879 2.6
      vertex -1.16641 9.81231 2.6
      vertex -0.147148 10.7596 2.6
    endloop
  endfacet
  facet normal 0 -0 1
    outer loop
      vertex -1.16641 9.81231 2.6
      vertex -0.331551 10.9977 2.6
      vertex -1.41029 9.99521 2.6
    endloop
  endfacet
  facet normal 0 0 1
    outer loop
      vertex 11.0749 0.53633 2.6
      vertex 0.00725555 -0.149824 2.6
      vertex 11.0821 0.386507 2.6
    endloop
  endfacet
  facet normal -0 0 1
    outer loop
      vertex 9.53674e-07 -9.53674e-07 2.6
      vertex 0.00725555 -0.149824 2.6
      vertex 11.0749 0.53633 2.6
    endloop
  endfacet
  facet normal 0 0 1
    outer loop
      vertex 0.00725555 -0.149824 2.6
      vertex 9.53674e-07 -9.53674e-07 2.6
      vertex 4.61837e-08 -9.53674e-07 2.6
    endloop
  endfacet
  facet normal 0 0 1
    outer loop
      vertex 12.4253 5.54695 2.6
      vertex 11.2197 0.497297 2.6
      vertex 12.5701 5.50792 2.6
    endloop
  endfacet
  facet normal 0 -0 1
    outer loop
      vertex 11.2197 0.497297 2.6
      vertex 12.4253 5.54695 2.6
      vertex 11.0749 0.536331 2.6
    endloop
  endfacet
  facet normal 0 0 1
    outer loop
      vertex 9.56531 9.87974 2.6
      vertex 12.4253 5.54695 2.6
      vertex 12.548 5.63317 2.6
    endloop
  endfacet
  facet normal 0 0 1
    outer loop
      vertex 12.4253 5.54695 2.6
      vertex 9.56531 9.87974 2.6
      vertex 9.44257 9.79352 2.6
    endloop
  endfacet
  facet normal 0 0 1
    outer loop
      vertex 2.2 7.1 2.6
      vertex -3.37 11.09 2.6
      vertex 2.11 6.98 2.6
    endloop
  endfacet
  facet normal 0 0 1
    outer loop
      vertex -3.4 11.3 2.6
      vertex -3.37 11.09 2.6
      vertex 2.2 7.1 2.6
    endloop
  endfacet
  facet normal 0 0 1
    outer loop
      vertex -3.4 11.3 2.6
      vertex -7.39 5.73 2.6
      vertex -3.37 11.09 2.6
    endloop
  endfacet
  facet normal 0 -0 1
    outer loop
      vertex -7.39 5.73 2.6
      vertex -3.4 11.3 2.6
      vertex -7.6 5.7 2.6
    endloop
  endfacet
  facet normal -0 0 1
    outer loop
      vertex 9.38635 9.61258 2.6
      vertex 12.4253 5.54695 2.6
      vertex 9.44256 9.79352 2.6
    endloop
  endfacet
  facet normal 0 0 1
    outer loop
      vertex 12.4253 5.54695 2.6
      vertex 9.38635 9.61258 2.6
      vertex 12.2622 5.51819 2.6
    endloop
  endfacet
  facet normal 0 0 1
    outer loop
      vertex 2.2 7.1 2.6
      vertex 9.38635 9.61258 2.6
      vertex 9.44256 9.79352 2.6
    endloop
  endfacet
  facet normal 0 0 1
    outer loop
      vertex 9.38635 9.61258 2.6
      vertex 2.2 7.1 2.6
      vertex 2.25229 6.95941 2.6
    endloop
  endfacet
  facet normal 0 0 1
    outer loop
      vertex 10.9585 0.68087 2.6
      vertex 12.4253 5.54695 2.6
      vertex 12.2622 5.51819 2.6
    endloop
  endfacet
  facet normal 0 0 1
    outer loop
      vertex 12.4253 5.54695 2.6
      vertex 10.9585 0.68087 2.6
      vertex 11.0749 0.536333 2.6
    endloop
  endfacet
  facet normal 0 0 1
    outer loop
      vertex 1.24973e-06 2.36926e-06 2.6
      vertex 10.9585 0.68087 2.6
      vertex 0.0467466 0.152439 2.6
    endloop
  endfacet
  facet normal 0 0 1
    outer loop
      vertex 10.9585 0.68087 2.6
      vertex 1.24973e-06 2.36926e-06 2.6
      vertex 11.0749 0.536333 2.6
    endloop
  endfacet
  facet normal 0 0 1
    outer loop
      vertex 0.0467466 0.152439 2.6
      vertex -1.10505e-06 4.13534e-06 2.6
      vertex 1.24973e-06 2.36926e-06 2.6
    endloop
  endfacet
  facet normal 0 0 1
    outer loop
      vertex -7.39 5.73 2.6
      vertex -1.10505e-06 4.13534e-06 2.6
      vertex 0.0467466 0.152439 2.6
    endloop
  endfacet
  facet normal 0 0 1
    outer loop
      vertex -1.10505e-06 4.13534e-06 2.6
      vertex -7.39 5.73 2.6
      vertex -7.6 5.7 2.6
    endloop
  endfacet
  facet normal 0 0 1
    outer loop
      vertex -3.52 11.39 2.6
      vertex -7.6 5.7 2.6
      vertex -3.4 11.3 2.6
    endloop
  endfacet
  facet normal -0 0 1
    outer loop
      vertex -7.72 5.79 2.6
      vertex -7.6 5.7 2.6
      vertex -3.52 11.39 2.6
    endloop
  endfacet
  facet normal -0 0 1
    outer loop
      vertex -9.53674e-07 -9.53674e-07 2.6
      vertex -0.0899992 -0.12 2.6
      vertex -7.1525e-07 -9.53674e-07 2.6
    endloop
  endfacet
  facet normal 0 0 1
    outer loop
      vertex -7.6 5.7 2.6
      vertex -0.0899992 -0.12 2.6
      vertex -9.53674e-07 -9.53674e-07 2.6
    endloop
  endfacet
  facet normal 0 0 1
    outer loop
      vertex -0.0899992 -0.12 2.6
      vertex -7.6 5.7 2.6
      vertex -7.69 5.58 2.6
    endloop
  endfacet
  facet normal 0.680772 -0.732495 0
    outer loop
      vertex -1.16641 9.81231 0
      vertex -0.147148 10.7596 2.6
      vertex -1.16641 9.81231 2.6
    endloop
  endfacet
  facet normal 0.680772 -0.732495 0
    outer loop
      vertex -0.147148 10.7596 2.6
      vertex -1.16641 9.81231 0
      vertex -0.147148 10.7596 0
    endloop
  endfacet
  facet normal 0 0 -1
    outer loop
      vertex 11.0821 0.386507 0
      vertex 10.9585 0.68087 0
      vertex 11.0749 0.536331 0
    endloop
  endfacet
  facet normal 0 0 -1
    outer loop
      vertex 0.00725555 -0.149824 0
      vertex 10.9585 0.68087 0
      vertex 11.0821 0.386507 0
    endloop
  endfacet
  facet normal 0 0 -1
    outer loop
      vertex 10.9585 0.68087 0
      vertex 0.00725555 -0.149824 0
      vertex 0.0467466 0.152439 0
    endloop
  endfacet
  facet normal 0 0 -1
    outer loop
      vertex 0 0 0
      vertex 0.0467466 0.152439 0
      vertex 0.00725555 -0.149824 0
    endloop
  endfacet
  facet normal 0 0 -1
    outer loop
      vertex -0.0899992 -0.12 0
      vertex 0.0467466 0.152439 0
      vertex 0 0 0
    endloop
  endfacet
  facet normal 0 0 -1
    outer loop
      vertex -0.0899992 -0.12 0
      vertex -7.39 5.73 0
      vertex 0.0467466 0.152439 0
    endloop
  endfacet
  facet normal 0 0 -1
    outer loop
      vertex -7.69 5.58 0
      vertex -7.39 5.73 0
      vertex -0.0899992 -0.12 0
    endloop
  endfacet
  facet normal 0 0 -1
    outer loop
      vertex -7.39 5.73 0
      vertex -7.69 5.58 0
      vertex -7.6 5.7 0
    endloop
  endfacet
  facet normal 0 0 -1
    outer loop
      vertex 12.5701 5.50792 0
      vertex 12.2622 5.51819 0
      vertex 12.4253 5.54695 0
    endloop
  endfacet
  facet normal 0 0 -1
    outer loop
      vertex 10.9585 0.68087 0
      vertex 12.5701 5.50792 0
      vertex 11.2197 0.497297 0
    endloop
  endfacet
  facet normal 0 0 -1
    outer loop
      vertex 10.9585 0.68087 0
      vertex 11.2197 0.497297 0
      vertex 11.0749 0.536331 0
    endloop
  endfacet
  facet normal -0 0 -1
    outer loop
      vertex 12.5701 5.50792 0
      vertex 10.9585 0.68087 0
      vertex 12.2622 5.51819 0
    endloop
  endfacet
  facet normal 0 0 -1
    outer loop
      vertex 12.2622 5.51819 0
      vertex 12.548 5.63317 0
      vertex 12.4253 5.54695 0
    endloop
  endfacet
  facet normal 0 0 -1
    outer loop
      vertex 9.38635 9.61258 0
      vertex 12.548 5.63317 0
      vertex 12.2622 5.51819 0
    endloop
  endfacet
  facet normal 0 0 -1
    outer loop
      vertex 12.548 5.63317 0
      vertex 9.38635 9.61258 0
      vertex 9.56531 9.87974 0
    endloop
  endfacet
  facet normal 0 0 -1
    outer loop
      vertex 9.56531 9.87974 0
      vertex 9.38635 9.61258 0
      vertex 9.44257 9.79352 0
    endloop
  endfacet
  facet normal 0 0 -1
    outer loop
      vertex 9.38635 9.61258 0
      vertex 9.39028 9.93412 0
      vertex 9.44257 9.79352 0
    endloop
  endfacet
  facet normal -0 0 -1
    outer loop
      vertex 9.38635 9.61258 0
      vertex 6.48297 8.85288 0
      vertex 9.39028 9.93412 0
    endloop
  endfacet
  facet normal 0 0 -1
    outer loop
      vertex 9.38635 9.61258 0
      vertex 6.19725 8.74662 0
      vertex 6.48297 8.85288 0
    endloop
  endfacet
  facet normal 0 0 -1
    outer loop
      vertex 2.25229 6.95941 0
      vertex 6.19725 8.74662 0
      vertex 9.38635 9.61258 0
    endloop
  endfacet
  facet normal 0 0 -1
    outer loop
      vertex 2.25229 6.95941 0
      vertex 2.22448 7.26914 0
      vertex 6.19725 8.74662 0
    endloop
  endfacet
  facet normal 0 0 -1
    outer loop
      vertex 2.2 7.1 0
      vertex 2.22448 7.26914 0
      vertex 2.25229 6.95941 0
    endloop
  endfacet
  facet normal 0 0 -1
    outer loop
      vertex 2.11 6.98 0
      vertex 2.22448 7.26914 0
      vertex 2.2 7.1 0
    endloop
  endfacet
  facet normal 0 0 -1
    outer loop
      vertex 2.11 6.98 0
      vertex -1.16641 9.81231 0
      vertex 2.22448 7.26914 0
    endloop
  endfacet
  facet normal 0 0 -1
    outer loop
      vertex -3.37 11.09 0
      vertex -1.16641 9.81231 0
      vertex 2.11 6.98 0
    endloop
  endfacet
  facet normal 0 0 -1
    outer loop
      vertex -1.16641 9.81231 0
      vertex -3.37 11.09 0
      vertex -1.41029 9.99521 0
    endloop
  endfacet
  facet normal 0 0 -1
    outer loop
      vertex -1.41029 9.99521 0
      vertex -3.37 11.09 0
      vertex -3.31 11.42 0
    endloop
  endfacet
  facet normal 0 0 -1
    outer loop
      vertex -3.37 11.09 0
      vertex -3.4 11.3 0
      vertex -3.31 11.42 0
    endloop
  endfacet
  facet normal 0 0 -1
    outer loop
      vertex -3.37 11.09 0
      vertex -3.52 11.39 0
      vertex -3.4 11.3 0
    endloop
  endfacet
  facet normal 0 0 -1
    outer loop
      vertex -7.39 5.73 0
      vertex -3.52 11.39 0
      vertex -3.37 11.09 0
    endloop
  endfacet
  facet normal 0 0 -1
    outer loop
      vertex -7.72 5.79 0
      vertex -7.39 5.73 0
      vertex -7.6 5.7 0
    endloop
  endfacet
  facet normal 0 0 -1
    outer loop
      vertex -7.39 5.73 0
      vertex -7.72 5.79 0
      vertex -3.52 11.39 0
    endloop
  endfacet
  facet normal 0 0 -1
    outer loop
      vertex 6.19725 8.74662 0
      vertex 5.73271 10.1201 0
      vertex 6.48297 8.85288 0
    endloop
  endfacet
  facet normal 0 0 -1
    outer loop
      vertex 6.19725 8.74662 0
      vertex 5.60364 10.0437 0
      vertex 5.73271 10.1201 0
    endloop
  endfacet
  facet normal 0 -0 -1
    outer loop
      vertex 5.60364 10.0437 0
      vertex 6.19725 8.74662 0
      vertex 5.48836 9.94397 0
    endloop
  endfacet
  facet normal 0 0 -1
    outer loop
      vertex 4.3603 11.0475 0
      vertex 5.60364 10.0437 0
      vertex 5.48836 9.94397 0
    endloop
  endfacet
  facet normal 0 0 -1
    outer loop
      vertex 5.60364 10.0437 0
      vertex 4.45453 11.1643 0
      vertex 5.69787 10.1604 0
    endloop
  endfacet
  facet normal 0 0 -1
    outer loop
      vertex 5.60364 10.0437 0
      vertex 4.3603 11.0475 0
      vertex 4.45453 11.1643 0
    endloop
  endfacet
  facet normal 0 -0 -1
    outer loop
      vertex 4.3603 11.0475 0
      vertex 5.48836 9.94397 0
      vertex 4.28713 10.9138 0
    endloop
  endfacet
  facet normal 0 0 -1
    outer loop
      vertex 2.84454 11.5536 0
      vertex 4.3603 11.0475 0
      vertex 4.28713 10.9138 0
    endloop
  endfacet
  facet normal 0 0 -1
    outer loop
      vertex 4.3603 11.0475 0
      vertex 2.89204 11.6959 0
      vertex 4.4078 11.1898 0
    endloop
  endfacet
  facet normal 0 0 -1
    outer loop
      vertex 4.3603 11.0475 0
      vertex 2.84454 11.5536 0
      vertex 2.89204 11.6959 0
    endloop
  endfacet
  facet normal 0 0 -1
    outer loop
      vertex 2.8227 11.4028 0
      vertex 2.84454 11.5536 0
      vertex 4.28713 10.9138 0
    endloop
  endfacet
  facet normal 0 0 -1
    outer loop
      vertex 1.27976 11.3491 0
      vertex 2.84454 11.5536 0
      vertex 2.8227 11.4028 0
    endloop
  endfacet
  facet normal 0 0 -1
    outer loop
      vertex 1.24749 11.498 0
      vertex 2.84454 11.5536 0
      vertex 1.27976 11.3491 0
    endloop
  endfacet
  facet normal -0 0 -1
    outer loop
      vertex 2.84454 11.5536 0
      vertex 1.24749 11.498 0
      vertex 2.83932 11.7035 0
    endloop
  endfacet
  facet normal 0 0 -1
    outer loop
      vertex 2.83932 11.7035 0
      vertex 1.24749 11.498 0
      vertex 1.24228 11.6479 0
    endloop
  endfacet
  facet normal 0 0 -1
    outer loop
      vertex -1.16641 9.81231 0
      vertex -0.229436 10.8879 0
      vertex -0.147148 10.7596 0
    endloop
  endfacet
  facet normal -0 0 -1
    outer loop
      vertex -0.229436 10.8879 0
      vertex -1.16641 9.81231 0
      vertex -0.331551 10.9977 0
    endloop
  endfacet
  facet normal 0 0 -1
    outer loop
      vertex -0.331551 10.9977 0
      vertex -1.16641 9.81231 0
      vertex -1.41029 9.99521 0
    endloop
  endfacet
  facet normal 0 0 -1
    outer loop
      vertex -0.147148 10.7596 0
      vertex 1.24749 11.498 0
      vertex 1.27976 11.3491 0
    endloop
  endfacet
  facet normal 0 0 -1
    outer loop
      vertex -0.229436 10.8879 0
      vertex 1.24749 11.498 0
      vertex -0.147148 10.7596 0
    endloop
  endfacet
  facet normal -0 0 -1
    outer loop
      vertex 1.24749 11.498 0
      vertex -0.229436 10.8879 0
      vertex 1.19022 11.6367 0
    endloop
  endfacet
  facet normal 0 0 -1
    outer loop
      vertex 1.19022 11.6367 0
      vertex -0.229436 10.8879 0
      vertex -0.286713 11.0265 0
    endloop
  endfacet
  facet normal -0.680744 0.732521 0
    outer loop
      vertex -0.331551 10.9977 0
      vertex -1.41029 9.99521 2.6
      vertex -0.331551 10.9977 2.6
    endloop
  endfacet
  facet normal -0.680744 0.732521 0
    outer loop
      vertex -1.41029 9.99521 2.6
      vertex -0.331551 10.9977 0
      vertex -1.41029 9.99521 0
    endloop
  endfacet
  facet normal -0.924193 -0.381926 0
    outer loop
      vertex -0.229436 10.8879 0
      vertex -0.286713 11.0265 2.6
      vertex -0.286713 11.0265 0
    endloop
  endfacet
  facet normal -0.924193 -0.381926 0
    outer loop
      vertex -0.286713 11.0265 2.6
      vertex -0.229436 10.8879 0
      vertex -0.229436 10.8879 2.6
    endloop
  endfacet
  facet normal -0.381847 0.924226 0
    outer loop
      vertex 1.19022 11.6367 0
      vertex -0.286713 11.0265 2.6
      vertex 1.19022 11.6367 2.6
    endloop
  endfacet
  facet normal -0.381847 0.924226 0
    outer loop
      vertex -0.286713 11.0265 2.6
      vertex 1.19022 11.6367 0
      vertex -0.286713 11.0265 0
    endloop
  endfacet
  facet normal 0.924306 0.381651 0
    outer loop
      vertex 1.24749 11.498 2.6
      vertex 1.19022 11.6367 0
      vertex 1.19022 11.6367 2.6
    endloop
  endfacet
  facet normal 0.924306 0.381651 0
    outer loop
      vertex 1.19022 11.6367 0
      vertex 1.24749 11.498 2.6
      vertex 1.24749 11.498 0
    endloop
  endfacet
  facet normal 0.381829 -0.924233 0
    outer loop
      vertex -0.147148 10.7596 0
      vertex 1.27976 11.3491 2.6
      vertex -0.147148 10.7596 2.6
    endloop
  endfacet
  facet normal 0.381829 -0.924233 0
    outer loop
      vertex 1.27976 11.3491 2.6
      vertex -0.147148 10.7596 0
      vertex 1.27976 11.3491 0
    endloop
  endfacet
  facet normal 0.999394 0.0348021 0
    outer loop
      vertex 2.84454 11.5536 2.6
      vertex 2.83932 11.7035 0
      vertex 2.83932 11.7035 2.6
    endloop
  endfacet
  facet normal 0.999394 0.0348021 0
    outer loop
      vertex 2.83932 11.7035 0
      vertex 2.84454 11.5536 2.6
      vertex 2.84454 11.5536 0
    endloop
  endfacet
  facet normal 0.0347826 -0.999395 0
    outer loop
      vertex 1.27976 11.3491 0
      vertex 2.8227 11.4028 2.6
      vertex 1.27976 11.3491 2.6
    endloop
  endfacet
  facet normal 0.0347826 -0.999395 0
    outer loop
      vertex 2.8227 11.4028 2.6
      vertex 1.27976 11.3491 0
      vertex 2.8227 11.4028 0
    endloop
  endfacet
  facet normal -0.999397 -0.0347355 0
    outer loop
      vertex 1.24749 11.498 0
      vertex 1.24228 11.6479 2.6
      vertex 1.24228 11.6479 0
    endloop
  endfacet
  facet normal -0.999397 -0.0347355 0
    outer loop
      vertex 1.24228 11.6479 2.6
      vertex 1.24749 11.498 0
      vertex 1.24749 11.498 2.6
    endloop
  endfacet
  facet normal -0.0347933 0.999395 0
    outer loop
      vertex 2.83932 11.7035 0
      vertex 1.24228 11.6479 2.6
      vertex 2.83932 11.7035 2.6
    endloop
  endfacet
  facet normal -0.0347933 0.999395 0
    outer loop
      vertex 1.24228 11.6479 2.6
      vertex 2.83932 11.7035 0
      vertex 1.24228 11.6479 0
    endloop
  endfacet
  facet normal -0.94855 0.316628 0
    outer loop
      vertex 2.84454 11.5536 0
      vertex 2.89204 11.6959 2.6
      vertex 2.89204 11.6959 0
    endloop
  endfacet
  facet normal -0.94855 0.316628 0
    outer loop
      vertex 2.89204 11.6959 2.6
      vertex 2.84454 11.5536 0
      vertex 2.84454 11.5536 2.6
    endloop
  endfacet
  facet normal 0.94855 -0.316628 0
    outer loop
      vertex 4.3603 11.0475 2.6
      vertex 4.4078 11.1898 0
      vertex 4.4078 11.1898 2.6
    endloop
  endfacet
  facet normal 0.94855 -0.316628 0
    outer loop
      vertex 4.4078 11.1898 0
      vertex 4.3603 11.0475 2.6
      vertex 4.3603 11.0475 0
    endloop
  endfacet
  facet normal -0.316727 -0.948517 0
    outer loop
      vertex 2.8227 11.4028 0
      vertex 4.28713 10.9138 2.6
      vertex 2.8227 11.4028 2.6
    endloop
  endfacet
  facet normal -0.316727 -0.948517 -0
    outer loop
      vertex 4.28713 10.9138 2.6
      vertex 2.8227 11.4028 0
      vertex 4.28713 10.9138 0
    endloop
  endfacet
  facet normal 0.316705 0.948524 -0
    outer loop
      vertex 4.4078 11.1898 0
      vertex 2.89204 11.6959 2.6
      vertex 4.4078 11.1898 2.6
    endloop
  endfacet
  facet normal 0.316705 0.948524 0
    outer loop
      vertex 2.89204 11.6959 2.6
      vertex 4.4078 11.1898 0
      vertex 2.89204 11.6959 0
    endloop
  endfacet
  facet normal -0.778294 0.6279 0
    outer loop
      vertex 4.3603 11.0475 0
      vertex 4.45453 11.1643 2.6
      vertex 4.45453 11.1643 0
    endloop
  endfacet
  facet normal -0.778294 0.6279 0
    outer loop
      vertex 4.45453 11.1643 2.6
      vertex 4.3603 11.0475 0
      vertex 4.3603 11.0475 2.6
    endloop
  endfacet
  facet normal 0.62821 0.778044 -0
    outer loop
      vertex 5.69787 10.1604 0
      vertex 4.45453 11.1643 2.6
      vertex 5.69787 10.1604 2.6
    endloop
  endfacet
  facet normal 0.62821 0.778044 0
    outer loop
      vertex 4.45453 11.1643 2.6
      vertex 5.69787 10.1604 0
      vertex 4.45453 11.1643 0
    endloop
  endfacet
  facet normal -0.628183 -0.778066 0
    outer loop
      vertex 4.28713 10.9138 0
      vertex 5.48836 9.94397 2.6
      vertex 4.28713 10.9138 2.6
    endloop
  endfacet
  facet normal -0.628183 -0.778066 -0
    outer loop
      vertex 5.48836 9.94397 2.6
      vertex 4.28713 10.9138 0
      vertex 5.48836 9.94397 0
    endloop
  endfacet
  facet normal 0.778031 -0.628225 0
    outer loop
      vertex 5.60364 10.0437 2.6
      vertex 5.69787 10.1604 0
      vertex 5.69787 10.1604 2.6
    endloop
  endfacet
  facet normal 0.778031 -0.628225 0
    outer loop
      vertex 5.69787 10.1604 0
      vertex 5.60364 10.0437 2.6
      vertex 5.60364 10.0437 0
    endloop
  endfacet
  facet normal -0.509378 0.860543 0
    outer loop
      vertex 5.73271 10.1201 0
      vertex 5.60364 10.0437 2.6
      vertex 5.73271 10.1201 2.6
    endloop
  endfacet
  facet normal -0.509378 0.860543 0
    outer loop
      vertex 5.60364 10.0437 2.6
      vertex 5.73271 10.1201 0
      vertex 5.60364 10.0437 0
    endloop
  endfacet
  facet normal 0.860496 0.509458 0
    outer loop
      vertex 6.48297 8.85288 2.6
      vertex 5.73271 10.1201 0
      vertex 5.73271 10.1201 2.6
    endloop
  endfacet
  facet normal 0.860496 0.509458 0
    outer loop
      vertex 5.73271 10.1201 0
      vertex 6.48297 8.85288 2.6
      vertex 6.48297 8.85288 0
    endloop
  endfacet
  facet normal -0.860497 -0.509456 0
    outer loop
      vertex 6.19725 8.74662 0
      vertex 5.48836 9.94397 2.6
      vertex 5.48836 9.94397 0
    endloop
  endfacet
  facet normal -0.860497 -0.509456 0
    outer loop
      vertex 5.48836 9.94397 2.6
      vertex 6.19725 8.74662 0
      vertex 6.19725 8.74662 2.6
    endloop
  endfacet
  facet normal -0.8 0.6 0
    outer loop
      vertex -7.69 5.58 0
      vertex -7.6 5.7 2.6
      vertex -7.6 5.7 0
    endloop
  endfacet
  facet normal -0.8 0.6 0
    outer loop
      vertex -7.69 5.58 2.6
      vertex -7.6 5.7 2.6
      vertex -7.69 5.58 0
    endloop
  endfacet
  facet normal 0.6 0.8 -0
    outer loop
      vertex 0.0467466 0.152439 0
      vertex -7.39 5.73 2.6
      vertex 0.0467466 0.152439 2.6
    endloop
  endfacet
  facet normal 0.6 0.8 0
    outer loop
      vertex -7.39 5.73 2.6
      vertex 0.0467466 0.152439 0
      vertex -7.39 5.73 0
    endloop
  endfacet
  facet normal 0.800002 -0.599997 0
    outer loop
      vertex -7.1525e-07 -9.53674e-07 2.6
      vertex 0 0 0
      vertex 0 0 2.6
    endloop
  endfacet
  facet normal 0.800003 -0.599997 2.63948e-13
    outer loop
      vertex -0.0899992 -0.12 2.6
      vertex 0 0 0
      vertex -7.1525e-07 -9.53674e-07 2.6
    endloop
  endfacet
  facet normal 0.800003 -0.599997 0
    outer loop
      vertex 0 0 0
      vertex -0.0899992 -0.12 2.6
      vertex -0.0899992 -0.12 0
    endloop
  endfacet
  facet normal -0.6 -0.8 0
    outer loop
      vertex -7.69 5.58 0
      vertex -0.0899992 -0.12 2.6
      vertex -7.69 5.58 2.6
    endloop
  endfacet
  facet normal -0.6 -0.8 -0
    outer loop
      vertex -0.0899992 -0.12 2.6
      vertex -7.69 5.58 0
      vertex -0.0899992 -0.12 0
    endloop
  endfacet
  facet normal 0.6 0.8 -0
    outer loop
      vertex -3.4 11.3 0
      vertex -3.52 11.39 2.6
      vertex -3.4 11.3 2.6
    endloop
  endfacet
  facet normal 0.6 0.8 0
    outer loop
      vertex -3.52 11.39 2.6
      vertex -3.4 11.3 0
      vertex -3.52 11.39 0
    endloop
  endfacet
  facet normal 0.8 -0.6 0
    outer loop
      vertex -7.39 5.73 2.6
      vertex -3.37 11.09 0
      vertex -3.37 11.09 2.6
    endloop
  endfacet
  facet normal 0.8 -0.6 0
    outer loop
      vertex -3.37 11.09 0
      vertex -7.39 5.73 2.6
      vertex -7.39 5.73 0
    endloop
  endfacet
  facet normal -0.8 0.6 0
    outer loop
      vertex -7.72 5.79 0
      vertex -3.52 11.39 2.6
      vertex -3.52 11.39 0
    endloop
  endfacet
  facet normal -0.8 0.6 0
    outer loop
      vertex -3.52 11.39 2.6
      vertex -7.72 5.79 0
      vertex -7.72 5.79 2.6
    endloop
  endfacet
  facet normal -0.6 -0.8 0
    outer loop
      vertex -7.72 5.79 0
      vertex -7.6 5.7 2.6
      vertex -7.72 5.79 2.6
    endloop
  endfacet
  facet normal -0.6 -0.8 0
    outer loop
      vertex -7.6 5.7 0
      vertex -7.6 5.7 2.6
      vertex -7.72 5.79 0
    endloop
  endfacet
  facet normal -0.8 0.6 0
    outer loop
      vertex -3.31 11.42 0
      vertex -3.4 11.3 2.6
      vertex -3.31 11.42 2.6
    endloop
  endfacet
  facet normal -0.8 0.6 0
    outer loop
      vertex -3.4 11.3 0
      vertex -3.4 11.3 2.6
      vertex -3.31 11.42 0
    endloop
  endfacet
  facet normal 0.600002 0.799998 -0
    outer loop
      vertex -1.41029 9.99521 0
      vertex -3.31 11.42 2.6
      vertex -1.41029 9.99521 2.6
    endloop
  endfacet
  facet normal 0.600002 0.799998 0
    outer loop
      vertex -3.31 11.42 2.6
      vertex -1.41029 9.99521 0
      vertex -3.31 11.42 0
    endloop
  endfacet
  facet normal 0.6 0.8 -0
    outer loop
      vertex 2.22448 7.26914 0
      vertex -1.16641 9.81231 2.6
      vertex 2.22448 7.26914 2.6
    endloop
  endfacet
  facet normal 0.6 0.8 0
    outer loop
      vertex -1.16641 9.81231 2.6
      vertex 2.22448 7.26914 0
      vertex -1.16641 9.81231 0
    endloop
  endfacet
  facet normal 0.8 -0.6 0
    outer loop
      vertex 2.2 7.1 2.6
      vertex 2.11 6.98 2.6
      vertex 2.2 7.1 0
    endloop
  endfacet
  facet normal 0.8 -0.6 0
    outer loop
      vertex 2.2 7.1 0
      vertex 2.11 6.98 2.6
      vertex 2.11 6.98 0
    endloop
  endfacet
  facet normal -0.6 -0.8 0
    outer loop
      vertex -3.37 11.09 0
      vertex 2.11 6.98 2.6
      vertex -3.37 11.09 2.6
    endloop
  endfacet
  facet normal -0.6 -0.8 -0
    outer loop
      vertex 2.11 6.98 2.6
      vertex -3.37 11.09 0
      vertex 2.11 6.98 0
    endloop
  endfacet
  facet normal 0.937301 0.348521 0
    outer loop
      vertex 9.39028 9.93412 2.6
      vertex 9.44256 9.79352 2.6
      vertex 9.39028 9.93412 0
    endloop
  endfacet
  facet normal 0 1 -0
    outer loop
      vertex 9.44257 9.79352 0
      vertex 9.44256 9.79352 2.6
      vertex 9.44257 9.79352 2.6
    endloop
  endfacet
  facet normal 0.937279 0.34858 3.60492e-06
    outer loop
      vertex 9.44256 9.79352 2.6
      vertex 9.44257 9.79352 0
      vertex 9.39028 9.93412 0
    endloop
  endfacet
  facet normal 0.348576 -0.93728 0
    outer loop
      vertex 2.25229 6.95941 0
      vertex 9.38635 9.61258 2.6
      vertex 2.25229 6.95941 2.6
    endloop
  endfacet
  facet normal 0.348576 -0.93728 0
    outer loop
      vertex 9.38635 9.61258 2.6
      vertex 2.25229 6.95941 0
      vertex 9.38635 9.61258 0
    endloop
  endfacet
  facet normal -0.348578 0.93728 0
    outer loop
      vertex 9.39028 9.93412 0
      vertex 6.48297 8.85288 2.6
      vertex 9.39028 9.93412 2.6
    endloop
  endfacet
  facet normal -0.348578 0.93728 0
    outer loop
      vertex 6.48297 8.85288 2.6
      vertex 9.39028 9.93412 0
      vertex 6.48297 8.85288 0
    endloop
  endfacet
  facet normal -0.348576 0.93728 0
    outer loop
      vertex 6.19725 8.74662 0
      vertex 2.22448 7.26914 2.6
      vertex 6.19725 8.74662 2.6
    endloop
  endfacet
  facet normal -0.348576 0.93728 0
    outer loop
      vertex 2.22448 7.26914 2.6
      vertex 6.19725 8.74662 0
      vertex 2.22448 7.26914 0
    endloop
  endfacet
  facet normal -0.937271 -0.348602 0
    outer loop
      vertex 2.25229 6.95941 0
      vertex 2.2 7.1 2.6
      vertex 2.2 7.1 0
    endloop
  endfacet
  facet normal -0.937271 -0.348602 -0
    outer loop
      vertex 2.25229 6.95941 2.6
      vertex 2.2 7.1 2.6
      vertex 2.25229 6.95941 0
    endloop
  endfacet
  facet normal 0.574938 -0.818197 0
    outer loop
      vertex 12.4253 5.54695 0
      vertex 12.548 5.63317 2.6
      vertex 12.4253 5.54695 2.6
    endloop
  endfacet
  facet normal 0.574938 -0.818197 0
    outer loop
      vertex 12.548 5.63317 2.6
      vertex 12.4253 5.54695 0
      vertex 12.548 5.63317 0
    endloop
  endfacet
  facet normal -0.818313 -0.574773 0
    outer loop
      vertex 12.2622 5.51819 0
      vertex 9.38635 9.61258 2.6
      vertex 9.38635 9.61258 0
    endloop
  endfacet
  facet normal -0.818313 -0.574773 0
    outer loop
      vertex 9.38635 9.61258 2.6
      vertex 12.2622 5.51819 0
      vertex 12.2622 5.51819 2.6
    endloop
  endfacet
  facet normal 0.818317 0.574767 0
    outer loop
      vertex 12.548 5.63317 2.6
      vertex 9.56531 9.87974 0
      vertex 9.56531 9.87974 2.6
    endloop
  endfacet
  facet normal 0.818317 0.574767 0
    outer loop
      vertex 9.56531 9.87974 0
      vertex 12.548 5.63317 2.6
      vertex 12.548 5.63317 0
    endloop
  endfacet
  facet normal -0.574813 0.818285 0
    outer loop
      vertex 9.56531 9.87974 0
      vertex 9.44257 9.79352 2.6
      vertex 9.56531 9.87974 2.6
    endloop
  endfacet
  facet normal -0.574813 0.818285 0
    outer loop
      vertex 9.44257 9.79352 2.6
      vertex 9.56531 9.87974 0
      vertex 9.44257 9.79352 0
    endloop
  endfacet
  facet normal 0.260256 0.96554 -0
    outer loop
      vertex 12.5701 5.50792 0
      vertex 12.4253 5.54695 2.6
      vertex 12.5701 5.50792 2.6
    endloop
  endfacet
  facet normal 0.260256 0.96554 -0
    outer loop
      vertex 12.4253 5.54695 0
      vertex 12.4253 5.54695 2.6
      vertex 12.5701 5.50792 0
    endloop
  endfacet
  facet normal 0.965549 -0.260223 0
    outer loop
      vertex 11.2197 0.497297 2.6
      vertex 12.5701 5.50792 0
      vertex 12.5701 5.50792 2.6
    endloop
  endfacet
  facet normal 0.965549 -0.260223 0
    outer loop
      vertex 12.5701 5.50792 0
      vertex 11.2197 0.497297 2.6
      vertex 11.2197 0.497297 0
    endloop
  endfacet
  facet normal -0.965548 0.260224 0
    outer loop
      vertex 10.9585 0.68087 0
      vertex 12.2622 5.51819 2.6
      vertex 12.2622 5.51819 0
    endloop
  endfacet
  facet normal -0.965548 0.260224 0
    outer loop
      vertex 12.2622 5.51819 2.6
      vertex 10.9585 0.68087 0
      vertex 10.9585 0.68087 2.6
    endloop
  endfacet
  facet normal -0.260281 -0.965533 0
    outer loop
      vertex 11.0749 0.536331 0
      vertex 11.2197 0.497297 2.6
      vertex 11.0749 0.536331 2.6
    endloop
  endfacet
  facet normal -0.260281 -0.965533 -0
    outer loop
      vertex 11.2197 0.497297 2.6
      vertex 11.0749 0.536331 0
      vertex 11.2197 0.497297 0
    endloop
  endfacet
  facet normal -0.998829 -0.0483704 0
    outer loop
      vertex 0 0 0
      vertex 4.61837e-08 -9.53674e-07 2.6
      vertex 0 0 2.6
    endloop
  endfacet
  facet normal -0.998829 -0.0483705 -6.9795e-15
    outer loop
      vertex 0.00725555 -0.149824 0
      vertex 4.61837e-08 -9.53674e-07 2.6
      vertex 0 0 0
    endloop
  endfacet
  facet normal -0.998829 -0.0483705 -0
    outer loop
      vertex 0.00725555 -0.149824 2.6
      vertex 4.61837e-08 -9.53674e-07 2.6
      vertex 0.00725555 -0.149824 0
    endloop
  endfacet
  facet normal -0.048371 0.998829 0
    outer loop
      vertex 10.9585 0.68087 0
      vertex 0.0467466 0.152439 2.6
      vertex 10.9585 0.68087 2.6
    endloop
  endfacet
  facet normal -0.048371 0.998829 0
    outer loop
      vertex 0.0467466 0.152439 2.6
      vertex 10.9585 0.68087 0
      vertex 0.0467466 0.152439 0
    endloop
  endfacet
  facet normal 0.0483712 -0.998829 0
    outer loop
      vertex 0.00725555 -0.149824 0
      vertex 11.0821 0.386507 2.6
      vertex 0.00725555 -0.149824 2.6
    endloop
  endfacet
  facet normal 0.0483712 -0.998829 0
    outer loop
      vertex 11.0821 0.386507 2.6
      vertex 0.00725555 -0.149824 0
      vertex 11.0821 0.386507 0
    endloop
  endfacet
  facet normal 1 -0 0
    outer loop
      vertex 11.0749 0.53633 2.6
      vertex 11.0749 0.536331 0
      vertex 11.0749 0.536331 2.6
    endloop
  endfacet
  facet normal 0.998847 0.0480013 1.8462e-08
    outer loop
      vertex 11.0821 0.386507 2.6
      vertex 11.0749 0.536331 0
      vertex 11.0749 0.53633 2.6
    endloop
  endfacet
  facet normal 0.998847 0.048001 0
    outer loop
      vertex 11.0749 0.536331 0
      vertex 11.0821 0.386507 2.6
      vertex 11.0821 0.386507 0
    endloop
  endfacet
  facet normal -0.8 0.6 0
    outer loop
      vertex -3.4 11.3 2.6
      vertex -7.6 5.7 2.6
      vertex -5.5 8.5 5.14779
    endloop
  endfacet
  facet normal 0.8 -0.6 -4.98011e-17
    outer loop
      vertex -5.5 8.5 5.14779
      vertex -7.6 5.7 2.6
      vertex -3.4 11.3 2.6
    endloop
  endfacet
  facet normal 0 0 -1
    outer loop
      vertex 4.61837e-08 -9.53674e-07 2.6
      vertex -7.1525e-07 -9.53674e-07 2.6
      vertex 0 0 2.6
    endloop
  endfacet
  facet normal 0.818314 0.574772 0
    outer loop
      vertex 12.4253 5.54695 6.22796
      vertex 12.4253 5.54695 2.6
      vertex 9.44257 9.79352 2.6
    endloop
  endfacet
  facet normal 0 0.649556 0.760313
    outer loop
      vertex 12.4253 5.54695 6.22796
      vertex 9.44257 9.79352 2.6
      vertex 9.44256 9.79352 2.6
    endloop
  endfacet
  facet normal -0.818313 -0.574773 -0
    outer loop
      vertex 12.4253 5.54695 6.22796
      vertex 9.44256 9.79352 2.6
      vertex 12.4253 5.54695 2.6
    endloop
  endfacet
  facet normal 0.965549 -0.260223 0
    outer loop
      vertex 12.4253 5.54695 6.22796
      vertex 11.0749 0.536331 2.6
      vertex 12.4253 5.54695 2.6
    endloop
  endfacet
  facet normal 0.937183 0 -0.348838
    outer loop
      vertex 11.0749 0.53633 2.6
      vertex 11.0749 0.536331 2.6
      vertex 12.4253 5.54695 6.22796
    endloop
  endfacet
  facet normal -0.965549 0.260223 0
    outer loop
      vertex 12.4253 5.54695 2.6
      vertex 11.0749 0.536333 2.6
      vertex 12.4253 5.54695 6.22796
    endloop
  endfacet
  facet normal 0.353114 0.470819 -0.80848
    outer loop
      vertex -7.6 5.7 2.6
      vertex -5.49999 8.5 5.14779
      vertex -1.10505e-06 4.13534e-06 2.6
    endloop
  endfacet
  facet normal 0 0.67301 -0.739633
    outer loop
      vertex -5.49999 8.5 5.14779
      vertex -7.6 5.7 2.6
      vertex -5.5 8.5 5.14779
    endloop
  endfacet
  facet normal -0.353115 -0.470819 0.808479
    outer loop
      vertex 1.1 3.55 5.14779
      vertex -7.6 5.7 2.6
      vertex -9.53674e-07 -9.53674e-07 2.6
    endloop
  endfacet
  facet normal 0 0 0
    outer loop
      vertex 4.61837e-08 -9.53674e-07 2.6
      vertex -9.53674e-07 -9.53674e-07 2.6
      vertex -7.1525e-07 -9.53674e-07 2.6
    endloop
  endfacet
  facet normal 0 0 0
    outer loop
      vertex -9.53674e-07 -9.53674e-07 2.6
      vertex 4.61837e-08 -9.53674e-07 2.6
      vertex 9.53674e-07 -9.53674e-07 2.6
    endloop
  endfacet
  facet normal 0 -0.583067 0.812424
    outer loop
      vertex 9.53674e-07 -9.53674e-07 2.6
      vertex 1.1 3.55 5.14779
      vertex -9.53674e-07 -9.53674e-07 2.6
    endloop
  endfacet
  facet normal 0.353114 0.47082 -0.808479
    outer loop
      vertex -1.10505e-06 4.13534e-06 2.6
      vertex 1.1 3.55 5.14779
      vertex 1.24973e-06 2.36926e-06 2.6
    endloop
  endfacet
  facet normal 0.353115 0.47082 -0.808479
    outer loop
      vertex 1.1 3.55 5.14779
      vertex -1.10505e-06 4.13534e-06 2.6
      vertex -5.49999 8.5 5.14779
    endloop
  endfacet
  facet normal -0.353115 -0.47082 0.808479
    outer loop
      vertex -5.5 8.5 5.14779
      vertex -7.6 5.7 2.6
      vertex 1.1 3.55 5.14779
    endloop
  endfacet
  facet normal -0.353115 -0.47082 -0.808479
    outer loop
      vertex -5.5 8.5 5.14779
      vertex -3.4 11.3 2.6
      vertex 2.2 7.1 2.6
    endloop
  endfacet
  facet normal 0.353115 0.47082 0.808479
    outer loop
      vertex -5.5 8.5 5.14779
      vertex 2.2 7.1 2.6
      vertex -3.4 11.3 2.6
    endloop
  endfacet
  facet normal 0.353115 0.47082 0.808479
    outer loop
      vertex -5.5 8.5 5.14779
      vertex 1.1 3.55 5.14779
      vertex 2.2 7.1 2.6
    endloop
  endfacet
  facet normal -0.353115 -0.470819 -0.808479
    outer loop
      vertex -5.49999 8.5 5.14779
      vertex 2.2 7.1 2.6
      vertex 1.1 3.55 5.14779
    endloop
  endfacet
  facet normal 0 -0.876402 0.481579
    outer loop
      vertex 2.2 7.1 2.6
      vertex -5.49999 8.5 5.14779
      vertex -5.5 8.5 5.14779
    endloop
  endfacet
  facet normal 0.18112 -0.609849 -0.771544
    outer loop
      vertex 1.1 3.55 5.14779
      vertex 2.2 7.1 2.6
      vertex 12.4253 5.54695 6.22796
    endloop
  endfacet
  facet normal 0.204179 -0.549012 -0.810492
    outer loop
      vertex 12.4253 5.54695 6.22796
      vertex 2.2 7.1 2.6
      vertex 9.44256 9.79352 2.6
    endloop
  endfacet
  facet normal -0.176473 0.564771 0.806158
    outer loop
      vertex 1.1 3.55 5.14779
      vertex 12.4253 5.54695 6.22796
      vertex 9.44256 9.79352 2.6
    endloop
  endfacet
  facet normal -0.228109 0.613358 0.756147
    outer loop
      vertex 9.44256 9.79352 2.6
      vertex 2.2 7.1 2.6
      vertex 1.1 3.55 5.14779
    endloop
  endfacet
  facet normal 0.0266482 -0.588296 0.808206
    outer loop
      vertex 1.1 3.55 5.14779
      vertex 9.53674e-07 -9.53674e-07 2.6
      vertex 12.4253 5.54695 6.22796
    endloop
  endfacet
  facet normal -0.0285067 0.588645 -0.807889
    outer loop
      vertex 1.24973e-06 2.36926e-06 2.6
      vertex 1.1 3.55 5.14779
      vertex 11.0749 0.536333 2.6
    endloop
  endfacet
  facet normal 0.0286341 -0.591276 0.805961
    outer loop
      vertex 12.4253 5.54695 6.22796
      vertex 9.53674e-07 -9.53674e-07 2.6
      vertex 11.0749 0.53633 2.6
    endloop
  endfacet
  facet normal -0.0273323 0.591069 -0.806158
    outer loop
      vertex 12.4253 5.54695 6.22796
      vertex 11.0749 0.536333 2.6
      vertex 1.1 3.55 5.14779
    endloop
  endfacet
endsolid OpenSCAD_Model
