<?xml version="1.0" standalone="no"?>
<!DOCTYPE svg PUBLIC "-//W3C//DTD SVG 1.1//EN" "http://www.w3.org/Graphics/SVG/1.1/DTD/svg11.dtd">
<svg width="16mm" height="16mm" viewBox="-8 -8 16 16" xmlns="http://www.w3.org/2000/svg" version="1.1">
<title>OpenSCAD Model</title>
<path d="
M 3.06146,7.54102 L 3.06146,7.39102 L 3.16753,7.49709 L 3.96709,6.69754 L 3.92227,6.65272 L 4.65316,6.45687
 L 4.61435,6.31198 L 3.8416,6.51904 L 3.86101,6.59147 L 3.75494,6.48541 L 3.11413,7.12622 L 2.47303,5.57847
 L 3.91968,4.1318 L 5.01411,5.22623 L 4.32064,5.91972 L 4.53276,6.13185 L 7.49711,3.16752 L 7.39104,3.06147
 L 7.54103,3.06148 L 7.54102,0.400007 L 7.47762,0.400004 L 7.85598,-0.255313 L 7.72607,-0.330315 L 7.32608,0.362503
 L 7.39104,0.400014 L 7.24102,0.40001 L 7.24103,2.99933 L 5.22625,5.01411 L 2.82525,2.61311 L 3.02083,2.41753
 L 2.94129,2.33799 L 3.50697,1.7723 L 3.45393,1.71927 L 2.88826,2.28496 L 2.8087,2.2054 L 1.46859,3.5455
 L 0.399993,3.5455 L 0.39999,3.84551 L 1.43051,3.84551 L 1.62176,4.30724 L 1.68034,4.28298 L 1.58157,5.0332
 L 1.73028,5.05278 L 1.8347,4.25963 L 1.76034,4.24984 L 1.89892,4.19244 L 1.70766,3.73071 L 2.61311,2.82525
 L 3.70755,3.91968 L 2.34877,5.27846 L 2.20507,4.93155 L 1.92791,5.04635 L 2.07161,5.39326 L 0.399993,5.39326
 L 0.399991,5.69327 L 2.19587,5.69327 L 2.83698,7.24103 L -2.83698,7.24102 L -2.19588,5.69327 L -0.399993,5.69327
 L -0.399991,5.62986 L 0.255313,6.00822 L 0.330315,5.87831 L -0.362504,5.47832 L -0.399995,5.54327 L -0.40001,5.39326
 L -2.07161,5.39326 L -1.92791,5.04634 L -2.20506,4.93154 L -3.11413,7.12622 L -7.24102,2.99933 L -7.24102,0.149991
 L -3.8455,0.150007 L -3.8455,1.53073 L -3.6955,1.53073 L -3.80157,1.63679 L -1.70766,3.73071 L -1.89892,4.19244
 L -1.84034,4.2167 L -2.44068,4.67734 L -2.34935,4.79635 L -1.7147,4.30934 L -1.76035,4.24983 L -1.62176,4.30724
 L -1.43051,3.84551 L -0.399994,3.84551 L -0.399991,3.7821 L 0.255312,4.16046 L 0.330315,4.03055 L -0.362504,3.63056
 L -0.399995,3.69551 L -0.400011,3.5455 L -1.4686,3.54551 L -3.5455,1.46859 L -3.54551,-1.4686 L -3.3311,-1.683
 L -3.54322,-1.89515 L -3.80159,-1.63679 L -3.69552,-1.53073 L -3.84551,-1.53075 L -3.8455,-0.150005 L -7.24102,-0.150007
 L -7.24103,-2.99933 L -5.22625,-5.01411 L -2.82526,-2.61312 L -2.97754,-2.46084 L -2.93271,-2.41601 L -3.66362,-2.22015
 L -3.62481,-2.07526 L -2.85206,-2.28232 L -2.87147,-2.35475 L -2.7654,-2.24869 L -1.48359,-3.53051 L -1.53073,-3.53051
 L -1.53073,-3.6955 L -1.39215,-3.6381 L -0.473707,-5.85542 L -0.532281,-5.87968 L 0.0680547,-6.34033 L -0.0232694,-6.45933
 L -0.657948,-5.97232 L -0.612297,-5.91283 L -0.750874,-5.97023 L -1.65791,-3.78045 L -2.61312,-2.82526 L -5.01411,-5.22623
 L -2.99933,-7.24102 L -0.224497,-7.24101 L -0.444726,-6.70933 L -0.167559,-6.59453 L 0.100225,-7.24102 L 1.03074,-7.24102
 L 1.03073,-7.35353 L 2.03073,-7.35354 L 2.03073,-7.24103 L 2.99933,-7.24103 L 3.75493,-6.48542 L 3.96708,-6.69754
 L 3.16752,-7.49711 L 3.06147,-7.39104 L 3.06148,-7.54103 L 2.03073,-7.54102 L 2.03073,-7.42854 L 1.03073,-7.42853
 L 1.03074,-7.54103 L -3.06146,-7.54102 L -3.06146,-7.39102 L -3.16753,-7.49709 L -7.49711,-3.16752 L -7.39104,-3.06147
 L -7.54103,-3.06148 L -7.54102,3.06146 L -7.39102,3.06146 L -7.49709,3.16753 L -3.16752,7.49711 L -3.06147,7.39104
 L -3.06148,7.54103 z
M 3.50696,-1.7723 L 2.94129,-2.33798 L 3.02083,-2.41753 L 2.82525,-2.61311 L 5.22623,-5.01411 L 7.24102,-2.99933
 L 7.24102,-0.399994 L 7.54103,-0.399991 L 7.54102,-3.06146 L 7.39102,-3.06146 L 7.49709,-3.16753 L 4.53276,-6.13187
 L 4.48793,-6.08705 L 4.29208,-6.81795 L 4.14719,-6.77913 L 4.35425,-6.00638 L 4.42668,-6.02579 L 4.32062,-5.91973
 L 5.01411,-5.22625 L 2.62373,-2.83586 L 2.7298,-2.7298 L 2.50704,-2.50705 L 2.8087,-2.2054 L 2.88826,-2.28495
 L 3.45393,-1.71927 z
M 3.84551,-1.37967 L 3.8455,-1.53073 L 3.6955,-1.53073 L 3.80157,-1.63679 L 3.58652,-1.85185 L 3.37438,-1.63973
 L 3.5455,-1.46859 L 3.5455,-1.37967 z
M 3.8455,-0.399996 L 3.8455,-0.579672 L 3.73301,-0.579675 L 3.733,-1.37966 L 3.658,-1.37966 L 3.65801,-0.579674
 L 3.5455,-0.579669 L 3.5455,-0.399993 z
M 3.8455,0.57967 L 3.8455,0.400008 L 3.7821,0.400005 L 4.16046,-0.255312 L 4.03055,-0.330315 L 3.63056,0.362504
 L 3.69552,0.400015 L 3.5455,0.400011 L 3.54551,0.579673 z
M 3.73301,1.37966 L 3.73301,0.579681 L 3.65801,0.579682 L 3.65801,1.37967 z
M 3.80159,1.63679 L 3.69552,1.53073 L 3.84551,1.53075 L 3.84551,1.37967 L 3.54551,1.37968 L 3.54551,1.4686
 L 3.3744,1.63971 L 3.58652,1.85185 z
" stroke="black" fill="lightgray" stroke-width="0.5"/>
</svg>
